<?xml version="1.0" encoding="UTF-8" standalone="no"?>
<!DOCTYPE svg PUBLIC "-//W3C//DTD SVG 1.1//EN"
 "http://www.w3.org/Graphics/SVG/1.1/DTD/svg11.dtd">
<!-- Generated by graphviz version 12.2.1 (0)
 -->
<!-- Title: snakemake_dag Pages: 1 -->
<svg width="2941pt" height="692pt"
 viewBox="0.00 0.00 2941.25 692.00" xmlns="http://www.w3.org/2000/svg" xmlns:xlink="http://www.w3.org/1999/xlink">
<g id="graph0" class="graph" transform="scale(1 1) rotate(0) translate(4 688)">
<title>snakemake_dag</title>
<polygon fill="white" stroke="none" points="-4,4 -4,-688 2937.25,-688 2937.25,4 -4,4"/>
<!-- 0 -->
<g id="node1" class="node">
<title>0</title>
<path fill="none" stroke="#d85656" stroke-width="2" d="M1199.88,-36C1199.88,-36 1169.88,-36 1169.88,-36 1163.88,-36 1157.88,-30 1157.88,-24 1157.88,-24 1157.88,-12 1157.88,-12 1157.88,-6 1163.88,0 1169.88,0 1169.88,0 1199.88,0 1199.88,0 1205.88,0 1211.88,-6 1211.88,-12 1211.88,-12 1211.88,-24 1211.88,-24 1211.88,-30 1205.88,-36 1199.88,-36"/>
<text text-anchor="middle" x="1184.88" y="-14.12" font-family="sans" font-size="10.00">all</text>
</g>
<!-- 1 -->
<g id="node2" class="node">
<title>1</title>
<path fill="none" stroke="#5673d8" stroke-width="2" d="M1604.38,-324C1604.38,-324 1513.38,-324 1513.38,-324 1507.38,-324 1501.38,-318 1501.38,-312 1501.38,-312 1501.38,-300 1501.38,-300 1501.38,-294 1507.38,-288 1513.38,-288 1513.38,-288 1604.38,-288 1604.38,-288 1610.38,-288 1616.38,-294 1616.38,-300 1616.38,-300 1616.38,-312 1616.38,-312 1616.38,-318 1610.38,-324 1604.38,-324"/>
<text text-anchor="middle" x="1558.88" y="-302.12" font-family="sans" font-size="10.00">subread_featurecounts</text>
</g>
<!-- 1&#45;&gt;0 -->
<g id="edge1" class="edge">
<title>1&#45;&gt;0</title>
<path fill="none" stroke="grey" stroke-width="2" d="M1617.2,-289.48C1620.12,-288.93 1623.03,-288.43 1625.88,-288 1703.76,-276.26 2279.61,-309.09 2333.88,-252 2344.9,-240.4 2343.15,-229.04 2333.88,-216 2201.95,-30.44 1414.45,-18.88 1225.57,-18.8"/>
<polygon fill="grey" stroke="grey" stroke-width="2" points="1225.81,-15.3 1215.81,-18.81 1225.81,-22.3 1225.81,-15.3"/>
</g>
<!-- 33 -->
<g id="node34" class="node">
<title>33</title>
<path fill="none" stroke="#97d856" stroke-width="2" d="M73.88,-252C73.88,-252 43.88,-252 43.88,-252 37.88,-252 31.88,-246 31.88,-240 31.88,-240 31.88,-228 31.88,-228 31.88,-222 37.88,-216 43.88,-216 43.88,-216 73.88,-216 73.88,-216 79.88,-216 85.88,-222 85.88,-228 85.88,-228 85.88,-240 85.88,-240 85.88,-246 79.88,-252 73.88,-252"/>
<text text-anchor="middle" x="58.88" y="-230.12" font-family="sans" font-size="10.00">plot_pca</text>
</g>
<!-- 1&#45;&gt;33 -->
<g id="edge46" class="edge">
<title>1&#45;&gt;33</title>
<path fill="none" stroke="grey" stroke-width="2" d="M1500.56,-289.41C1497.63,-288.88 1494.73,-288.4 1491.88,-288 1234.5,-251.83 582.48,-264.35 322.88,-252 243.7,-248.23 151.3,-241.82 99.48,-238.04"/>
<polygon fill="grey" stroke="grey" stroke-width="2" points="99.85,-234.56 89.62,-237.31 99.34,-241.54 99.85,-234.56"/>
</g>
<!-- 2 -->
<g id="node3" class="node">
<title>2</title>
<path fill="none" stroke="#568ad8" stroke-width="2" d="M1854.62,-468C1854.62,-468 1777.12,-468 1777.12,-468 1771.12,-468 1765.12,-462 1765.12,-456 1765.12,-456 1765.12,-444 1765.12,-444 1765.12,-438 1771.12,-432 1777.12,-432 1777.12,-432 1854.62,-432 1854.62,-432 1860.62,-432 1866.62,-438 1866.62,-444 1866.62,-444 1866.62,-456 1866.62,-456 1866.62,-462 1860.62,-468 1854.62,-468"/>
<text text-anchor="middle" x="1815.88" y="-446.12" font-family="sans" font-size="10.00">samtools_sort_bam</text>
</g>
<!-- 2&#45;&gt;1 -->
<g id="edge4" class="edge">
<title>2&#45;&gt;1</title>
<path fill="none" stroke="grey" stroke-width="2" d="M1764.33,-443.37C1704.1,-435.78 1609.42,-420.32 1583.88,-396 1568.08,-380.97 1562.01,-356.83 1559.79,-337.48"/>
<polygon fill="grey" stroke="grey" stroke-width="2" points="1563.3,-337.44 1559.02,-327.75 1556.32,-337.99 1563.3,-337.44"/>
</g>
<!-- 27 -->
<g id="node28" class="node">
<title>27</title>
<path fill="none" stroke="#56b9d8" stroke-width="2" d="M1798,-396C1798,-396 1713.75,-396 1713.75,-396 1707.75,-396 1701.75,-390 1701.75,-384 1701.75,-384 1701.75,-372 1701.75,-372 1701.75,-366 1707.75,-360 1713.75,-360 1713.75,-360 1798,-360 1798,-360 1804,-360 1810,-366 1810,-372 1810,-372 1810,-384 1810,-384 1810,-390 1804,-396 1798,-396"/>
<text text-anchor="middle" x="1755.88" y="-374.12" font-family="sans" font-size="10.00">samtools_index_bam</text>
</g>
<!-- 2&#45;&gt;27 -->
<g id="edge40" class="edge">
<title>2&#45;&gt;27</title>
<path fill="none" stroke="grey" stroke-width="2" d="M1800.73,-431.34C1794.32,-423.85 1786.69,-414.95 1779.56,-406.63"/>
<polygon fill="grey" stroke="grey" stroke-width="2" points="1782.35,-404.51 1773.19,-399.2 1777.04,-409.07 1782.35,-404.51"/>
</g>
<!-- 48 -->
<g id="node49" class="node">
<title>48</title>
<path fill="none" stroke="#56d8c9" stroke-width="2" d="M1914.12,-396C1914.12,-396 1839.62,-396 1839.62,-396 1833.62,-396 1827.62,-390 1827.62,-384 1827.62,-384 1827.62,-372 1827.62,-372 1827.62,-366 1833.62,-360 1839.62,-360 1839.62,-360 1914.12,-360 1914.12,-360 1920.12,-360 1926.12,-366 1926.12,-372 1926.12,-372 1926.12,-384 1926.12,-384 1926.12,-390 1920.12,-396 1914.12,-396"/>
<text text-anchor="middle" x="1876.88" y="-374.12" font-family="sans" font-size="10.00">samtools_flagstats</text>
</g>
<!-- 2&#45;&gt;48 -->
<g id="edge85" class="edge">
<title>2&#45;&gt;48</title>
<path fill="none" stroke="grey" stroke-width="2" d="M1831.27,-431.34C1837.79,-423.85 1845.55,-414.95 1852.8,-406.63"/>
<polygon fill="grey" stroke="grey" stroke-width="2" points="1855.36,-409.02 1859.29,-399.18 1850.08,-404.42 1855.36,-409.02"/>
</g>
<!-- 54 -->
<g id="node55" class="node">
<title>54</title>
<path fill="none" stroke="#56d0d8" stroke-width="2" d="M1874.62,-324C1874.62,-324 1803.12,-324 1803.12,-324 1797.12,-324 1791.12,-318 1791.12,-312 1791.12,-312 1791.12,-300 1791.12,-300 1791.12,-294 1797.12,-288 1803.12,-288 1803.12,-288 1874.62,-288 1874.62,-288 1880.62,-288 1886.62,-294 1886.62,-300 1886.62,-300 1886.62,-312 1886.62,-312 1886.62,-318 1880.62,-324 1874.62,-324"/>
<text text-anchor="middle" x="1838.88" y="-302.12" font-family="sans" font-size="10.00">samtools_idxstats</text>
</g>
<!-- 2&#45;&gt;54 -->
<g id="edge91" class="edge">
<title>2&#45;&gt;54</title>
<path fill="none" stroke="grey" stroke-width="2" d="M1867.51,-439.57C1892.35,-432.16 1919.91,-419.05 1934.88,-396 1943.59,-382.58 1943.01,-373.78 1934.88,-360 1926.63,-346.03 1913.23,-335.49 1899.03,-327.64"/>
<polygon fill="grey" stroke="grey" stroke-width="2" points="1900.77,-324.59 1890.26,-323.26 1897.65,-330.86 1900.77,-324.59"/>
</g>
<!-- 60 -->
<g id="node61" class="node">
<title>60</title>
<path fill="none" stroke="#78d856" stroke-width="2" d="M1982.62,-324C1982.62,-324 1917.12,-324 1917.12,-324 1911.12,-324 1905.12,-318 1905.12,-312 1905.12,-312 1905.12,-300 1905.12,-300 1905.12,-294 1911.12,-288 1917.12,-288 1917.12,-288 1982.62,-288 1982.62,-288 1988.62,-288 1994.62,-294 1994.62,-300 1994.62,-300 1994.62,-312 1994.62,-312 1994.62,-318 1988.62,-324 1982.62,-324"/>
<text text-anchor="middle" x="1949.88" y="-302.12" font-family="sans" font-size="10.00">qualimap_bamqc</text>
</g>
<!-- 2&#45;&gt;60 -->
<g id="edge103" class="edge">
<title>2&#45;&gt;60</title>
<path fill="none" stroke="grey" stroke-width="2" d="M1867.4,-443.18C1897.43,-436.84 1933,-423.61 1951.88,-396 1963.45,-379.06 1962.49,-355.75 1958.87,-337.24"/>
<polygon fill="grey" stroke="grey" stroke-width="2" points="1962.32,-336.63 1956.61,-327.71 1955.51,-338.25 1962.32,-336.63"/>
</g>
<!-- 68 -->
<g id="node69" class="node">
<title>68</title>
<path fill="none" stroke="#56d8a9" stroke-width="2" d="M1722.88,-324C1722.88,-324 1646.88,-324 1646.88,-324 1640.88,-324 1634.88,-318 1634.88,-312 1634.88,-312 1634.88,-300 1634.88,-300 1634.88,-294 1640.88,-288 1646.88,-288 1646.88,-288 1722.88,-288 1722.88,-288 1728.88,-288 1734.88,-294 1734.88,-300 1734.88,-300 1734.88,-312 1734.88,-312 1734.88,-318 1728.88,-324 1722.88,-324"/>
<text text-anchor="middle" x="1684.88" y="-302.12" font-family="sans" font-size="10.00">qualimap_rnaseqqc</text>
</g>
<!-- 2&#45;&gt;68 -->
<g id="edge123" class="edge">
<title>2&#45;&gt;68</title>
<path fill="none" stroke="grey" stroke-width="2" d="M1764.36,-439.7C1738.7,-432.3 1709.65,-419.16 1692.88,-396 1680.85,-379.4 1679.11,-356.23 1680.24,-337.69"/>
<polygon fill="grey" stroke="grey" stroke-width="2" points="1683.7,-338.19 1681.2,-327.9 1676.74,-337.5 1683.7,-338.19"/>
</g>
<!-- 3 -->
<g id="node4" class="node">
<title>3</title>
<path fill="none" stroke="#56a2d8" stroke-width="2" d="M1855.75,-540C1855.75,-540 1776,-540 1776,-540 1770,-540 1764,-534 1764,-528 1764,-528 1764,-516 1764,-516 1764,-510 1770,-504 1776,-504 1776,-504 1855.75,-504 1855.75,-504 1861.75,-504 1867.75,-510 1867.75,-516 1867.75,-516 1867.75,-528 1867.75,-528 1867.75,-534 1861.75,-540 1855.75,-540"/>
<text text-anchor="middle" x="1815.88" y="-518.12" font-family="sans" font-size="10.00">samtools_sam2bam</text>
</g>
<!-- 3&#45;&gt;2 -->
<g id="edge16" class="edge">
<title>3&#45;&gt;2</title>
<path fill="none" stroke="grey" stroke-width="2" d="M1815.88,-503.34C1815.88,-496.75 1815.88,-489.08 1815.88,-481.67"/>
<polygon fill="grey" stroke="grey" stroke-width="2" points="1819.38,-481.93 1815.88,-471.93 1812.38,-481.93 1819.38,-481.93"/>
</g>
<!-- 4 -->
<g id="node5" class="node">
<title>4</title>
<path fill="none" stroke="#d8bc56" stroke-width="2" d="M1837.75,-612C1837.75,-612 1794,-612 1794,-612 1788,-612 1782,-606 1782,-600 1782,-600 1782,-588 1782,-588 1782,-582 1788,-576 1794,-576 1794,-576 1837.75,-576 1837.75,-576 1843.75,-576 1849.75,-582 1849.75,-588 1849.75,-588 1849.75,-600 1849.75,-600 1849.75,-606 1843.75,-612 1837.75,-612"/>
<text text-anchor="middle" x="1815.88" y="-590.12" font-family="sans" font-size="10.00">hisat2_align</text>
</g>
<!-- 4&#45;&gt;3 -->
<g id="edge17" class="edge">
<title>4&#45;&gt;3</title>
<path fill="none" stroke="grey" stroke-width="2" d="M1815.88,-575.34C1815.88,-568.75 1815.88,-561.08 1815.88,-553.67"/>
<polygon fill="grey" stroke="grey" stroke-width="2" points="1819.38,-553.93 1815.88,-543.93 1812.38,-553.93 1819.38,-553.93"/>
</g>
<!-- 5 -->
<g id="node6" class="node">
<title>5</title>
<path fill="none" stroke="#d86e56" stroke-width="2" stroke-dasharray="5,2" d="M2128,-684C2128,-684 2073.75,-684 2073.75,-684 2067.75,-684 2061.75,-678 2061.75,-672 2061.75,-672 2061.75,-660 2061.75,-660 2061.75,-654 2067.75,-648 2073.75,-648 2073.75,-648 2128,-648 2128,-648 2134,-648 2140,-654 2140,-660 2140,-660 2140,-672 2140,-672 2140,-678 2134,-684 2128,-684"/>
<text text-anchor="middle" x="2100.88" y="-667.75" font-family="sans" font-size="10.00">fastp_trim</text>
<text text-anchor="middle" x="2100.88" y="-656.5" font-family="sans" font-size="10.00">sample: KO_1</text>
</g>
<!-- 5&#45;&gt;4 -->
<g id="edge18" class="edge">
<title>5&#45;&gt;4</title>
<path fill="none" stroke="grey" stroke-width="2" d="M2060.95,-655.19C2009.04,-642.44 1918.5,-620.21 1863.2,-606.62"/>
<polygon fill="grey" stroke="grey" stroke-width="2" points="1864.1,-603.24 1853.56,-604.25 1862.43,-610.04 1864.1,-603.24"/>
</g>
<!-- 42 -->
<g id="node43" class="node">
<title>42</title>
<path fill="none" stroke="#d88556" stroke-width="2" d="M2313.25,-252C2313.25,-252 2248.5,-252 2248.5,-252 2242.5,-252 2236.5,-246 2236.5,-240 2236.5,-240 2236.5,-228 2236.5,-228 2236.5,-222 2242.5,-216 2248.5,-216 2248.5,-216 2313.25,-216 2313.25,-216 2319.25,-216 2325.25,-222 2325.25,-228 2325.25,-228 2325.25,-240 2325.25,-240 2325.25,-246 2319.25,-252 2313.25,-252"/>
<text text-anchor="middle" x="2280.88" y="-230.12" font-family="sans" font-size="10.00">fastqc_post_trim</text>
</g>
<!-- 5&#45;&gt;42 -->
<g id="edge79" class="edge">
<title>5&#45;&gt;42</title>
<path fill="none" stroke="grey" stroke-width="2" d="M2140.71,-663.97C2222.32,-659.53 2400.88,-636.81 2400.88,-523 2400.88,-523 2400.88,-523 2400.88,-377 2400.88,-333.99 2390.59,-320.89 2362.88,-288 2353.59,-276.98 2341.44,-267.44 2329.34,-259.61"/>
<polygon fill="grey" stroke="grey" stroke-width="2" points="2331.27,-256.69 2320.91,-254.48 2327.63,-262.67 2331.27,-256.69"/>
</g>
<!-- 6 -->
<g id="node7" class="node">
<title>6</title>
<path fill="none" stroke="#d8d356" stroke-width="2" d="M1390.5,-684C1390.5,-684 1309.25,-684 1309.25,-684 1303.25,-684 1297.25,-678 1297.25,-672 1297.25,-672 1297.25,-660 1297.25,-660 1297.25,-654 1303.25,-648 1309.25,-648 1309.25,-648 1390.5,-648 1390.5,-648 1396.5,-648 1402.5,-654 1402.5,-660 1402.5,-660 1402.5,-672 1402.5,-672 1402.5,-678 1396.5,-684 1390.5,-684"/>
<text text-anchor="middle" x="1349.88" y="-662.12" font-family="sans" font-size="10.00">hisat_index_genome</text>
</g>
<!-- 6&#45;&gt;4 -->
<g id="edge19" class="edge">
<title>6&#45;&gt;4</title>
<path fill="none" stroke="grey" stroke-width="2" d="M1403.33,-656.97C1495.09,-643.19 1681.09,-615.25 1768.49,-602.12"/>
<polygon fill="grey" stroke="grey" stroke-width="2" points="1768.78,-605.61 1778.15,-600.67 1767.74,-598.69 1768.78,-605.61"/>
</g>
<!-- 9 -->
<g id="node10" class="node">
<title>9</title>
<path fill="none" stroke="#d8bc56" stroke-width="2" d="M2604.75,-612C2604.75,-612 2561,-612 2561,-612 2555,-612 2549,-606 2549,-600 2549,-600 2549,-588 2549,-588 2549,-582 2555,-576 2561,-576 2561,-576 2604.75,-576 2604.75,-576 2610.75,-576 2616.75,-582 2616.75,-588 2616.75,-588 2616.75,-600 2616.75,-600 2616.75,-606 2610.75,-612 2604.75,-612"/>
<text text-anchor="middle" x="2582.88" y="-590.12" font-family="sans" font-size="10.00">hisat2_align</text>
</g>
<!-- 6&#45;&gt;9 -->
<g id="edge23" class="edge">
<title>6&#45;&gt;9</title>
<path fill="none" stroke="grey" stroke-width="2" d="M1403.25,-661.97C1607.95,-650.35 2341.04,-608.73 2535.33,-597.7"/>
<polygon fill="grey" stroke="grey" stroke-width="2" points="2535.31,-601.21 2545.1,-597.14 2534.92,-594.22 2535.31,-601.21"/>
</g>
<!-- 13 -->
<g id="node14" class="node">
<title>13</title>
<path fill="none" stroke="#d8bc56" stroke-width="2" d="M915.75,-612C915.75,-612 872,-612 872,-612 866,-612 860,-606 860,-600 860,-600 860,-588 860,-588 860,-582 866,-576 872,-576 872,-576 915.75,-576 915.75,-576 921.75,-576 927.75,-582 927.75,-588 927.75,-588 927.75,-600 927.75,-600 927.75,-606 921.75,-612 915.75,-612"/>
<text text-anchor="middle" x="893.88" y="-590.12" font-family="sans" font-size="10.00">hisat2_align</text>
</g>
<!-- 6&#45;&gt;13 -->
<g id="edge27" class="edge">
<title>6&#45;&gt;13</title>
<path fill="none" stroke="grey" stroke-width="2" d="M1296.38,-653.25C1287.22,-651.39 1277.79,-649.56 1268.88,-648 1151.51,-627.41 1012.39,-609.41 941.13,-600.66"/>
<polygon fill="grey" stroke="grey" stroke-width="2" points="941.99,-597.23 931.64,-599.5 941.14,-604.18 941.99,-597.23"/>
</g>
<!-- 17 -->
<g id="node18" class="node">
<title>17</title>
<path fill="none" stroke="#d8bc56" stroke-width="2" d="M537.75,-612C537.75,-612 494,-612 494,-612 488,-612 482,-606 482,-600 482,-600 482,-588 482,-588 482,-582 488,-576 494,-576 494,-576 537.75,-576 537.75,-576 543.75,-576 549.75,-582 549.75,-588 549.75,-588 549.75,-600 549.75,-600 549.75,-606 543.75,-612 537.75,-612"/>
<text text-anchor="middle" x="515.88" y="-590.12" font-family="sans" font-size="10.00">hisat2_align</text>
</g>
<!-- 6&#45;&gt;17 -->
<g id="edge31" class="edge">
<title>6&#45;&gt;17</title>
<path fill="none" stroke="grey" stroke-width="2" d="M1296.46,-652.71C1287.3,-650.91 1277.84,-649.25 1268.88,-648 1131.5,-628.84 706.5,-605.13 563.43,-597.49"/>
<polygon fill="grey" stroke="grey" stroke-width="2" points="563.68,-594 553.51,-596.97 563.31,-600.99 563.68,-594"/>
</g>
<!-- 21 -->
<g id="node22" class="node">
<title>21</title>
<path fill="none" stroke="#d8bc56" stroke-width="2" d="M1306.75,-612C1306.75,-612 1263,-612 1263,-612 1257,-612 1251,-606 1251,-600 1251,-600 1251,-588 1251,-588 1251,-582 1257,-576 1263,-576 1263,-576 1306.75,-576 1306.75,-576 1312.75,-576 1318.75,-582 1318.75,-588 1318.75,-588 1318.75,-600 1318.75,-600 1318.75,-606 1312.75,-612 1306.75,-612"/>
<text text-anchor="middle" x="1284.88" y="-590.12" font-family="sans" font-size="10.00">hisat2_align</text>
</g>
<!-- 6&#45;&gt;21 -->
<g id="edge35" class="edge">
<title>6&#45;&gt;21</title>
<path fill="none" stroke="grey" stroke-width="2" d="M1333.47,-647.34C1326.44,-639.77 1318.07,-630.75 1310.27,-622.35"/>
<polygon fill="grey" stroke="grey" stroke-width="2" points="1312.93,-620.07 1303.56,-615.12 1307.8,-624.83 1312.93,-620.07"/>
</g>
<!-- 25 -->
<g id="node26" class="node">
<title>25</title>
<path fill="none" stroke="#d8bc56" stroke-width="2" d="M2207.75,-612C2207.75,-612 2164,-612 2164,-612 2158,-612 2152,-606 2152,-600 2152,-600 2152,-588 2152,-588 2152,-582 2158,-576 2164,-576 2164,-576 2207.75,-576 2207.75,-576 2213.75,-576 2219.75,-582 2219.75,-588 2219.75,-588 2219.75,-600 2219.75,-600 2219.75,-606 2213.75,-612 2207.75,-612"/>
<text text-anchor="middle" x="2185.88" y="-590.12" font-family="sans" font-size="10.00">hisat2_align</text>
</g>
<!-- 6&#45;&gt;25 -->
<g id="edge39" class="edge">
<title>6&#45;&gt;25</title>
<path fill="none" stroke="grey" stroke-width="2" d="M1403.44,-660.51C1556.33,-647.71 1993.08,-611.14 2138.28,-598.98"/>
<polygon fill="grey" stroke="grey" stroke-width="2" points="2138.32,-602.49 2148,-598.17 2137.74,-595.52 2138.32,-602.49"/>
</g>
<!-- 7 -->
<g id="node8" class="node">
<title>7</title>
<path fill="none" stroke="#568ad8" stroke-width="2" d="M2621.62,-468C2621.62,-468 2544.12,-468 2544.12,-468 2538.12,-468 2532.12,-462 2532.12,-456 2532.12,-456 2532.12,-444 2532.12,-444 2532.12,-438 2538.12,-432 2544.12,-432 2544.12,-432 2621.62,-432 2621.62,-432 2627.62,-432 2633.62,-438 2633.62,-444 2633.62,-444 2633.62,-456 2633.62,-456 2633.62,-462 2627.62,-468 2621.62,-468"/>
<text text-anchor="middle" x="2582.88" y="-446.12" font-family="sans" font-size="10.00">samtools_sort_bam</text>
</g>
<!-- 7&#45;&gt;1 -->
<g id="edge5" class="edge">
<title>7&#45;&gt;1</title>
<path fill="none" stroke="grey" stroke-width="2" d="M2531.17,-446.34C2344.11,-436.68 1712.56,-403.57 1692.88,-396 1668.97,-386.81 1668.93,-374.59 1647.88,-360 1633.39,-349.96 1616.95,-339.84 1602.17,-331.17"/>
<polygon fill="grey" stroke="grey" stroke-width="2" points="1604.29,-328.35 1593.88,-326.37 1600.78,-334.41 1604.29,-328.35"/>
</g>
<!-- 28 -->
<g id="node29" class="node">
<title>28</title>
<path fill="none" stroke="#56b9d8" stroke-width="2" d="M2585,-396C2585,-396 2500.75,-396 2500.75,-396 2494.75,-396 2488.75,-390 2488.75,-384 2488.75,-384 2488.75,-372 2488.75,-372 2488.75,-366 2494.75,-360 2500.75,-360 2500.75,-360 2585,-360 2585,-360 2591,-360 2597,-366 2597,-372 2597,-372 2597,-384 2597,-384 2597,-390 2591,-396 2585,-396"/>
<text text-anchor="middle" x="2542.88" y="-374.12" font-family="sans" font-size="10.00">samtools_index_bam</text>
</g>
<!-- 7&#45;&gt;28 -->
<g id="edge41" class="edge">
<title>7&#45;&gt;28</title>
<path fill="none" stroke="grey" stroke-width="2" d="M2572.78,-431.34C2568.74,-424.26 2563.97,-415.92 2559.45,-408"/>
<polygon fill="grey" stroke="grey" stroke-width="2" points="2562.61,-406.48 2554.61,-399.53 2556.53,-409.95 2562.61,-406.48"/>
</g>
<!-- 49 -->
<g id="node50" class="node">
<title>49</title>
<path fill="none" stroke="#56d8c9" stroke-width="2" d="M2777.12,-396C2777.12,-396 2702.62,-396 2702.62,-396 2696.62,-396 2690.62,-390 2690.62,-384 2690.62,-384 2690.62,-372 2690.62,-372 2690.62,-366 2696.62,-360 2702.62,-360 2702.62,-360 2777.12,-360 2777.12,-360 2783.12,-360 2789.12,-366 2789.12,-372 2789.12,-372 2789.12,-384 2789.12,-384 2789.12,-390 2783.12,-396 2777.12,-396"/>
<text text-anchor="middle" x="2739.88" y="-374.12" font-family="sans" font-size="10.00">samtools_flagstats</text>
</g>
<!-- 7&#45;&gt;49 -->
<g id="edge86" class="edge">
<title>7&#45;&gt;49</title>
<path fill="none" stroke="grey" stroke-width="2" d="M2622.9,-431.15C2642.66,-422.34 2666.74,-411.61 2687.91,-402.17"/>
<polygon fill="grey" stroke="grey" stroke-width="2" points="2689.18,-405.44 2696.89,-398.17 2686.33,-399.04 2689.18,-405.44"/>
</g>
<!-- 55 -->
<g id="node56" class="node">
<title>55</title>
<path fill="none" stroke="#56d0d8" stroke-width="2" d="M2630.62,-324C2630.62,-324 2559.12,-324 2559.12,-324 2553.12,-324 2547.12,-318 2547.12,-312 2547.12,-312 2547.12,-300 2547.12,-300 2547.12,-294 2553.12,-288 2559.12,-288 2559.12,-288 2630.62,-288 2630.62,-288 2636.62,-288 2642.62,-294 2642.62,-300 2642.62,-300 2642.62,-312 2642.62,-312 2642.62,-318 2636.62,-324 2630.62,-324"/>
<text text-anchor="middle" x="2594.88" y="-302.12" font-family="sans" font-size="10.00">samtools_idxstats</text>
</g>
<!-- 7&#45;&gt;55 -->
<g id="edge93" class="edge">
<title>7&#45;&gt;55</title>
<path fill="none" stroke="grey" stroke-width="2" d="M2592.66,-431.45C2597.69,-421.41 2603.31,-408.37 2605.88,-396 2609.89,-376.66 2607.22,-354.63 2603.51,-337.33"/>
<polygon fill="grey" stroke="grey" stroke-width="2" points="2606.96,-336.71 2601.21,-327.81 2600.16,-338.36 2606.96,-336.71"/>
</g>
<!-- 61 -->
<g id="node62" class="node">
<title>61</title>
<path fill="none" stroke="#78d856" stroke-width="2" d="M2738.62,-324C2738.62,-324 2673.12,-324 2673.12,-324 2667.12,-324 2661.12,-318 2661.12,-312 2661.12,-312 2661.12,-300 2661.12,-300 2661.12,-294 2667.12,-288 2673.12,-288 2673.12,-288 2738.62,-288 2738.62,-288 2744.62,-288 2750.62,-294 2750.62,-300 2750.62,-300 2750.62,-312 2750.62,-312 2750.62,-318 2744.62,-324 2738.62,-324"/>
<text text-anchor="middle" x="2705.88" y="-302.12" font-family="sans" font-size="10.00">qualimap_bamqc</text>
</g>
<!-- 7&#45;&gt;61 -->
<g id="edge105" class="edge">
<title>7&#45;&gt;61</title>
<path fill="none" stroke="grey" stroke-width="2" d="M2598.45,-431.02C2619.52,-406.69 2657.31,-363.07 2681.98,-334.58"/>
<polygon fill="grey" stroke="grey" stroke-width="2" points="2684.54,-336.98 2688.44,-327.13 2679.25,-332.39 2684.54,-336.98"/>
</g>
<!-- 69 -->
<g id="node70" class="node">
<title>69</title>
<path fill="none" stroke="#56d8a9" stroke-width="2" d="M2516.88,-324C2516.88,-324 2440.88,-324 2440.88,-324 2434.88,-324 2428.88,-318 2428.88,-312 2428.88,-312 2428.88,-300 2428.88,-300 2428.88,-294 2434.88,-288 2440.88,-288 2440.88,-288 2516.88,-288 2516.88,-288 2522.88,-288 2528.88,-294 2528.88,-300 2528.88,-300 2528.88,-312 2528.88,-312 2528.88,-318 2522.88,-324 2516.88,-324"/>
<text text-anchor="middle" x="2478.88" y="-302.12" font-family="sans" font-size="10.00">qualimap_rnaseqqc</text>
</g>
<!-- 7&#45;&gt;69 -->
<g id="edge125" class="edge">
<title>7&#45;&gt;69</title>
<path fill="none" stroke="grey" stroke-width="2" d="M2531.39,-435.09C2511.78,-427.03 2491.4,-414.65 2479.88,-396 2469.21,-378.74 2469.22,-355.76 2471.77,-337.48"/>
<polygon fill="grey" stroke="grey" stroke-width="2" points="2475.17,-338.31 2473.48,-327.85 2468.28,-337.08 2475.17,-338.31"/>
</g>
<!-- 8 -->
<g id="node9" class="node">
<title>8</title>
<path fill="none" stroke="#56a2d8" stroke-width="2" d="M2622.75,-540C2622.75,-540 2543,-540 2543,-540 2537,-540 2531,-534 2531,-528 2531,-528 2531,-516 2531,-516 2531,-510 2537,-504 2543,-504 2543,-504 2622.75,-504 2622.75,-504 2628.75,-504 2634.75,-510 2634.75,-516 2634.75,-516 2634.75,-528 2634.75,-528 2634.75,-534 2628.75,-540 2622.75,-540"/>
<text text-anchor="middle" x="2582.88" y="-518.12" font-family="sans" font-size="10.00">samtools_sam2bam</text>
</g>
<!-- 8&#45;&gt;7 -->
<g id="edge20" class="edge">
<title>8&#45;&gt;7</title>
<path fill="none" stroke="grey" stroke-width="2" d="M2582.88,-503.34C2582.88,-496.75 2582.88,-489.08 2582.88,-481.67"/>
<polygon fill="grey" stroke="grey" stroke-width="2" points="2586.38,-481.93 2582.88,-471.93 2579.38,-481.93 2586.38,-481.93"/>
</g>
<!-- 9&#45;&gt;8 -->
<g id="edge21" class="edge">
<title>9&#45;&gt;8</title>
<path fill="none" stroke="grey" stroke-width="2" d="M2582.88,-575.34C2582.88,-568.75 2582.88,-561.08 2582.88,-553.67"/>
<polygon fill="grey" stroke="grey" stroke-width="2" points="2586.38,-553.93 2582.88,-543.93 2579.38,-553.93 2586.38,-553.93"/>
</g>
<!-- 10 -->
<g id="node11" class="node">
<title>10</title>
<path fill="none" stroke="#d86e56" stroke-width="2" d="M2766,-684C2766,-684 2711.75,-684 2711.75,-684 2705.75,-684 2699.75,-678 2699.75,-672 2699.75,-672 2699.75,-660 2699.75,-660 2699.75,-654 2705.75,-648 2711.75,-648 2711.75,-648 2766,-648 2766,-648 2772,-648 2778,-654 2778,-660 2778,-660 2778,-672 2778,-672 2778,-678 2772,-684 2766,-684"/>
<text text-anchor="middle" x="2738.88" y="-667.75" font-family="sans" font-size="10.00">fastp_trim</text>
<text text-anchor="middle" x="2738.88" y="-656.5" font-family="sans" font-size="10.00">sample: KO_2</text>
</g>
<!-- 10&#45;&gt;9 -->
<g id="edge22" class="edge">
<title>10&#45;&gt;9</title>
<path fill="none" stroke="grey" stroke-width="2" d="M2699.11,-647.15C2677.86,-637.62 2651.58,-625.83 2629.38,-615.87"/>
<polygon fill="grey" stroke="grey" stroke-width="2" points="2630.85,-612.69 2620.29,-611.79 2627.98,-619.08 2630.85,-612.69"/>
</g>
<!-- 43 -->
<g id="node44" class="node">
<title>43</title>
<path fill="none" stroke="#d88556" stroke-width="2" d="M2921.25,-252C2921.25,-252 2856.5,-252 2856.5,-252 2850.5,-252 2844.5,-246 2844.5,-240 2844.5,-240 2844.5,-228 2844.5,-228 2844.5,-222 2850.5,-216 2856.5,-216 2856.5,-216 2921.25,-216 2921.25,-216 2927.25,-216 2933.25,-222 2933.25,-228 2933.25,-228 2933.25,-240 2933.25,-240 2933.25,-246 2927.25,-252 2921.25,-252"/>
<text text-anchor="middle" x="2888.88" y="-230.12" font-family="sans" font-size="10.00">fastqc_post_trim</text>
</g>
<!-- 10&#45;&gt;43 -->
<g id="edge80" class="edge">
<title>10&#45;&gt;43</title>
<path fill="none" stroke="grey" stroke-width="2" d="M2773.82,-647.13C2813.22,-624.2 2871.88,-580.42 2871.88,-523 2871.88,-523 2871.88,-523 2871.88,-377 2871.88,-338.38 2878.15,-294.27 2883.08,-265.59"/>
<polygon fill="grey" stroke="grey" stroke-width="2" points="2886.51,-266.29 2884.82,-255.83 2879.62,-265.06 2886.51,-266.29"/>
</g>
<!-- 11 -->
<g id="node12" class="node">
<title>11</title>
<path fill="none" stroke="#568ad8" stroke-width="2" d="M932.62,-468C932.62,-468 855.12,-468 855.12,-468 849.12,-468 843.12,-462 843.12,-456 843.12,-456 843.12,-444 843.12,-444 843.12,-438 849.12,-432 855.12,-432 855.12,-432 932.62,-432 932.62,-432 938.62,-432 944.62,-438 944.62,-444 944.62,-444 944.62,-456 944.62,-456 944.62,-462 938.62,-468 932.62,-468"/>
<text text-anchor="middle" x="893.88" y="-446.12" font-family="sans" font-size="10.00">samtools_sort_bam</text>
</g>
<!-- 11&#45;&gt;1 -->
<g id="edge6" class="edge">
<title>11&#45;&gt;1</title>
<path fill="none" stroke="grey" stroke-width="2" d="M945.39,-446.1C1076.12,-438.47 1413.64,-416.97 1459.88,-396 1481.06,-386.39 1480.65,-375.63 1497.88,-360 1507.59,-351.18 1518.35,-341.74 1528.09,-333.3"/>
<polygon fill="grey" stroke="grey" stroke-width="2" points="1530.21,-336.09 1535.5,-326.91 1525.64,-330.79 1530.21,-336.09"/>
</g>
<!-- 29 -->
<g id="node30" class="node">
<title>29</title>
<path fill="none" stroke="#56b9d8" stroke-width="2" d="M977,-396C977,-396 892.75,-396 892.75,-396 886.75,-396 880.75,-390 880.75,-384 880.75,-384 880.75,-372 880.75,-372 880.75,-366 886.75,-360 892.75,-360 892.75,-360 977,-360 977,-360 983,-360 989,-366 989,-372 989,-372 989,-384 989,-384 989,-390 983,-396 977,-396"/>
<text text-anchor="middle" x="934.88" y="-374.12" font-family="sans" font-size="10.00">samtools_index_bam</text>
</g>
<!-- 11&#45;&gt;29 -->
<g id="edge42" class="edge">
<title>11&#45;&gt;29</title>
<path fill="none" stroke="grey" stroke-width="2" d="M904.22,-431.34C908.37,-424.26 913.25,-415.92 917.89,-408"/>
<polygon fill="grey" stroke="grey" stroke-width="2" points="920.83,-409.91 922.86,-399.51 914.79,-406.37 920.83,-409.91"/>
</g>
<!-- 50 -->
<g id="node51" class="node">
<title>50</title>
<path fill="none" stroke="#56d8c9" stroke-width="2" d="M992.12,-180C992.12,-180 917.62,-180 917.62,-180 911.62,-180 905.62,-174 905.62,-168 905.62,-168 905.62,-156 905.62,-156 905.62,-150 911.62,-144 917.62,-144 917.62,-144 992.12,-144 992.12,-144 998.12,-144 1004.12,-150 1004.12,-156 1004.12,-156 1004.12,-168 1004.12,-168 1004.12,-174 998.12,-180 992.12,-180"/>
<text text-anchor="middle" x="954.88" y="-158.12" font-family="sans" font-size="10.00">samtools_flagstats</text>
</g>
<!-- 11&#45;&gt;50 -->
<g id="edge87" class="edge">
<title>11&#45;&gt;50</title>
<path fill="none" stroke="grey" stroke-width="2" d="M852.42,-431.22C792.06,-402.85 691.74,-344.72 735.88,-288 775.86,-236.62 822.47,-286.19 877.88,-252 902.41,-236.86 923.29,-211.37 937.09,-191.55"/>
<polygon fill="grey" stroke="grey" stroke-width="2" points="939.86,-193.7 942.51,-183.45 934.04,-189.81 939.86,-193.7"/>
</g>
<!-- 56 -->
<g id="node57" class="node">
<title>56</title>
<path fill="none" stroke="#56d0d8" stroke-width="2" d="M828.62,-324C828.62,-324 757.12,-324 757.12,-324 751.12,-324 745.12,-318 745.12,-312 745.12,-312 745.12,-300 745.12,-300 745.12,-294 751.12,-288 757.12,-288 757.12,-288 828.62,-288 828.62,-288 834.62,-288 840.62,-294 840.62,-300 840.62,-300 840.62,-312 840.62,-312 840.62,-318 834.62,-324 828.62,-324"/>
<text text-anchor="middle" x="792.88" y="-302.12" font-family="sans" font-size="10.00">samtools_idxstats</text>
</g>
<!-- 11&#45;&gt;56 -->
<g id="edge95" class="edge">
<title>11&#45;&gt;56</title>
<path fill="none" stroke="grey" stroke-width="2" d="M881.08,-431.02C863.93,-406.9 833.3,-363.83 813.03,-335.34"/>
<polygon fill="grey" stroke="grey" stroke-width="2" points="815.97,-333.43 807.32,-327.31 810.26,-337.48 815.97,-333.43"/>
</g>
<!-- 62 -->
<g id="node63" class="node">
<title>62</title>
<path fill="none" stroke="#78d856" stroke-width="2" d="M936.62,-324C936.62,-324 871.12,-324 871.12,-324 865.12,-324 859.12,-318 859.12,-312 859.12,-312 859.12,-300 859.12,-300 859.12,-294 865.12,-288 871.12,-288 871.12,-288 936.62,-288 936.62,-288 942.62,-288 948.62,-294 948.62,-300 948.62,-300 948.62,-312 948.62,-312 948.62,-318 942.62,-324 936.62,-324"/>
<text text-anchor="middle" x="903.88" y="-302.12" font-family="sans" font-size="10.00">qualimap_bamqc</text>
</g>
<!-- 11&#45;&gt;62 -->
<g id="edge107" class="edge">
<title>11&#45;&gt;62</title>
<path fill="none" stroke="grey" stroke-width="2" d="M884.03,-431.19C875.34,-413.17 865.04,-384.53 871.88,-360 874.21,-351.61 878.27,-343.22 882.74,-335.68"/>
<polygon fill="grey" stroke="grey" stroke-width="2" points="885.52,-337.82 888,-327.52 879.64,-334.02 885.52,-337.82"/>
</g>
<!-- 70 -->
<g id="node71" class="node">
<title>70</title>
<path fill="none" stroke="#56d8a9" stroke-width="2" d="M1054.88,-324C1054.88,-324 978.88,-324 978.88,-324 972.88,-324 966.88,-318 966.88,-312 966.88,-312 966.88,-300 966.88,-300 966.88,-294 972.88,-288 978.88,-288 978.88,-288 1054.88,-288 1054.88,-288 1060.88,-288 1066.88,-294 1066.88,-300 1066.88,-300 1066.88,-312 1066.88,-312 1066.88,-318 1060.88,-324 1054.88,-324"/>
<text text-anchor="middle" x="1016.88" y="-302.12" font-family="sans" font-size="10.00">qualimap_rnaseqqc</text>
</g>
<!-- 11&#45;&gt;70 -->
<g id="edge127" class="edge">
<title>11&#45;&gt;70</title>
<path fill="none" stroke="grey" stroke-width="2" d="M945.4,-433.4C964.52,-425.16 984.73,-413.12 997.88,-396 1010.59,-379.44 1015.24,-356.27 1016.77,-337.72"/>
<polygon fill="grey" stroke="grey" stroke-width="2" points="1020.25,-338.09 1017.25,-327.93 1013.26,-337.74 1020.25,-338.09"/>
</g>
<!-- 12 -->
<g id="node13" class="node">
<title>12</title>
<path fill="none" stroke="#56a2d8" stroke-width="2" d="M933.75,-540C933.75,-540 854,-540 854,-540 848,-540 842,-534 842,-528 842,-528 842,-516 842,-516 842,-510 848,-504 854,-504 854,-504 933.75,-504 933.75,-504 939.75,-504 945.75,-510 945.75,-516 945.75,-516 945.75,-528 945.75,-528 945.75,-534 939.75,-540 933.75,-540"/>
<text text-anchor="middle" x="893.88" y="-518.12" font-family="sans" font-size="10.00">samtools_sam2bam</text>
</g>
<!-- 12&#45;&gt;11 -->
<g id="edge24" class="edge">
<title>12&#45;&gt;11</title>
<path fill="none" stroke="grey" stroke-width="2" d="M893.88,-503.34C893.88,-496.75 893.88,-489.08 893.88,-481.67"/>
<polygon fill="grey" stroke="grey" stroke-width="2" points="897.38,-481.93 893.88,-471.93 890.38,-481.93 897.38,-481.93"/>
</g>
<!-- 13&#45;&gt;12 -->
<g id="edge25" class="edge">
<title>13&#45;&gt;12</title>
<path fill="none" stroke="grey" stroke-width="2" d="M893.88,-575.34C893.88,-568.75 893.88,-561.08 893.88,-553.67"/>
<polygon fill="grey" stroke="grey" stroke-width="2" points="897.38,-553.93 893.88,-543.93 890.38,-553.93 897.38,-553.93"/>
</g>
<!-- 14 -->
<g id="node15" class="node">
<title>14</title>
<path fill="none" stroke="#d86e56" stroke-width="2" d="M781,-684C781,-684 726.75,-684 726.75,-684 720.75,-684 714.75,-678 714.75,-672 714.75,-672 714.75,-660 714.75,-660 714.75,-654 720.75,-648 726.75,-648 726.75,-648 781,-648 781,-648 787,-648 793,-654 793,-660 793,-660 793,-672 793,-672 793,-678 787,-684 781,-684"/>
<text text-anchor="middle" x="753.88" y="-667.75" font-family="sans" font-size="10.00">fastp_trim</text>
<text text-anchor="middle" x="753.88" y="-656.5" font-family="sans" font-size="10.00">sample: KO_3</text>
</g>
<!-- 14&#45;&gt;13 -->
<g id="edge26" class="edge">
<title>14&#45;&gt;13</title>
<path fill="none" stroke="grey" stroke-width="2" d="M789.57,-647.15C807.28,-638.3 828.88,-627.5 847.82,-618.03"/>
<polygon fill="grey" stroke="grey" stroke-width="2" points="849.13,-621.29 856.51,-613.68 846,-615.02 849.13,-621.29"/>
</g>
<!-- 44 -->
<g id="node45" class="node">
<title>44</title>
<path fill="none" stroke="#d88556" stroke-width="2" d="M408.25,-252C408.25,-252 343.5,-252 343.5,-252 337.5,-252 331.5,-246 331.5,-240 331.5,-240 331.5,-228 331.5,-228 331.5,-222 337.5,-216 343.5,-216 343.5,-216 408.25,-216 408.25,-216 414.25,-216 420.25,-222 420.25,-228 420.25,-228 420.25,-240 420.25,-240 420.25,-246 414.25,-252 408.25,-252"/>
<text text-anchor="middle" x="375.88" y="-230.12" font-family="sans" font-size="10.00">fastqc_post_trim</text>
</g>
<!-- 14&#45;&gt;44 -->
<g id="edge81" class="edge">
<title>14&#45;&gt;44</title>
<path fill="none" stroke="grey" stroke-width="2" d="M714.07,-661.15C603.53,-649.37 300.88,-609.23 300.88,-523 300.88,-523 300.88,-523 300.88,-377 300.88,-333.19 329.13,-289.66 350.96,-262.57"/>
<polygon fill="grey" stroke="grey" stroke-width="2" points="353.55,-264.93 357.29,-255.01 348.18,-260.44 353.55,-264.93"/>
</g>
<!-- 15 -->
<g id="node16" class="node">
<title>15</title>
<path fill="none" stroke="#568ad8" stroke-width="2" d="M554.62,-468C554.62,-468 477.12,-468 477.12,-468 471.12,-468 465.12,-462 465.12,-456 465.12,-456 465.12,-444 465.12,-444 465.12,-438 471.12,-432 477.12,-432 477.12,-432 554.62,-432 554.62,-432 560.62,-432 566.62,-438 566.62,-444 566.62,-444 566.62,-456 566.62,-456 566.62,-462 560.62,-468 554.62,-468"/>
<text text-anchor="middle" x="515.88" y="-446.12" font-family="sans" font-size="10.00">samtools_sort_bam</text>
</g>
<!-- 15&#45;&gt;1 -->
<g id="edge7" class="edge">
<title>15&#45;&gt;1</title>
<path fill="none" stroke="grey" stroke-width="2" d="M567.5,-446.16C752.02,-435.96 1368.98,-401.54 1388.88,-396 1395.58,-394.13 1466.06,-356.73 1514.13,-331.02"/>
<polygon fill="grey" stroke="grey" stroke-width="2" points="1515.69,-334.15 1522.85,-326.35 1512.38,-327.98 1515.69,-334.15"/>
</g>
<!-- 30 -->
<g id="node31" class="node">
<title>30</title>
<path fill="none" stroke="#56b9d8" stroke-width="2" d="M599,-396C599,-396 514.75,-396 514.75,-396 508.75,-396 502.75,-390 502.75,-384 502.75,-384 502.75,-372 502.75,-372 502.75,-366 508.75,-360 514.75,-360 514.75,-360 599,-360 599,-360 605,-360 611,-366 611,-372 611,-372 611,-384 611,-384 611,-390 605,-396 599,-396"/>
<text text-anchor="middle" x="556.88" y="-374.12" font-family="sans" font-size="10.00">samtools_index_bam</text>
</g>
<!-- 15&#45;&gt;30 -->
<g id="edge43" class="edge">
<title>15&#45;&gt;30</title>
<path fill="none" stroke="grey" stroke-width="2" d="M526.22,-431.34C530.37,-424.26 535.25,-415.92 539.89,-408"/>
<polygon fill="grey" stroke="grey" stroke-width="2" points="542.83,-409.91 544.86,-399.51 536.79,-406.37 542.83,-409.91"/>
</g>
<!-- 51 -->
<g id="node52" class="node">
<title>51</title>
<path fill="none" stroke="#56d8c9" stroke-width="2" d="M708.12,-252C708.12,-252 633.62,-252 633.62,-252 627.62,-252 621.62,-246 621.62,-240 621.62,-240 621.62,-228 621.62,-228 621.62,-222 627.62,-216 633.62,-216 633.62,-216 708.12,-216 708.12,-216 714.12,-216 720.12,-222 720.12,-228 720.12,-228 720.12,-240 720.12,-240 720.12,-246 714.12,-252 708.12,-252"/>
<text text-anchor="middle" x="670.88" y="-230.12" font-family="sans" font-size="10.00">samtools_flagstats</text>
</g>
<!-- 15&#45;&gt;51 -->
<g id="edge88" class="edge">
<title>15&#45;&gt;51</title>
<path fill="none" stroke="grey" stroke-width="2" d="M474.37,-431.02C413.34,-402.13 311.37,-343.04 357.88,-288 389.24,-250.87 525.96,-239.75 607.97,-236.42"/>
<polygon fill="grey" stroke="grey" stroke-width="2" points="608,-239.92 617.86,-236.05 607.74,-232.92 608,-239.92"/>
</g>
<!-- 57 -->
<g id="node58" class="node">
<title>57</title>
<path fill="none" stroke="#56d0d8" stroke-width="2" d="M558.62,-324C558.62,-324 487.12,-324 487.12,-324 481.12,-324 475.12,-318 475.12,-312 475.12,-312 475.12,-300 475.12,-300 475.12,-294 481.12,-288 487.12,-288 487.12,-288 558.62,-288 558.62,-288 564.62,-288 570.62,-294 570.62,-300 570.62,-300 570.62,-312 570.62,-312 570.62,-318 564.62,-324 558.62,-324"/>
<text text-anchor="middle" x="522.88" y="-302.12" font-family="sans" font-size="10.00">samtools_idxstats</text>
</g>
<!-- 15&#45;&gt;57 -->
<g id="edge97" class="edge">
<title>15&#45;&gt;57</title>
<path fill="none" stroke="grey" stroke-width="2" d="M506.52,-431.4C501.7,-421.34 496.33,-408.31 493.88,-396 490.75,-380.31 489.91,-375.5 493.88,-360 495.99,-351.73 499.69,-343.36 503.75,-335.8"/>
<polygon fill="grey" stroke="grey" stroke-width="2" points="506.7,-337.7 508.73,-327.3 500.66,-334.16 506.7,-337.7"/>
</g>
<!-- 63 -->
<g id="node64" class="node">
<title>63</title>
<path fill="none" stroke="#78d856" stroke-width="2" d="M444.62,-324C444.62,-324 379.12,-324 379.12,-324 373.12,-324 367.12,-318 367.12,-312 367.12,-312 367.12,-300 367.12,-300 367.12,-294 373.12,-288 379.12,-288 379.12,-288 444.62,-288 444.62,-288 450.62,-288 456.62,-294 456.62,-300 456.62,-300 456.62,-312 456.62,-312 456.62,-318 450.62,-324 444.62,-324"/>
<text text-anchor="middle" x="411.88" y="-302.12" font-family="sans" font-size="10.00">qualimap_bamqc</text>
</g>
<!-- 15&#45;&gt;63 -->
<g id="edge109" class="edge">
<title>15&#45;&gt;63</title>
<path fill="none" stroke="grey" stroke-width="2" d="M502.7,-431.02C485.04,-406.9 453.5,-363.83 432.63,-335.34"/>
<polygon fill="grey" stroke="grey" stroke-width="2" points="435.46,-333.28 426.73,-327.28 429.81,-337.42 435.46,-333.28"/>
</g>
<!-- 71 -->
<g id="node72" class="node">
<title>71</title>
<path fill="none" stroke="#56d8a9" stroke-width="2" d="M676.88,-324C676.88,-324 600.88,-324 600.88,-324 594.88,-324 588.88,-318 588.88,-312 588.88,-312 588.88,-300 588.88,-300 588.88,-294 594.88,-288 600.88,-288 600.88,-288 676.88,-288 676.88,-288 682.88,-288 688.88,-294 688.88,-300 688.88,-300 688.88,-312 688.88,-312 688.88,-318 682.88,-324 676.88,-324"/>
<text text-anchor="middle" x="638.88" y="-302.12" font-family="sans" font-size="10.00">qualimap_rnaseqqc</text>
</g>
<!-- 15&#45;&gt;71 -->
<g id="edge129" class="edge">
<title>15&#45;&gt;71</title>
<path fill="none" stroke="grey" stroke-width="2" d="M567.4,-433.4C586.52,-425.16 606.73,-413.12 619.88,-396 632.59,-379.44 637.24,-356.27 638.77,-337.72"/>
<polygon fill="grey" stroke="grey" stroke-width="2" points="642.25,-338.09 639.25,-327.93 635.26,-337.74 642.25,-338.09"/>
</g>
<!-- 16 -->
<g id="node17" class="node">
<title>16</title>
<path fill="none" stroke="#56a2d8" stroke-width="2" d="M555.75,-540C555.75,-540 476,-540 476,-540 470,-540 464,-534 464,-528 464,-528 464,-516 464,-516 464,-510 470,-504 476,-504 476,-504 555.75,-504 555.75,-504 561.75,-504 567.75,-510 567.75,-516 567.75,-516 567.75,-528 567.75,-528 567.75,-534 561.75,-540 555.75,-540"/>
<text text-anchor="middle" x="515.88" y="-518.12" font-family="sans" font-size="10.00">samtools_sam2bam</text>
</g>
<!-- 16&#45;&gt;15 -->
<g id="edge28" class="edge">
<title>16&#45;&gt;15</title>
<path fill="none" stroke="grey" stroke-width="2" d="M515.88,-503.34C515.88,-496.75 515.88,-489.08 515.88,-481.67"/>
<polygon fill="grey" stroke="grey" stroke-width="2" points="519.38,-481.93 515.88,-471.93 512.38,-481.93 519.38,-481.93"/>
</g>
<!-- 17&#45;&gt;16 -->
<g id="edge29" class="edge">
<title>17&#45;&gt;16</title>
<path fill="none" stroke="grey" stroke-width="2" d="M515.88,-575.34C515.88,-568.75 515.88,-561.08 515.88,-553.67"/>
<polygon fill="grey" stroke="grey" stroke-width="2" points="519.38,-553.93 515.88,-543.93 512.38,-553.93 519.38,-553.93"/>
</g>
<!-- 18 -->
<g id="node19" class="node">
<title>18</title>
<path fill="none" stroke="#d86e56" stroke-width="2" d="M404.75,-684C404.75,-684 349,-684 349,-684 343,-684 337,-678 337,-672 337,-672 337,-660 337,-660 337,-654 343,-648 349,-648 349,-648 404.75,-648 404.75,-648 410.75,-648 416.75,-654 416.75,-660 416.75,-660 416.75,-672 416.75,-672 416.75,-678 410.75,-684 404.75,-684"/>
<text text-anchor="middle" x="376.88" y="-667.75" font-family="sans" font-size="10.00">fastp_trim</text>
<text text-anchor="middle" x="376.88" y="-656.5" font-family="sans" font-size="10.00">sample: WT_1</text>
</g>
<!-- 18&#45;&gt;17 -->
<g id="edge30" class="edge">
<title>18&#45;&gt;17</title>
<path fill="none" stroke="grey" stroke-width="2" d="M412.31,-647.15C429.81,-638.34 451.14,-627.6 469.89,-618.16"/>
<polygon fill="grey" stroke="grey" stroke-width="2" points="471.4,-621.31 478.76,-613.69 468.26,-615.06 471.4,-621.31"/>
</g>
<!-- 45 -->
<g id="node46" class="node">
<title>45</title>
<path fill="none" stroke="#d88556" stroke-width="2" d="M179.25,-540C179.25,-540 114.5,-540 114.5,-540 108.5,-540 102.5,-534 102.5,-528 102.5,-528 102.5,-516 102.5,-516 102.5,-510 108.5,-504 114.5,-504 114.5,-504 179.25,-504 179.25,-504 185.25,-504 191.25,-510 191.25,-516 191.25,-516 191.25,-528 191.25,-528 191.25,-534 185.25,-540 179.25,-540"/>
<text text-anchor="middle" x="146.88" y="-518.12" font-family="sans" font-size="10.00">fastqc_post_trim</text>
</g>
<!-- 18&#45;&gt;45 -->
<g id="edge82" class="edge">
<title>18&#45;&gt;45</title>
<path fill="none" stroke="grey" stroke-width="2" d="M345.9,-647.11C328.47,-636.95 306.36,-623.93 286.88,-612 252.22,-590.79 213.25,-565.93 185.24,-547.89"/>
<polygon fill="grey" stroke="grey" stroke-width="2" points="187.17,-544.97 176.87,-542.48 183.37,-550.85 187.17,-544.97"/>
</g>
<!-- 19 -->
<g id="node20" class="node">
<title>19</title>
<path fill="none" stroke="#568ad8" stroke-width="2" d="M1323.62,-468C1323.62,-468 1246.12,-468 1246.12,-468 1240.12,-468 1234.12,-462 1234.12,-456 1234.12,-456 1234.12,-444 1234.12,-444 1234.12,-438 1240.12,-432 1246.12,-432 1246.12,-432 1323.62,-432 1323.62,-432 1329.62,-432 1335.62,-438 1335.62,-444 1335.62,-444 1335.62,-456 1335.62,-456 1335.62,-462 1329.62,-468 1323.62,-468"/>
<text text-anchor="middle" x="1284.88" y="-446.12" font-family="sans" font-size="10.00">samtools_sort_bam</text>
</g>
<!-- 19&#45;&gt;1 -->
<g id="edge8" class="edge">
<title>19&#45;&gt;1</title>
<path fill="none" stroke="grey" stroke-width="2" d="M1336.41,-446.4C1382.38,-441.85 1449.67,-429.47 1497.88,-396 1519.28,-381.14 1535.44,-356.14 1545.73,-336.42"/>
<polygon fill="grey" stroke="grey" stroke-width="2" points="1548.76,-338.19 1550.03,-327.67 1542.48,-335.1 1548.76,-338.19"/>
</g>
<!-- 31 -->
<g id="node32" class="node">
<title>31</title>
<path fill="none" stroke="#56b9d8" stroke-width="2" d="M1368,-396C1368,-396 1283.75,-396 1283.75,-396 1277.75,-396 1271.75,-390 1271.75,-384 1271.75,-384 1271.75,-372 1271.75,-372 1271.75,-366 1277.75,-360 1283.75,-360 1283.75,-360 1368,-360 1368,-360 1374,-360 1380,-366 1380,-372 1380,-372 1380,-384 1380,-384 1380,-390 1374,-396 1368,-396"/>
<text text-anchor="middle" x="1325.88" y="-374.12" font-family="sans" font-size="10.00">samtools_index_bam</text>
</g>
<!-- 19&#45;&gt;31 -->
<g id="edge44" class="edge">
<title>19&#45;&gt;31</title>
<path fill="none" stroke="grey" stroke-width="2" d="M1295.22,-431.34C1299.37,-424.26 1304.25,-415.92 1308.89,-408"/>
<polygon fill="grey" stroke="grey" stroke-width="2" points="1311.83,-409.91 1313.86,-399.51 1305.79,-406.37 1311.83,-409.91"/>
</g>
<!-- 52 -->
<g id="node53" class="node">
<title>52</title>
<path fill="none" stroke="#56d8c9" stroke-width="2" d="M1222.12,-180C1222.12,-180 1147.62,-180 1147.62,-180 1141.62,-180 1135.62,-174 1135.62,-168 1135.62,-168 1135.62,-156 1135.62,-156 1135.62,-150 1141.62,-144 1147.62,-144 1147.62,-144 1222.12,-144 1222.12,-144 1228.12,-144 1234.12,-150 1234.12,-156 1234.12,-156 1234.12,-168 1234.12,-168 1234.12,-174 1228.12,-180 1222.12,-180"/>
<text text-anchor="middle" x="1184.88" y="-158.12" font-family="sans" font-size="10.00">samtools_flagstats</text>
</g>
<!-- 19&#45;&gt;52 -->
<g id="edge89" class="edge">
<title>19&#45;&gt;52</title>
<path fill="none" stroke="grey" stroke-width="2" d="M1254.27,-431.04C1221.88,-410.04 1172.63,-371.99 1151.88,-324 1145.52,-309.31 1148.92,-303.73 1151.88,-288 1155.04,-271.13 1160.96,-268.45 1165.88,-252 1171.59,-232.89 1176.29,-210.98 1179.58,-193.69"/>
<polygon fill="grey" stroke="grey" stroke-width="2" points="1183.01,-194.39 1181.37,-183.92 1176.13,-193.13 1183.01,-194.39"/>
</g>
<!-- 58 -->
<g id="node59" class="node">
<title>58</title>
<path fill="none" stroke="#56d0d8" stroke-width="2" d="M1352.62,-324C1352.62,-324 1281.12,-324 1281.12,-324 1275.12,-324 1269.12,-318 1269.12,-312 1269.12,-312 1269.12,-300 1269.12,-300 1269.12,-294 1275.12,-288 1281.12,-288 1281.12,-288 1352.62,-288 1352.62,-288 1358.62,-288 1364.62,-294 1364.62,-300 1364.62,-300 1364.62,-312 1364.62,-312 1364.62,-318 1358.62,-324 1352.62,-324"/>
<text text-anchor="middle" x="1316.88" y="-302.12" font-family="sans" font-size="10.00">samtools_idxstats</text>
</g>
<!-- 19&#45;&gt;58 -->
<g id="edge99" class="edge">
<title>19&#45;&gt;58</title>
<path fill="none" stroke="grey" stroke-width="2" d="M1273.94,-431.09C1264.22,-412.74 1252.96,-383.63 1262.88,-360 1267.03,-350.1 1274.04,-341.11 1281.66,-333.47"/>
<polygon fill="grey" stroke="grey" stroke-width="2" points="1283.84,-336.22 1288.86,-326.89 1279.12,-331.05 1283.84,-336.22"/>
</g>
<!-- 64 -->
<g id="node65" class="node">
<title>64</title>
<path fill="none" stroke="#78d856" stroke-width="2" d="M1238.62,-324C1238.62,-324 1173.12,-324 1173.12,-324 1167.12,-324 1161.12,-318 1161.12,-312 1161.12,-312 1161.12,-300 1161.12,-300 1161.12,-294 1167.12,-288 1173.12,-288 1173.12,-288 1238.62,-288 1238.62,-288 1244.62,-288 1250.62,-294 1250.62,-300 1250.62,-300 1250.62,-312 1250.62,-312 1250.62,-318 1244.62,-324 1238.62,-324"/>
<text text-anchor="middle" x="1205.88" y="-302.12" font-family="sans" font-size="10.00">qualimap_bamqc</text>
</g>
<!-- 19&#45;&gt;64 -->
<g id="edge111" class="edge">
<title>19&#45;&gt;64</title>
<path fill="none" stroke="grey" stroke-width="2" d="M1274.82,-431.36C1268.97,-421.07 1261.47,-407.82 1254.88,-396 1243.75,-376.08 1231.36,-353.56 1221.82,-336.16"/>
<polygon fill="grey" stroke="grey" stroke-width="2" points="1224.9,-334.51 1217.03,-327.42 1218.76,-337.87 1224.9,-334.51"/>
</g>
<!-- 72 -->
<g id="node73" class="node">
<title>72</title>
<path fill="none" stroke="#56d8a9" stroke-width="2" d="M1470.88,-324C1470.88,-324 1394.88,-324 1394.88,-324 1388.88,-324 1382.88,-318 1382.88,-312 1382.88,-312 1382.88,-300 1382.88,-300 1382.88,-294 1388.88,-288 1394.88,-288 1394.88,-288 1470.88,-288 1470.88,-288 1476.88,-288 1482.88,-294 1482.88,-300 1482.88,-300 1482.88,-312 1482.88,-312 1482.88,-318 1476.88,-324 1470.88,-324"/>
<text text-anchor="middle" x="1432.88" y="-302.12" font-family="sans" font-size="10.00">qualimap_rnaseqqc</text>
</g>
<!-- 19&#45;&gt;72 -->
<g id="edge131" class="edge">
<title>19&#45;&gt;72</title>
<path fill="none" stroke="grey" stroke-width="2" d="M1335.4,-431.11C1353.93,-422.66 1373.99,-411.07 1388.88,-396 1405.21,-379.46 1416.55,-355.65 1423.62,-336.81"/>
<polygon fill="grey" stroke="grey" stroke-width="2" points="1426.85,-338.17 1426.84,-327.58 1420.24,-335.86 1426.85,-338.17"/>
</g>
<!-- 20 -->
<g id="node21" class="node">
<title>20</title>
<path fill="none" stroke="#56a2d8" stroke-width="2" d="M1324.75,-540C1324.75,-540 1245,-540 1245,-540 1239,-540 1233,-534 1233,-528 1233,-528 1233,-516 1233,-516 1233,-510 1239,-504 1245,-504 1245,-504 1324.75,-504 1324.75,-504 1330.75,-504 1336.75,-510 1336.75,-516 1336.75,-516 1336.75,-528 1336.75,-528 1336.75,-534 1330.75,-540 1324.75,-540"/>
<text text-anchor="middle" x="1284.88" y="-518.12" font-family="sans" font-size="10.00">samtools_sam2bam</text>
</g>
<!-- 20&#45;&gt;19 -->
<g id="edge32" class="edge">
<title>20&#45;&gt;19</title>
<path fill="none" stroke="grey" stroke-width="2" d="M1284.88,-503.34C1284.88,-496.75 1284.88,-489.08 1284.88,-481.67"/>
<polygon fill="grey" stroke="grey" stroke-width="2" points="1288.38,-481.93 1284.88,-471.93 1281.38,-481.93 1288.38,-481.93"/>
</g>
<!-- 21&#45;&gt;20 -->
<g id="edge33" class="edge">
<title>21&#45;&gt;20</title>
<path fill="none" stroke="grey" stroke-width="2" d="M1284.88,-575.34C1284.88,-568.75 1284.88,-561.08 1284.88,-553.67"/>
<polygon fill="grey" stroke="grey" stroke-width="2" points="1288.38,-553.93 1284.88,-543.93 1281.38,-553.93 1288.38,-553.93"/>
</g>
<!-- 22 -->
<g id="node23" class="node">
<title>22</title>
<path fill="none" stroke="#d86e56" stroke-width="2" d="M1247.75,-684C1247.75,-684 1192,-684 1192,-684 1186,-684 1180,-678 1180,-672 1180,-672 1180,-660 1180,-660 1180,-654 1186,-648 1192,-648 1192,-648 1247.75,-648 1247.75,-648 1253.75,-648 1259.75,-654 1259.75,-660 1259.75,-660 1259.75,-672 1259.75,-672 1259.75,-678 1253.75,-684 1247.75,-684"/>
<text text-anchor="middle" x="1219.88" y="-667.75" font-family="sans" font-size="10.00">fastp_trim</text>
<text text-anchor="middle" x="1219.88" y="-656.5" font-family="sans" font-size="10.00">sample: WT_2</text>
</g>
<!-- 22&#45;&gt;21 -->
<g id="edge34" class="edge">
<title>22&#45;&gt;21</title>
<path fill="none" stroke="grey" stroke-width="2" d="M1236.28,-647.34C1243.31,-639.77 1251.68,-630.75 1259.48,-622.35"/>
<polygon fill="grey" stroke="grey" stroke-width="2" points="1261.95,-624.83 1266.19,-615.12 1256.82,-620.07 1261.95,-624.83"/>
</g>
<!-- 46 -->
<g id="node47" class="node">
<title>46</title>
<path fill="none" stroke="#d88556" stroke-width="2" d="M1145.25,-252C1145.25,-252 1080.5,-252 1080.5,-252 1074.5,-252 1068.5,-246 1068.5,-240 1068.5,-240 1068.5,-228 1068.5,-228 1068.5,-222 1074.5,-216 1080.5,-216 1080.5,-216 1145.25,-216 1145.25,-216 1151.25,-216 1157.25,-222 1157.25,-228 1157.25,-228 1157.25,-240 1157.25,-240 1157.25,-246 1151.25,-252 1145.25,-252"/>
<text text-anchor="middle" x="1112.88" y="-230.12" font-family="sans" font-size="10.00">fastqc_post_trim</text>
</g>
<!-- 22&#45;&gt;46 -->
<g id="edge83" class="edge">
<title>22&#45;&gt;46</title>
<path fill="none" stroke="grey" stroke-width="2" d="M1187.68,-647.01C1150.65,-623.65 1094.88,-579.16 1094.88,-523 1094.88,-523 1094.88,-523 1094.88,-377 1094.88,-338.35 1101.52,-294.24 1106.74,-265.58"/>
<polygon fill="grey" stroke="grey" stroke-width="2" points="1110.16,-266.29 1108.58,-255.82 1103.28,-264.99 1110.16,-266.29"/>
</g>
<!-- 23 -->
<g id="node24" class="node">
<title>23</title>
<path fill="none" stroke="#568ad8" stroke-width="2" d="M2224.62,-468C2224.62,-468 2147.12,-468 2147.12,-468 2141.12,-468 2135.12,-462 2135.12,-456 2135.12,-456 2135.12,-444 2135.12,-444 2135.12,-438 2141.12,-432 2147.12,-432 2147.12,-432 2224.62,-432 2224.62,-432 2230.62,-432 2236.62,-438 2236.62,-444 2236.62,-444 2236.62,-456 2236.62,-456 2236.62,-462 2230.62,-468 2224.62,-468"/>
<text text-anchor="middle" x="2185.88" y="-446.12" font-family="sans" font-size="10.00">samtools_sort_bam</text>
</g>
<!-- 23&#45;&gt;1 -->
<g id="edge9" class="edge">
<title>23&#45;&gt;1</title>
<path fill="none" stroke="grey" stroke-width="2" d="M2134.44,-445.61C2010.56,-437.2 1702.73,-414.69 1659.88,-396 1628.4,-382.27 1599.78,-354.97 1581.11,-334.21"/>
<polygon fill="grey" stroke="grey" stroke-width="2" points="1583.96,-332.16 1574.76,-326.92 1578.68,-336.76 1583.96,-332.16"/>
</g>
<!-- 32 -->
<g id="node33" class="node">
<title>32</title>
<path fill="none" stroke="#56b9d8" stroke-width="2" d="M2187,-396C2187,-396 2102.75,-396 2102.75,-396 2096.75,-396 2090.75,-390 2090.75,-384 2090.75,-384 2090.75,-372 2090.75,-372 2090.75,-366 2096.75,-360 2102.75,-360 2102.75,-360 2187,-360 2187,-360 2193,-360 2199,-366 2199,-372 2199,-372 2199,-384 2199,-384 2199,-390 2193,-396 2187,-396"/>
<text text-anchor="middle" x="2144.88" y="-374.12" font-family="sans" font-size="10.00">samtools_index_bam</text>
</g>
<!-- 23&#45;&gt;32 -->
<g id="edge45" class="edge">
<title>23&#45;&gt;32</title>
<path fill="none" stroke="grey" stroke-width="2" d="M2175.53,-431.34C2171.38,-424.26 2166.5,-415.92 2161.86,-408"/>
<polygon fill="grey" stroke="grey" stroke-width="2" points="2164.96,-406.37 2156.89,-399.51 2158.92,-409.91 2164.96,-406.37"/>
</g>
<!-- 53 -->
<g id="node54" class="node">
<title>53</title>
<path fill="none" stroke="#56d8c9" stroke-width="2" d="M2176.12,-252C2176.12,-252 2101.62,-252 2101.62,-252 2095.62,-252 2089.62,-246 2089.62,-240 2089.62,-240 2089.62,-228 2089.62,-228 2089.62,-222 2095.62,-216 2101.62,-216 2101.62,-216 2176.12,-216 2176.12,-216 2182.12,-216 2188.12,-222 2188.12,-228 2188.12,-228 2188.12,-240 2188.12,-240 2188.12,-246 2182.12,-252 2176.12,-252"/>
<text text-anchor="middle" x="2138.88" y="-230.12" font-family="sans" font-size="10.00">samtools_flagstats</text>
</g>
<!-- 23&#45;&gt;53 -->
<g id="edge90" class="edge">
<title>23&#45;&gt;53</title>
<path fill="none" stroke="grey" stroke-width="2" d="M2227.79,-431.01C2288.16,-402.59 2387.75,-344.67 2343.88,-288 2334.96,-276.48 2258.49,-258.91 2201.54,-247.19"/>
<polygon fill="grey" stroke="grey" stroke-width="2" points="2202.45,-243.81 2191.96,-245.24 2201.06,-250.67 2202.45,-243.81"/>
</g>
<!-- 59 -->
<g id="node60" class="node">
<title>59</title>
<path fill="none" stroke="#56d0d8" stroke-width="2" d="M2322.62,-324C2322.62,-324 2251.12,-324 2251.12,-324 2245.12,-324 2239.12,-318 2239.12,-312 2239.12,-312 2239.12,-300 2239.12,-300 2239.12,-294 2245.12,-288 2251.12,-288 2251.12,-288 2322.62,-288 2322.62,-288 2328.62,-288 2334.62,-294 2334.62,-300 2334.62,-300 2334.62,-312 2334.62,-312 2334.62,-318 2328.62,-324 2322.62,-324"/>
<text text-anchor="middle" x="2286.88" y="-302.12" font-family="sans" font-size="10.00">samtools_idxstats</text>
</g>
<!-- 23&#45;&gt;59 -->
<g id="edge101" class="edge">
<title>23&#45;&gt;59</title>
<path fill="none" stroke="grey" stroke-width="2" d="M2198.67,-431.02C2215.82,-406.9 2246.45,-363.83 2266.72,-335.34"/>
<polygon fill="grey" stroke="grey" stroke-width="2" points="2269.49,-337.48 2272.43,-327.31 2263.78,-333.43 2269.49,-337.48"/>
</g>
<!-- 65 -->
<g id="node66" class="node">
<title>65</title>
<path fill="none" stroke="#78d856" stroke-width="2" d="M2208.62,-324C2208.62,-324 2143.12,-324 2143.12,-324 2137.12,-324 2131.12,-318 2131.12,-312 2131.12,-312 2131.12,-300 2131.12,-300 2131.12,-294 2137.12,-288 2143.12,-288 2143.12,-288 2208.62,-288 2208.62,-288 2214.62,-288 2220.62,-294 2220.62,-300 2220.62,-300 2220.62,-312 2220.62,-312 2220.62,-318 2214.62,-324 2208.62,-324"/>
<text text-anchor="middle" x="2175.88" y="-302.12" font-family="sans" font-size="10.00">qualimap_bamqc</text>
</g>
<!-- 23&#45;&gt;65 -->
<g id="edge113" class="edge">
<title>23&#45;&gt;65</title>
<path fill="none" stroke="grey" stroke-width="2" d="M2195.72,-431.19C2204.41,-413.17 2214.71,-384.53 2207.88,-360 2205.54,-351.61 2201.48,-343.22 2197.01,-335.68"/>
<polygon fill="grey" stroke="grey" stroke-width="2" points="2200.11,-334.02 2191.75,-327.52 2194.23,-337.82 2200.11,-334.02"/>
</g>
<!-- 73 -->
<g id="node74" class="node">
<title>73</title>
<path fill="none" stroke="#56d8a9" stroke-width="2" d="M2100.88,-324C2100.88,-324 2024.88,-324 2024.88,-324 2018.88,-324 2012.88,-318 2012.88,-312 2012.88,-312 2012.88,-300 2012.88,-300 2012.88,-294 2018.88,-288 2024.88,-288 2024.88,-288 2100.88,-288 2100.88,-288 2106.88,-288 2112.88,-294 2112.88,-300 2112.88,-300 2112.88,-312 2112.88,-312 2112.88,-318 2106.88,-324 2100.88,-324"/>
<text text-anchor="middle" x="2062.88" y="-302.12" font-family="sans" font-size="10.00">qualimap_rnaseqqc</text>
</g>
<!-- 23&#45;&gt;73 -->
<g id="edge133" class="edge">
<title>23&#45;&gt;73</title>
<path fill="none" stroke="grey" stroke-width="2" d="M2134.35,-433.4C2115.23,-425.16 2095.02,-413.12 2081.88,-396 2069.16,-379.44 2064.51,-356.27 2062.98,-337.72"/>
<polygon fill="grey" stroke="grey" stroke-width="2" points="2066.49,-337.74 2062.5,-327.93 2059.5,-338.09 2066.49,-337.74"/>
</g>
<!-- 24 -->
<g id="node25" class="node">
<title>24</title>
<path fill="none" stroke="#56a2d8" stroke-width="2" d="M2225.75,-540C2225.75,-540 2146,-540 2146,-540 2140,-540 2134,-534 2134,-528 2134,-528 2134,-516 2134,-516 2134,-510 2140,-504 2146,-504 2146,-504 2225.75,-504 2225.75,-504 2231.75,-504 2237.75,-510 2237.75,-516 2237.75,-516 2237.75,-528 2237.75,-528 2237.75,-534 2231.75,-540 2225.75,-540"/>
<text text-anchor="middle" x="2185.88" y="-518.12" font-family="sans" font-size="10.00">samtools_sam2bam</text>
</g>
<!-- 24&#45;&gt;23 -->
<g id="edge36" class="edge">
<title>24&#45;&gt;23</title>
<path fill="none" stroke="grey" stroke-width="2" d="M2185.88,-503.34C2185.88,-496.75 2185.88,-489.08 2185.88,-481.67"/>
<polygon fill="grey" stroke="grey" stroke-width="2" points="2189.38,-481.93 2185.88,-471.93 2182.38,-481.93 2189.38,-481.93"/>
</g>
<!-- 25&#45;&gt;24 -->
<g id="edge37" class="edge">
<title>25&#45;&gt;24</title>
<path fill="none" stroke="grey" stroke-width="2" d="M2185.88,-575.34C2185.88,-568.75 2185.88,-561.08 2185.88,-553.67"/>
<polygon fill="grey" stroke="grey" stroke-width="2" points="2189.38,-553.93 2185.88,-543.93 2182.38,-553.93 2189.38,-553.93"/>
</g>
<!-- 26 -->
<g id="node27" class="node">
<title>26</title>
<path fill="none" stroke="#d86e56" stroke-width="2" d="M2521.75,-684C2521.75,-684 2466,-684 2466,-684 2460,-684 2454,-678 2454,-672 2454,-672 2454,-660 2454,-660 2454,-654 2460,-648 2466,-648 2466,-648 2521.75,-648 2521.75,-648 2527.75,-648 2533.75,-654 2533.75,-660 2533.75,-660 2533.75,-672 2533.75,-672 2533.75,-678 2527.75,-684 2521.75,-684"/>
<text text-anchor="middle" x="2493.88" y="-667.75" font-family="sans" font-size="10.00">fastp_trim</text>
<text text-anchor="middle" x="2493.88" y="-656.5" font-family="sans" font-size="10.00">sample: WT_3</text>
</g>
<!-- 26&#45;&gt;25 -->
<g id="edge38" class="edge">
<title>26&#45;&gt;25</title>
<path fill="none" stroke="grey" stroke-width="2" d="M2453.29,-655.78C2396.38,-642.84 2293.08,-619.36 2232.89,-605.68"/>
<polygon fill="grey" stroke="grey" stroke-width="2" points="2233.85,-602.31 2223.32,-603.51 2232.3,-609.14 2233.85,-602.31"/>
</g>
<!-- 47 -->
<g id="node48" class="node">
<title>47</title>
<path fill="none" stroke="#d88556" stroke-width="2" d="M2769.25,-468C2769.25,-468 2704.5,-468 2704.5,-468 2698.5,-468 2692.5,-462 2692.5,-456 2692.5,-456 2692.5,-444 2692.5,-444 2692.5,-438 2698.5,-432 2704.5,-432 2704.5,-432 2769.25,-432 2769.25,-432 2775.25,-432 2781.25,-438 2781.25,-444 2781.25,-444 2781.25,-456 2781.25,-456 2781.25,-462 2775.25,-468 2769.25,-468"/>
<text text-anchor="middle" x="2736.88" y="-446.12" font-family="sans" font-size="10.00">fastqc_post_trim</text>
</g>
<!-- 26&#45;&gt;47 -->
<g id="edge84" class="edge">
<title>26&#45;&gt;47</title>
<path fill="none" stroke="grey" stroke-width="2" d="M2534.59,-655.34C2562.45,-647.22 2599.07,-633.44 2625.88,-612 2671.3,-575.68 2705.63,-515.88 2723.38,-480.28"/>
<polygon fill="grey" stroke="grey" stroke-width="2" points="2726.42,-482.03 2727.64,-471.5 2720.12,-478.97 2726.42,-482.03"/>
</g>
<!-- 27&#45;&gt;1 -->
<g id="edge10" class="edge">
<title>27&#45;&gt;1</title>
<path fill="none" stroke="grey" stroke-width="2" d="M1705.4,-359.06C1679.79,-349.97 1648.46,-338.83 1621.34,-329.2"/>
<polygon fill="grey" stroke="grey" stroke-width="2" points="1622.67,-325.95 1612.07,-325.9 1620.32,-332.55 1622.67,-325.95"/>
</g>
<!-- 27&#45;&gt;54 -->
<g id="edge92" class="edge">
<title>27&#45;&gt;54</title>
<path fill="none" stroke="grey" stroke-width="2" d="M1776.82,-359.34C1786.18,-351.44 1797.42,-341.96 1807.74,-333.26"/>
<polygon fill="grey" stroke="grey" stroke-width="2" points="1809.95,-335.98 1815.33,-326.85 1805.43,-330.62 1809.95,-335.98"/>
</g>
<!-- 27&#45;&gt;60 -->
<g id="edge104" class="edge">
<title>27&#45;&gt;60</title>
<path fill="none" stroke="grey" stroke-width="2" d="M1805.58,-359.06C1831.97,-349.54 1864.53,-337.79 1892.04,-327.87"/>
<polygon fill="grey" stroke="grey" stroke-width="2" points="1893.22,-331.16 1901.44,-324.48 1890.84,-324.58 1893.22,-331.16"/>
</g>
<!-- 27&#45;&gt;68 -->
<g id="edge124" class="edge">
<title>27&#45;&gt;68</title>
<path fill="none" stroke="grey" stroke-width="2" d="M1737.96,-359.34C1730.11,-351.6 1720.74,-342.36 1712.06,-333.81"/>
<polygon fill="grey" stroke="grey" stroke-width="2" points="1714.77,-331.56 1705.19,-327.03 1709.85,-336.54 1714.77,-331.56"/>
</g>
<!-- 28&#45;&gt;1 -->
<g id="edge11" class="edge">
<title>28&#45;&gt;1</title>
<path fill="none" stroke="grey" stroke-width="2" d="M2487.83,-374.11C2306.43,-364.55 1733.57,-334.05 1629.99,-323.98"/>
<polygon fill="grey" stroke="grey" stroke-width="2" points="1630.55,-320.52 1620.21,-322.85 1629.74,-327.48 1630.55,-320.52"/>
</g>
<!-- 28&#45;&gt;55 -->
<g id="edge94" class="edge">
<title>28&#45;&gt;55</title>
<path fill="none" stroke="grey" stroke-width="2" d="M2556,-359.34C2561.44,-352.01 2567.88,-343.34 2573.94,-335.18"/>
<polygon fill="grey" stroke="grey" stroke-width="2" points="2576.62,-337.45 2579.77,-327.33 2571,-333.27 2576.62,-337.45"/>
</g>
<!-- 28&#45;&gt;61 -->
<g id="edge106" class="edge">
<title>28&#45;&gt;61</title>
<path fill="none" stroke="grey" stroke-width="2" d="M2584.43,-359.15C2605.04,-350.3 2630.18,-339.51 2652.23,-330.04"/>
<polygon fill="grey" stroke="grey" stroke-width="2" points="2653.53,-333.29 2661.33,-326.13 2650.76,-326.86 2653.53,-333.29"/>
</g>
<!-- 28&#45;&gt;69 -->
<g id="edge126" class="edge">
<title>28&#45;&gt;69</title>
<path fill="none" stroke="grey" stroke-width="2" d="M2526.73,-359.34C2519.81,-351.77 2511.56,-342.75 2503.88,-334.35"/>
<polygon fill="grey" stroke="grey" stroke-width="2" points="2506.62,-332.15 2497.28,-327.14 2501.45,-336.88 2506.62,-332.15"/>
</g>
<!-- 29&#45;&gt;1 -->
<g id="edge12" class="edge">
<title>29&#45;&gt;1</title>
<path fill="none" stroke="grey" stroke-width="2" d="M989.8,-374.58C1087.93,-369.64 1299.96,-356.22 1487.89,-324.53"/>
<polygon fill="grey" stroke="grey" stroke-width="2" points="1488.27,-328.02 1497.54,-322.88 1487.09,-321.12 1488.27,-328.02"/>
</g>
<!-- 29&#45;&gt;56 -->
<g id="edge96" class="edge">
<title>29&#45;&gt;56</title>
<path fill="none" stroke="grey" stroke-width="2" d="M898.67,-359.15C880.98,-350.43 859.46,-339.82 840.46,-330.46"/>
<polygon fill="grey" stroke="grey" stroke-width="2" points="842.24,-327.43 831.72,-326.15 839.15,-333.71 842.24,-327.43"/>
</g>
<!-- 29&#45;&gt;62 -->
<g id="edge108" class="edge">
<title>29&#45;&gt;62</title>
<path fill="none" stroke="grey" stroke-width="2" d="M927.05,-359.34C923.99,-352.43 920.4,-344.31 916.96,-336.56"/>
<polygon fill="grey" stroke="grey" stroke-width="2" points="920.28,-335.4 913.03,-327.67 913.88,-338.23 920.28,-335.4"/>
</g>
<!-- 29&#45;&gt;70 -->
<g id="edge128" class="edge">
<title>29&#45;&gt;70</title>
<path fill="none" stroke="grey" stroke-width="2" d="M955.57,-359.34C964.82,-351.44 975.92,-341.96 986.11,-333.26"/>
<polygon fill="grey" stroke="grey" stroke-width="2" points="988.27,-336.02 993.6,-326.87 983.72,-330.7 988.27,-336.02"/>
</g>
<!-- 30&#45;&gt;1 -->
<g id="edge13" class="edge">
<title>30&#45;&gt;1</title>
<path fill="none" stroke="grey" stroke-width="2" d="M611.79,-374.03C796.55,-364.02 1389.18,-331.76 1487.7,-323.76"/>
<polygon fill="grey" stroke="grey" stroke-width="2" points="1487.92,-327.26 1497.53,-322.8 1487.24,-320.29 1487.92,-327.26"/>
</g>
<!-- 30&#45;&gt;57 -->
<g id="edge98" class="edge">
<title>30&#45;&gt;57</title>
<path fill="none" stroke="grey" stroke-width="2" d="M548.3,-359.34C544.94,-352.43 541,-344.31 537.23,-336.56"/>
<polygon fill="grey" stroke="grey" stroke-width="2" points="540.41,-335.09 532.89,-327.62 534.11,-338.15 540.41,-335.09"/>
</g>
<!-- 30&#45;&gt;63 -->
<g id="edge110" class="edge">
<title>30&#45;&gt;63</title>
<path fill="none" stroke="grey" stroke-width="2" d="M519.91,-359.15C501.91,-350.47 480.04,-339.91 460.69,-330.56"/>
<polygon fill="grey" stroke="grey" stroke-width="2" points="462.28,-327.45 451.75,-326.25 459.23,-333.75 462.28,-327.45"/>
</g>
<!-- 30&#45;&gt;71 -->
<g id="edge130" class="edge">
<title>30&#45;&gt;71</title>
<path fill="none" stroke="grey" stroke-width="2" d="M577.57,-359.34C586.82,-351.44 597.92,-341.96 608.11,-333.26"/>
<polygon fill="grey" stroke="grey" stroke-width="2" points="610.27,-336.02 615.6,-326.87 605.72,-330.7 610.27,-336.02"/>
</g>
<!-- 31&#45;&gt;1 -->
<g id="edge14" class="edge">
<title>31&#45;&gt;1</title>
<path fill="none" stroke="grey" stroke-width="2" d="M1380.8,-360.5C1412.91,-350.85 1453.78,-338.57 1488.27,-328.21"/>
<polygon fill="grey" stroke="grey" stroke-width="2" points="1489.19,-331.59 1497.76,-325.36 1487.18,-324.89 1489.19,-331.59"/>
</g>
<!-- 31&#45;&gt;58 -->
<g id="edge100" class="edge">
<title>31&#45;&gt;58</title>
<path fill="none" stroke="grey" stroke-width="2" d="M1323.6,-359.34C1322.76,-352.75 1321.77,-345.08 1320.82,-337.67"/>
<polygon fill="grey" stroke="grey" stroke-width="2" points="1324.31,-337.38 1319.56,-327.9 1317.37,-338.27 1324.31,-337.38"/>
</g>
<!-- 31&#45;&gt;64 -->
<g id="edge112" class="edge">
<title>31&#45;&gt;64</title>
<path fill="none" stroke="grey" stroke-width="2" d="M1295.28,-359.15C1280.76,-350.68 1263.17,-340.42 1247.45,-331.25"/>
<polygon fill="grey" stroke="grey" stroke-width="2" points="1249.43,-328.35 1239.03,-326.34 1245.9,-334.4 1249.43,-328.35"/>
</g>
<!-- 31&#45;&gt;72 -->
<g id="edge132" class="edge">
<title>31&#45;&gt;72</title>
<path fill="none" stroke="grey" stroke-width="2" d="M1353.15,-359.15C1365.86,-350.84 1381.18,-340.82 1394.98,-331.79"/>
<polygon fill="grey" stroke="grey" stroke-width="2" points="1396.66,-334.87 1403.11,-326.47 1392.83,-329.02 1396.66,-334.87"/>
</g>
<!-- 32&#45;&gt;1 -->
<g id="edge15" class="edge">
<title>32&#45;&gt;1</title>
<path fill="none" stroke="grey" stroke-width="2" d="M2089.75,-372.4C1979.74,-363.07 1735.12,-341.45 1629.94,-324.49"/>
<polygon fill="grey" stroke="grey" stroke-width="2" points="1630.66,-321.06 1620.22,-322.85 1629.49,-327.97 1630.66,-321.06"/>
</g>
<!-- 32&#45;&gt;59 -->
<g id="edge102" class="edge">
<title>32&#45;&gt;59</title>
<path fill="none" stroke="grey" stroke-width="2" d="M2181.08,-359.15C2198.77,-350.43 2220.29,-339.82 2239.29,-330.46"/>
<polygon fill="grey" stroke="grey" stroke-width="2" points="2240.6,-333.71 2248.03,-326.15 2237.51,-327.43 2240.6,-333.71"/>
</g>
<!-- 32&#45;&gt;65 -->
<g id="edge114" class="edge">
<title>32&#45;&gt;65</title>
<path fill="none" stroke="grey" stroke-width="2" d="M2152.7,-359.34C2155.76,-352.43 2159.35,-344.31 2162.79,-336.56"/>
<polygon fill="grey" stroke="grey" stroke-width="2" points="2165.87,-338.23 2166.72,-327.67 2159.47,-335.4 2165.87,-338.23"/>
</g>
<!-- 32&#45;&gt;73 -->
<g id="edge134" class="edge">
<title>32&#45;&gt;73</title>
<path fill="none" stroke="grey" stroke-width="2" d="M2124.18,-359.34C2114.93,-351.44 2103.83,-341.96 2093.64,-333.26"/>
<polygon fill="grey" stroke="grey" stroke-width="2" points="2096.03,-330.7 2086.15,-326.87 2091.48,-336.02 2096.03,-330.7"/>
</g>
<!-- 33&#45;&gt;0 -->
<g id="edge2" class="edge">
<title>33&#45;&gt;0</title>
<path fill="none" stroke="grey" stroke-width="2" d="M61.72,-215.36C66.06,-194.65 76.45,-160.97 99.88,-144 271.15,-19.93 967.78,-17.17 1144.15,-18.51"/>
<polygon fill="grey" stroke="grey" stroke-width="2" points="1144.02,-22.01 1154.05,-18.6 1144.08,-15.01 1144.02,-22.01"/>
</g>
<!-- 34 -->
<g id="node35" class="node">
<title>34</title>
<path fill="none" stroke="#c6d856" stroke-width="2" d="M73.75,-324C73.75,-324 12,-324 12,-324 6,-324 0,-318 0,-312 0,-312 0,-300 0,-300 0,-294 6,-288 12,-288 12,-288 73.75,-288 73.75,-288 79.75,-288 85.75,-294 85.75,-300 85.75,-300 85.75,-312 85.75,-312 85.75,-318 79.75,-324 73.75,-324"/>
<text text-anchor="middle" x="42.88" y="-302.12" font-family="sans" font-size="10.00">make_metadata</text>
</g>
<!-- 34&#45;&gt;33 -->
<g id="edge47" class="edge">
<title>34&#45;&gt;33</title>
<path fill="none" stroke="grey" stroke-width="2" d="M46.91,-287.34C48.44,-280.67 50.22,-272.89 51.93,-265.39"/>
<polygon fill="grey" stroke="grey" stroke-width="2" points="55.29,-266.38 54.11,-255.85 48.47,-264.82 55.29,-266.38"/>
</g>
<!-- 35 -->
<g id="node36" class="node">
<title>35</title>
<path fill="none" stroke="#afd856" stroke-width="2" d="M1199.88,-108C1199.88,-108 1169.88,-108 1169.88,-108 1163.88,-108 1157.88,-102 1157.88,-96 1157.88,-96 1157.88,-84 1157.88,-84 1157.88,-78 1163.88,-72 1169.88,-72 1169.88,-72 1199.88,-72 1199.88,-72 1205.88,-72 1211.88,-78 1211.88,-84 1211.88,-84 1211.88,-96 1211.88,-96 1211.88,-102 1205.88,-108 1199.88,-108"/>
<text text-anchor="middle" x="1184.88" y="-86.12" font-family="sans" font-size="10.00">multiqc</text>
</g>
<!-- 35&#45;&gt;0 -->
<g id="edge3" class="edge">
<title>35&#45;&gt;0</title>
<path fill="none" stroke="grey" stroke-width="2" d="M1184.88,-71.34C1184.88,-64.75 1184.88,-57.08 1184.88,-49.67"/>
<polygon fill="grey" stroke="grey" stroke-width="2" points="1188.38,-49.93 1184.88,-39.93 1181.38,-49.93 1188.38,-49.93"/>
</g>
<!-- 36 -->
<g id="node37" class="node">
<title>36</title>
<path fill="none" stroke="#d8a456" stroke-width="2" d="M213.62,-180C213.62,-180 154.12,-180 154.12,-180 148.12,-180 142.12,-174 142.12,-168 142.12,-168 142.12,-156 142.12,-156 142.12,-150 148.12,-144 154.12,-144 154.12,-144 213.62,-144 213.62,-144 219.62,-144 225.62,-150 225.62,-156 225.62,-156 225.62,-168 225.62,-168 225.62,-174 219.62,-180 213.62,-180"/>
<text text-anchor="middle" x="183.88" y="-163.75" font-family="sans" font-size="10.00">fastqc_pre_trim</text>
<text text-anchor="middle" x="183.88" y="-152.5" font-family="sans" font-size="10.00">sample: KO_1</text>
</g>
<!-- 36&#45;&gt;35 -->
<g id="edge48" class="edge">
<title>36&#45;&gt;35</title>
<path fill="none" stroke="grey" stroke-width="2" d="M226.51,-145.87C229.32,-145.16 232.12,-144.53 234.88,-144 413.42,-109.89 987.12,-95.26 1144.57,-91.82"/>
<polygon fill="grey" stroke="grey" stroke-width="2" points="1144.31,-95.33 1154.23,-91.62 1144.16,-88.33 1144.31,-95.33"/>
</g>
<!-- 37 -->
<g id="node38" class="node">
<title>37</title>
<path fill="none" stroke="#d8a456" stroke-width="2" d="M315.62,-180C315.62,-180 256.12,-180 256.12,-180 250.12,-180 244.12,-174 244.12,-168 244.12,-168 244.12,-156 244.12,-156 244.12,-150 250.12,-144 256.12,-144 256.12,-144 315.62,-144 315.62,-144 321.62,-144 327.62,-150 327.62,-156 327.62,-156 327.62,-168 327.62,-168 327.62,-174 321.62,-180 315.62,-180"/>
<text text-anchor="middle" x="285.88" y="-163.75" font-family="sans" font-size="10.00">fastqc_pre_trim</text>
<text text-anchor="middle" x="285.88" y="-152.5" font-family="sans" font-size="10.00">sample: KO_2</text>
</g>
<!-- 37&#45;&gt;35 -->
<g id="edge49" class="edge">
<title>37&#45;&gt;35</title>
<path fill="none" stroke="grey" stroke-width="2" d="M328.51,-145.9C331.32,-145.18 334.13,-144.53 336.88,-144 494.49,-113.35 997.3,-96.5 1144.2,-92.15"/>
<polygon fill="grey" stroke="grey" stroke-width="2" points="1143.98,-95.65 1153.87,-91.86 1143.78,-88.66 1143.98,-95.65"/>
</g>
<!-- 38 -->
<g id="node39" class="node">
<title>38</title>
<path fill="none" stroke="#d8a456" stroke-width="2" d="M417.62,-180C417.62,-180 358.12,-180 358.12,-180 352.12,-180 346.12,-174 346.12,-168 346.12,-168 346.12,-156 346.12,-156 346.12,-150 352.12,-144 358.12,-144 358.12,-144 417.62,-144 417.62,-144 423.62,-144 429.62,-150 429.62,-156 429.62,-156 429.62,-168 429.62,-168 429.62,-174 423.62,-180 417.62,-180"/>
<text text-anchor="middle" x="387.88" y="-163.75" font-family="sans" font-size="10.00">fastqc_pre_trim</text>
<text text-anchor="middle" x="387.88" y="-152.5" font-family="sans" font-size="10.00">sample: KO_3</text>
</g>
<!-- 38&#45;&gt;35 -->
<g id="edge50" class="edge">
<title>38&#45;&gt;35</title>
<path fill="none" stroke="grey" stroke-width="2" d="M430.52,-145.92C433.33,-145.2 436.13,-144.55 438.88,-144 703.85,-91.3 1030.91,-89.25 1144.08,-90.34"/>
<polygon fill="grey" stroke="grey" stroke-width="2" points="1144.04,-93.84 1154.08,-90.45 1144.12,-86.84 1144.04,-93.84"/>
</g>
<!-- 39 -->
<g id="node40" class="node">
<title>39</title>
<path fill="none" stroke="#d8a456" stroke-width="2" d="M519.62,-180C519.62,-180 460.12,-180 460.12,-180 454.12,-180 448.12,-174 448.12,-168 448.12,-168 448.12,-156 448.12,-156 448.12,-150 454.12,-144 460.12,-144 460.12,-144 519.62,-144 519.62,-144 525.62,-144 531.62,-150 531.62,-156 531.62,-156 531.62,-168 531.62,-168 531.62,-174 525.62,-180 519.62,-180"/>
<text text-anchor="middle" x="489.88" y="-163.75" font-family="sans" font-size="10.00">fastqc_pre_trim</text>
<text text-anchor="middle" x="489.88" y="-152.5" font-family="sans" font-size="10.00">sample: WT_1</text>
</g>
<!-- 39&#45;&gt;35 -->
<g id="edge51" class="edge">
<title>39&#45;&gt;35</title>
<path fill="none" stroke="grey" stroke-width="2" d="M532.52,-145.96C535.33,-145.22 538.13,-144.56 540.88,-144 765.44,-98.03 1041.79,-91.68 1144.2,-90.99"/>
<polygon fill="grey" stroke="grey" stroke-width="2" points="1143.91,-94.49 1153.89,-90.94 1143.88,-87.49 1143.91,-94.49"/>
</g>
<!-- 40 -->
<g id="node41" class="node">
<title>40</title>
<path fill="none" stroke="#d8a456" stroke-width="2" d="M621.62,-180C621.62,-180 562.12,-180 562.12,-180 556.12,-180 550.12,-174 550.12,-168 550.12,-168 550.12,-156 550.12,-156 550.12,-150 556.12,-144 562.12,-144 562.12,-144 621.62,-144 621.62,-144 627.62,-144 633.62,-150 633.62,-156 633.62,-156 633.62,-168 633.62,-168 633.62,-174 627.62,-180 621.62,-180"/>
<text text-anchor="middle" x="591.88" y="-163.75" font-family="sans" font-size="10.00">fastqc_pre_trim</text>
<text text-anchor="middle" x="591.88" y="-152.5" font-family="sans" font-size="10.00">sample: WT_2</text>
</g>
<!-- 40&#45;&gt;35 -->
<g id="edge52" class="edge">
<title>40&#45;&gt;35</title>
<path fill="none" stroke="grey" stroke-width="2" d="M634.53,-146.01C637.34,-145.26 640.14,-144.58 642.88,-144 827.15,-104.8 1052.95,-94.51 1143.97,-91.88"/>
<polygon fill="grey" stroke="grey" stroke-width="2" points="1143.97,-95.38 1153.87,-91.61 1143.78,-88.38 1143.97,-95.38"/>
</g>
<!-- 41 -->
<g id="node42" class="node">
<title>41</title>
<path fill="none" stroke="#d8a456" stroke-width="2" d="M723.62,-180C723.62,-180 664.12,-180 664.12,-180 658.12,-180 652.12,-174 652.12,-168 652.12,-168 652.12,-156 652.12,-156 652.12,-150 658.12,-144 664.12,-144 664.12,-144 723.62,-144 723.62,-144 729.62,-144 735.62,-150 735.62,-156 735.62,-156 735.62,-168 735.62,-168 735.62,-174 729.62,-180 723.62,-180"/>
<text text-anchor="middle" x="693.88" y="-163.75" font-family="sans" font-size="10.00">fastqc_pre_trim</text>
<text text-anchor="middle" x="693.88" y="-152.5" font-family="sans" font-size="10.00">sample: WT_3</text>
</g>
<!-- 41&#45;&gt;35 -->
<g id="edge53" class="edge">
<title>41&#45;&gt;35</title>
<path fill="none" stroke="grey" stroke-width="2" d="M736.48,-147.23C740.98,-146.03 745.5,-144.92 749.88,-144 893.13,-113.77 1066.83,-99.04 1144.24,-93.59"/>
<polygon fill="grey" stroke="grey" stroke-width="2" points="1144.36,-97.09 1154.1,-92.91 1143.88,-90.1 1144.36,-97.09"/>
</g>
<!-- 42&#45;&gt;35 -->
<g id="edge54" class="edge">
<title>42&#45;&gt;35</title>
<path fill="none" stroke="grey" stroke-width="2" d="M2246.58,-215.03C2204.23,-193.83 2129.39,-159.5 2060.88,-144 1898.57,-107.29 1375.48,-94.64 1225.45,-91.72"/>
<polygon fill="grey" stroke="grey" stroke-width="2" points="1225.6,-88.22 1215.54,-91.53 1225.47,-95.22 1225.6,-88.22"/>
</g>
<!-- 43&#45;&gt;35 -->
<g id="edge55" class="edge">
<title>43&#45;&gt;35</title>
<path fill="none" stroke="grey" stroke-width="2" d="M2883.03,-215.2C2875,-193.98 2858.36,-159.47 2830.88,-144 2758.82,-103.44 1472.44,-92.9 1225.63,-91.25"/>
<polygon fill="grey" stroke="grey" stroke-width="2" points="1225.81,-87.75 1215.79,-91.19 1225.77,-94.75 1225.81,-87.75"/>
</g>
<!-- 44&#45;&gt;35 -->
<g id="edge56" class="edge">
<title>44&#45;&gt;35</title>
<path fill="none" stroke="grey" stroke-width="2" d="M421.22,-230.29C507.02,-224.55 689.5,-209.23 744.88,-180 764.07,-169.87 758.61,-154.01 777.88,-144 841.1,-111.15 1053.92,-97.28 1144.02,-92.78"/>
<polygon fill="grey" stroke="grey" stroke-width="2" points="1144.05,-96.29 1153.87,-92.31 1143.71,-89.29 1144.05,-96.29"/>
</g>
<!-- 45&#45;&gt;35 -->
<g id="edge57" class="edge">
<title>45&#45;&gt;35</title>
<path fill="none" stroke="grey" stroke-width="2" d="M140.04,-503.37C130.37,-476.83 113.88,-424.81 113.88,-379 113.88,-379 113.88,-379 113.88,-233 113.88,-192.55 102.08,-170.22 132.88,-144 172.05,-110.64 955.75,-94.97 1144.32,-91.67"/>
<polygon fill="grey" stroke="grey" stroke-width="2" points="1144.13,-95.18 1154.07,-91.5 1144.01,-88.18 1144.13,-95.18"/>
</g>
<!-- 46&#45;&gt;35 -->
<g id="edge58" class="edge">
<title>46&#45;&gt;35</title>
<path fill="none" stroke="grey" stroke-width="2" d="M1112.3,-215.19C1112.43,-196.4 1114.8,-166.46 1126.88,-144 1132.21,-134.07 1140.15,-125.03 1148.45,-117.33"/>
<polygon fill="grey" stroke="grey" stroke-width="2" points="1150.62,-120.08 1155.93,-110.92 1146.06,-114.77 1150.62,-120.08"/>
</g>
<!-- 47&#45;&gt;35 -->
<g id="edge59" class="edge">
<title>47&#45;&gt;35</title>
<path fill="none" stroke="grey" stroke-width="2" d="M2764.55,-431.12C2776.54,-422 2789.68,-409.9 2797.88,-396 2818.42,-361.16 2816.88,-347.45 2816.88,-307 2816.88,-307 2816.88,-307 2816.88,-233 2816.88,-73.79 2627.39,-167.19 2469.88,-144 2221.24,-107.4 1416.29,-94.19 1225.64,-91.53"/>
<polygon fill="grey" stroke="grey" stroke-width="2" points="1225.81,-88.03 1215.77,-91.4 1225.72,-95.03 1225.81,-88.03"/>
</g>
<!-- 48&#45;&gt;35 -->
<g id="edge60" class="edge">
<title>48&#45;&gt;35</title>
<path fill="none" stroke="grey" stroke-width="2" d="M1839.93,-359.14C1821.79,-349.69 1799.99,-337.31 1781.88,-324 1763.13,-310.23 1763.01,-301.23 1743.88,-288 1623.21,-204.57 1585.87,-190.91 1446.88,-144 1370.63,-118.26 1277.46,-103.08 1225.28,-95.95"/>
<polygon fill="grey" stroke="grey" stroke-width="2" points="1226,-92.52 1215.63,-94.67 1225.08,-99.46 1226,-92.52"/>
</g>
<!-- 49&#45;&gt;35 -->
<g id="edge61" class="edge">
<title>49&#45;&gt;35</title>
<path fill="none" stroke="grey" stroke-width="2" d="M2751.55,-359.22C2762.62,-339.91 2775.42,-309.01 2759.88,-288 2629.67,-112.04 2504.53,-181.54 2288.88,-144 2078.36,-107.36 1398.53,-94.36 1225.33,-91.6"/>
<polygon fill="grey" stroke="grey" stroke-width="2" points="1225.47,-88.1 1215.42,-91.44 1225.36,-95.1 1225.47,-88.1"/>
</g>
<!-- 50&#45;&gt;35 -->
<g id="edge62" class="edge">
<title>50&#45;&gt;35</title>
<path fill="none" stroke="grey" stroke-width="2" d="M1005.07,-145.72C1046.99,-132.97 1105.96,-115.02 1144.78,-103.2"/>
<polygon fill="grey" stroke="grey" stroke-width="2" points="1145.68,-106.59 1154.23,-100.33 1143.64,-99.89 1145.68,-106.59"/>
</g>
<!-- 51&#45;&gt;35 -->
<g id="edge63" class="edge">
<title>51&#45;&gt;35</title>
<path fill="none" stroke="grey" stroke-width="2" d="M711.45,-215.06C731.85,-205.5 756.69,-193.04 777.88,-180 800.59,-166.02 801.26,-154.26 825.88,-144 934.63,-98.65 1076.1,-91.28 1144.43,-90.59"/>
<polygon fill="grey" stroke="grey" stroke-width="2" points="1144.07,-94.1 1154.06,-90.55 1144.04,-87.1 1144.07,-94.1"/>
</g>
<!-- 52&#45;&gt;35 -->
<g id="edge64" class="edge">
<title>52&#45;&gt;35</title>
<path fill="none" stroke="grey" stroke-width="2" d="M1184.88,-143.34C1184.88,-136.75 1184.88,-129.08 1184.88,-121.67"/>
<polygon fill="grey" stroke="grey" stroke-width="2" points="1188.38,-121.93 1184.88,-111.93 1181.38,-121.93 1188.38,-121.93"/>
</g>
<!-- 53&#45;&gt;35 -->
<g id="edge65" class="edge">
<title>53&#45;&gt;35</title>
<path fill="none" stroke="grey" stroke-width="2" d="M2121.23,-215.12C2098.92,-193.83 2058.29,-159.24 2015.88,-144 1867.94,-90.83 1371.6,-89.75 1225.6,-90.63"/>
<polygon fill="grey" stroke="grey" stroke-width="2" points="1225.59,-87.13 1215.61,-90.7 1225.64,-94.13 1225.59,-87.13"/>
</g>
<!-- 54&#45;&gt;35 -->
<g id="edge66" class="edge">
<title>54&#45;&gt;35</title>
<path fill="none" stroke="grey" stroke-width="2" d="M1837.87,-287.14C1834.89,-253.02 1823.15,-178.9 1776.88,-144 1733.01,-110.91 1352.35,-96.19 1225.68,-92.18"/>
<polygon fill="grey" stroke="grey" stroke-width="2" points="1226,-88.69 1215.9,-91.88 1225.78,-95.69 1226,-88.69"/>
</g>
<!-- 55&#45;&gt;35 -->
<g id="edge67" class="edge">
<title>55&#45;&gt;35</title>
<path fill="none" stroke="grey" stroke-width="2" d="M2554.91,-287.03C2475.34,-252.2 2290.66,-176.14 2126.88,-144 1950.19,-109.33 1382.27,-95.12 1225.37,-91.8"/>
<polygon fill="grey" stroke="grey" stroke-width="2" points="1225.81,-88.31 1215.74,-91.6 1225.67,-95.31 1225.81,-88.31"/>
</g>
<!-- 56&#45;&gt;35 -->
<g id="edge68" class="edge">
<title>56&#45;&gt;35</title>
<path fill="none" stroke="grey" stroke-width="2" d="M841.52,-289.75C868.36,-280.47 901.83,-267.43 929.88,-252 1000.59,-213.09 1006.84,-185.82 1075.88,-144 1098.14,-130.51 1124.34,-117.68 1145.48,-108.02"/>
<polygon fill="grey" stroke="grey" stroke-width="2" points="1146.82,-111.26 1154.5,-103.96 1143.95,-104.87 1146.82,-111.26"/>
</g>
<!-- 57&#45;&gt;35 -->
<g id="edge69" class="edge">
<title>57&#45;&gt;35</title>
<path fill="none" stroke="grey" stroke-width="2" d="M571.56,-289.92C574.36,-289.23 577.15,-288.58 579.88,-288 639.93,-275.18 805.41,-289.71 853.88,-252 894.65,-220.27 856.93,-176.76 896.88,-144 934.17,-113.41 1074.43,-99.05 1144.51,-93.66"/>
<polygon fill="grey" stroke="grey" stroke-width="2" points="1144.4,-97.18 1154.12,-92.96 1143.89,-90.2 1144.4,-97.18"/>
</g>
<!-- 58&#45;&gt;35 -->
<g id="edge70" class="edge">
<title>58&#45;&gt;35</title>
<path fill="none" stroke="grey" stroke-width="2" d="M1314.36,-287.1C1309.15,-255.44 1294.74,-188.7 1260.88,-144 1251.01,-130.98 1237.01,-119.95 1223.71,-111.37"/>
<polygon fill="grey" stroke="grey" stroke-width="2" points="1225.76,-108.53 1215.4,-106.33 1222.13,-114.51 1225.76,-108.53"/>
</g>
<!-- 59&#45;&gt;35 -->
<g id="edge71" class="edge">
<title>59&#45;&gt;35</title>
<path fill="none" stroke="grey" stroke-width="2" d="M2238.41,-290.36C2235.53,-289.54 2232.67,-288.75 2229.88,-288 2164.1,-270.26 2144.33,-276.8 2080.88,-252 1988.96,-216.08 1981.39,-172.38 1886.88,-144 1761.66,-106.41 1355.49,-94.63 1225.38,-91.78"/>
<polygon fill="grey" stroke="grey" stroke-width="2" points="1225.72,-88.28 1215.65,-91.57 1225.57,-95.28 1225.72,-88.28"/>
</g>
<!-- 60&#45;&gt;35 -->
<g id="edge72" class="edge">
<title>60&#45;&gt;35</title>
<path fill="none" stroke="grey" stroke-width="2" d="M1940.23,-287.23C1920.35,-252.59 1871.13,-176.58 1805.88,-144 1703.57,-92.92 1346.91,-90.06 1225.61,-90.61"/>
<polygon fill="grey" stroke="grey" stroke-width="2" points="1225.67,-87.11 1215.69,-90.67 1225.72,-94.11 1225.67,-87.11"/>
</g>
<!-- 61&#45;&gt;35 -->
<g id="edge73" class="edge">
<title>61&#45;&gt;35</title>
<path fill="none" stroke="grey" stroke-width="2" d="M2660.59,-289.66C2607.54,-271.75 2516.95,-241.34 2438.88,-216 2337.8,-183.2 2315.45,-162.89 2210.88,-144 2016.68,-108.91 1391.63,-94.88 1225.66,-91.72"/>
<polygon fill="grey" stroke="grey" stroke-width="2" points="1225.86,-88.23 1215.8,-91.54 1225.73,-95.23 1225.86,-88.23"/>
</g>
<!-- 62&#45;&gt;35 -->
<g id="edge74" class="edge">
<title>62&#45;&gt;35</title>
<path fill="none" stroke="grey" stroke-width="2" d="M949.43,-288.67C971.04,-279.7 996.51,-267.29 1016.88,-252 1068,-213.62 1064.61,-187.04 1111.88,-144 1122.69,-134.15 1135.33,-124.43 1147.03,-116.06"/>
<polygon fill="grey" stroke="grey" stroke-width="2" points="1148.76,-119.12 1154.94,-110.52 1144.74,-113.39 1148.76,-119.12"/>
</g>
<!-- 63&#45;&gt;35 -->
<g id="edge75" class="edge">
<title>63&#45;&gt;35</title>
<path fill="none" stroke="grey" stroke-width="2" d="M457.39,-290.08C460.25,-289.32 463.09,-288.62 465.88,-288 581,-262.19 619.74,-296.83 728.88,-252 802.87,-221.6 799.37,-175.59 872.88,-144 964.39,-104.67 1082.75,-94.47 1144.05,-91.86"/>
<polygon fill="grey" stroke="grey" stroke-width="2" points="1144.05,-95.36 1153.91,-91.5 1143.79,-88.37 1144.05,-95.36"/>
</g>
<!-- 64&#45;&gt;35 -->
<g id="edge76" class="edge">
<title>64&#45;&gt;35</title>
<path fill="none" stroke="grey" stroke-width="2" d="M1216.92,-287.4C1234.48,-257.04 1264.62,-193.34 1242.88,-144 1238.37,-133.77 1230.8,-124.66 1222.6,-117"/>
<polygon fill="grey" stroke="grey" stroke-width="2" points="1225.02,-114.46 1215.13,-110.66 1220.49,-119.8 1225.02,-114.46"/>
</g>
<!-- 65&#45;&gt;35 -->
<g id="edge77" class="edge">
<title>65&#45;&gt;35</title>
<path fill="none" stroke="grey" stroke-width="2" d="M2130.25,-290.49C2127.42,-289.63 2124.61,-288.8 2121.88,-288 2062.67,-270.74 2043.32,-278.99 1987.88,-252 1915.94,-216.99 1918.69,-172.32 1843.88,-144 1729.8,-100.82 1350.93,-92.81 1225.55,-91.33"/>
<polygon fill="grey" stroke="grey" stroke-width="2" points="1225.61,-87.83 1215.58,-91.22 1225.54,-94.83 1225.61,-87.83"/>
</g>
<!-- 66 -->
<g id="node67" class="node">
<title>66</title>
<path fill="none" stroke="#56d863" stroke-width="2" d="M1425.75,-180C1425.75,-180 1340,-180 1340,-180 1334,-180 1328,-174 1328,-168 1328,-168 1328,-156 1328,-156 1328,-150 1334,-144 1340,-144 1340,-144 1425.75,-144 1425.75,-144 1431.75,-144 1437.75,-150 1437.75,-156 1437.75,-156 1437.75,-168 1437.75,-168 1437.75,-174 1431.75,-180 1425.75,-180"/>
<text text-anchor="middle" x="1382.88" y="-158.12" font-family="sans" font-size="10.00">qualimap_counts_QC</text>
</g>
<!-- 66&#45;&gt;35 -->
<g id="edge78" class="edge">
<title>66&#45;&gt;35</title>
<path fill="none" stroke="grey" stroke-width="2" d="M1332.14,-143.06C1298.81,-131.28 1255.81,-116.08 1224.89,-105.15"/>
<polygon fill="grey" stroke="grey" stroke-width="2" points="1226.31,-101.93 1215.71,-101.9 1223.97,-108.53 1226.31,-101.93"/>
</g>
<!-- 67 -->
<g id="node68" class="node">
<title>67</title>
<path fill="none" stroke="#56d87b" stroke-width="2" d="M1529.38,-252C1529.38,-252 1456.38,-252 1456.38,-252 1450.38,-252 1444.38,-246 1444.38,-240 1444.38,-240 1444.38,-228 1444.38,-228 1444.38,-222 1450.38,-216 1456.38,-216 1456.38,-216 1529.38,-216 1529.38,-216 1535.38,-216 1541.38,-222 1541.38,-228 1541.38,-228 1541.38,-240 1541.38,-240 1541.38,-246 1535.38,-252 1529.38,-252"/>
<text text-anchor="middle" x="1492.88" y="-230.12" font-family="sans" font-size="10.00">qualimap_data_file</text>
</g>
<!-- 67&#45;&gt;66 -->
<g id="edge115" class="edge">
<title>67&#45;&gt;66</title>
<path fill="none" stroke="grey" stroke-width="2" d="M1464.83,-215.15C1451.77,-206.84 1436.02,-196.82 1421.83,-187.79"/>
<polygon fill="grey" stroke="grey" stroke-width="2" points="1423.74,-184.85 1413.42,-182.44 1419.98,-190.76 1423.74,-184.85"/>
</g>
<!-- 68&#45;&gt;67 -->
<g id="edge117" class="edge">
<title>68&#45;&gt;67</title>
<path fill="none" stroke="grey" stroke-width="2" d="M1635.93,-287.15C1611.09,-278.1 1580.66,-267.01 1554.27,-257.38"/>
<polygon fill="grey" stroke="grey" stroke-width="2" points="1555.5,-254.11 1544.91,-253.97 1553.11,-260.68 1555.5,-254.11"/>
</g>
<!-- 69&#45;&gt;67 -->
<g id="edge118" class="edge">
<title>69&#45;&gt;67</title>
<path fill="none" stroke="grey" stroke-width="2" d="M2427.99,-297.82C2402.74,-294.46 2371.74,-290.62 2343.88,-288 2049.4,-260.32 1696.2,-243.56 1555.32,-237.54"/>
<polygon fill="grey" stroke="grey" stroke-width="2" points="1555.53,-234.04 1545.39,-237.12 1555.23,-241.04 1555.53,-234.04"/>
</g>
<!-- 70&#45;&gt;67 -->
<g id="edge119" class="edge">
<title>70&#45;&gt;67</title>
<path fill="none" stroke="grey" stroke-width="2" d="M1067.81,-298.57C1166.2,-286.14 1376.95,-259.5 1431.12,-251.91"/>
<polygon fill="grey" stroke="grey" stroke-width="2" points="1431.3,-255.43 1440.66,-250.46 1430.24,-248.51 1431.3,-255.43"/>
</g>
<!-- 71&#45;&gt;67 -->
<g id="edge120" class="edge">
<title>71&#45;&gt;67</title>
<path fill="none" stroke="grey" stroke-width="2" d="M689.8,-294.87C704.61,-292.25 720.84,-289.7 735.88,-288 1040.76,-253.56 1125.87,-302.72 1430.58,-252.48"/>
<polygon fill="grey" stroke="grey" stroke-width="2" points="1431.11,-255.94 1440.39,-250.83 1429.95,-249.04 1431.11,-255.94"/>
</g>
<!-- 72&#45;&gt;67 -->
<g id="edge121" class="edge">
<title>72&#45;&gt;67</title>
<path fill="none" stroke="grey" stroke-width="2" d="M1448.02,-287.34C1454.43,-279.85 1462.06,-270.95 1469.19,-262.63"/>
<polygon fill="grey" stroke="grey" stroke-width="2" points="1471.71,-265.07 1475.56,-255.2 1466.4,-260.51 1471.71,-265.07"/>
</g>
<!-- 73&#45;&gt;67 -->
<g id="edge122" class="edge">
<title>73&#45;&gt;67</title>
<path fill="none" stroke="grey" stroke-width="2" d="M2012.17,-289.77C2009.37,-289.13 2006.6,-288.53 2003.88,-288 1843.79,-256.89 1651.7,-243.18 1554.99,-237.89"/>
<polygon fill="grey" stroke="grey" stroke-width="2" points="1555.47,-234.41 1545.3,-237.37 1555.1,-241.4 1555.47,-234.41"/>
</g>
<!-- 74 -->
<g id="node75" class="node">
<title>74</title>
<path fill="none" stroke="#56d892" stroke-width="2" d="M1413.88,-252C1413.88,-252 1343.88,-252 1343.88,-252 1337.88,-252 1331.88,-246 1331.88,-240 1331.88,-240 1331.88,-228 1331.88,-228 1331.88,-222 1337.88,-216 1343.88,-216 1343.88,-216 1413.88,-216 1413.88,-216 1419.88,-216 1425.88,-222 1425.88,-228 1425.88,-228 1425.88,-240 1425.88,-240 1425.88,-246 1419.88,-252 1413.88,-252"/>
<text text-anchor="middle" x="1378.88" y="-230.12" font-family="sans" font-size="10.00">qualimap_info_file</text>
</g>
<!-- 74&#45;&gt;66 -->
<g id="edge116" class="edge">
<title>74&#45;&gt;66</title>
<path fill="none" stroke="grey" stroke-width="2" d="M1379.88,-215.34C1380.26,-208.75 1380.7,-201.08 1381.12,-193.67"/>
<polygon fill="grey" stroke="grey" stroke-width="2" points="1384.6,-194.11 1381.68,-183.92 1377.61,-193.71 1384.6,-194.11"/>
</g>
</g>
</svg>
