<?xml version="1.0" encoding="UTF-8" standalone="no"?>
<!DOCTYPE svg PUBLIC "-//W3C//DTD SVG 1.1//EN"
 "http://www.w3.org/Graphics/SVG/1.1/DTD/svg11.dtd">
<!-- Generated by graphviz version 12.2.1 (0)
 -->
<!-- Title: snakemake_dag Pages: 1 -->
<svg width="490pt" height="404pt"
 viewBox="0.00 0.00 489.62 404.00" xmlns="http://www.w3.org/2000/svg" xmlns:xlink="http://www.w3.org/1999/xlink">
<g id="graph0" class="graph" transform="scale(1 1) rotate(0) translate(4 400)">
<title>snakemake_dag</title>
<polygon fill="white" stroke="none" points="-4,4 -4,-400 485.62,-400 485.62,4 -4,4"/>
<!-- 0 -->
<g id="node1" class="node">
<title>0</title>
<path fill="none" stroke="#d85656" stroke-width="2" d="M225.5,-36C225.5,-36 195.5,-36 195.5,-36 189.5,-36 183.5,-30 183.5,-24 183.5,-24 183.5,-12 183.5,-12 183.5,-6 189.5,0 195.5,0 195.5,0 225.5,0 225.5,0 231.5,0 237.5,-6 237.5,-12 237.5,-12 237.5,-24 237.5,-24 237.5,-30 231.5,-36 225.5,-36"/>
<text text-anchor="middle" x="210.5" y="-14.12" font-family="sans" font-size="10.00">all</text>
</g>
<!-- 1 -->
<g id="node2" class="node">
<title>1</title>
<path fill="none" stroke="#97d856" stroke-width="2" stroke-dasharray="5,2" d="M55,-108C55,-108 12,-108 12,-108 6,-108 0,-102 0,-96 0,-96 0,-84 0,-84 0,-78 6,-72 12,-72 12,-72 55,-72 55,-72 61,-72 67,-78 67,-84 67,-84 67,-96 67,-96 67,-102 61,-108 55,-108"/>
<text text-anchor="middle" x="33.5" y="-91.75" font-family="sans" font-size="10.00">fastqc</text>
<text text-anchor="middle" x="33.5" y="-80.5" font-family="sans" font-size="10.00">sample: gut</text>
</g>
<!-- 1&#45;&gt;0 -->
<g id="edge1" class="edge">
<title>1&#45;&gt;0</title>
<path fill="none" stroke="grey" stroke-width="2" d="M67.87,-75.05C70.45,-74.02 73.02,-72.99 75.5,-72 107.4,-59.28 143.63,-45.07 170.52,-34.57"/>
<polygon fill="grey" stroke="grey" stroke-width="2" points="171.68,-37.87 179.72,-30.98 169.13,-31.35 171.68,-37.87"/>
</g>
<!-- 2 -->
<g id="node3" class="node">
<title>2</title>
<path fill="none" stroke="#97d856" stroke-width="2" stroke-dasharray="5,2" d="M144.25,-108C144.25,-108 96.75,-108 96.75,-108 90.75,-108 84.75,-102 84.75,-96 84.75,-96 84.75,-84 84.75,-84 84.75,-78 90.75,-72 96.75,-72 96.75,-72 144.25,-72 144.25,-72 150.25,-72 156.25,-78 156.25,-84 156.25,-84 156.25,-96 156.25,-96 156.25,-102 150.25,-108 144.25,-108"/>
<text text-anchor="middle" x="120.5" y="-91.75" font-family="sans" font-size="10.00">fastqc</text>
<text text-anchor="middle" x="120.5" y="-80.5" font-family="sans" font-size="10.00">sample: liver</text>
</g>
<!-- 2&#45;&gt;0 -->
<g id="edge2" class="edge">
<title>2&#45;&gt;0</title>
<path fill="none" stroke="grey" stroke-width="2" d="M143.21,-71.34C153.58,-63.27 166.05,-53.57 177.43,-44.72"/>
<polygon fill="grey" stroke="grey" stroke-width="2" points="179.35,-47.66 185.09,-38.76 175.05,-42.14 179.35,-47.66"/>
</g>
<!-- 3 -->
<g id="node4" class="node">
<title>3</title>
<path fill="none" stroke="#97d856" stroke-width="2" stroke-dasharray="5,2" d="M234.25,-108C234.25,-108 186.75,-108 186.75,-108 180.75,-108 174.75,-102 174.75,-96 174.75,-96 174.75,-84 174.75,-84 174.75,-78 180.75,-72 186.75,-72 186.75,-72 234.25,-72 234.25,-72 240.25,-72 246.25,-78 246.25,-84 246.25,-84 246.25,-96 246.25,-96 246.25,-102 240.25,-108 234.25,-108"/>
<text text-anchor="middle" x="210.5" y="-91.75" font-family="sans" font-size="10.00">fastqc</text>
<text text-anchor="middle" x="210.5" y="-80.5" font-family="sans" font-size="10.00">sample: lung</text>
</g>
<!-- 3&#45;&gt;0 -->
<g id="edge3" class="edge">
<title>3&#45;&gt;0</title>
<path fill="none" stroke="grey" stroke-width="2" d="M210.5,-71.34C210.5,-64.75 210.5,-57.08 210.5,-49.67"/>
<polygon fill="grey" stroke="grey" stroke-width="2" points="214,-49.93 210.5,-39.93 207,-49.93 214,-49.93"/>
</g>
<!-- 4 -->
<g id="node5" class="node">
<title>4</title>
<path fill="none" stroke="#569ad8" stroke-width="2" stroke-dasharray="5,2" d="M347,-180C347,-180 256,-180 256,-180 250,-180 244,-174 244,-168 244,-168 244,-156 244,-156 244,-150 250,-144 256,-144 256,-144 347,-144 347,-144 353,-144 359,-150 359,-156 359,-156 359,-168 359,-168 359,-174 353,-180 347,-180"/>
<text text-anchor="middle" x="301.5" y="-158.12" font-family="sans" font-size="10.00">subread_featurecounts</text>
</g>
<!-- 4&#45;&gt;0 -->
<g id="edge4" class="edge">
<title>4&#45;&gt;0</title>
<path fill="none" stroke="grey" stroke-width="2" d="M293.79,-143.28C285.44,-124.83 271.19,-95.41 255.5,-72 249.71,-63.36 242.71,-54.52 235.98,-46.61"/>
<polygon fill="grey" stroke="grey" stroke-width="2" points="238.63,-44.32 229.4,-39.1 233.36,-48.93 238.63,-44.32"/>
</g>
<!-- 14 -->
<g id="node15" class="node">
<title>14</title>
<path fill="none" stroke="#59d856" stroke-width="2" d="M344.5,-108C344.5,-108 314.5,-108 314.5,-108 308.5,-108 302.5,-102 302.5,-96 302.5,-96 302.5,-84 302.5,-84 302.5,-78 308.5,-72 314.5,-72 314.5,-72 344.5,-72 344.5,-72 350.5,-72 356.5,-78 356.5,-84 356.5,-84 356.5,-96 356.5,-96 356.5,-102 350.5,-108 344.5,-108"/>
<text text-anchor="middle" x="329.5" y="-86.12" font-family="sans" font-size="10.00">plot_pca</text>
</g>
<!-- 4&#45;&gt;14 -->
<g id="edge15" class="edge">
<title>4&#45;&gt;14</title>
<path fill="none" stroke="grey" stroke-width="2" d="M308.57,-143.34C311.3,-136.51 314.5,-128.5 317.57,-120.83"/>
<polygon fill="grey" stroke="grey" stroke-width="2" points="320.75,-122.3 321.22,-111.71 314.25,-119.7 320.75,-122.3"/>
</g>
<!-- 5 -->
<g id="node6" class="node">
<title>5</title>
<path fill="none" stroke="#56d89a" stroke-width="2" stroke-dasharray="5,2" d="M217.62,-252C217.62,-252 133.38,-252 133.38,-252 127.38,-252 121.38,-246 121.38,-240 121.38,-240 121.38,-228 121.38,-228 121.38,-222 127.38,-216 133.38,-216 133.38,-216 217.62,-216 217.62,-216 223.62,-216 229.62,-222 229.62,-228 229.62,-228 229.62,-240 229.62,-240 229.62,-246 223.62,-252 217.62,-252"/>
<text text-anchor="middle" x="175.5" y="-230.12" font-family="sans" font-size="10.00">samtools_index_bam</text>
</g>
<!-- 5&#45;&gt;4 -->
<g id="edge6" class="edge">
<title>5&#45;&gt;4</title>
<path fill="none" stroke="grey" stroke-width="2" d="M207.62,-215.15C223.02,-206.6 241.7,-196.22 258.32,-186.99"/>
<polygon fill="grey" stroke="grey" stroke-width="2" points="259.75,-190.2 266.79,-182.28 256.35,-184.08 259.75,-190.2"/>
</g>
<!-- 6 -->
<g id="node7" class="node">
<title>6</title>
<path fill="none" stroke="#56d8d8" stroke-width="2" stroke-dasharray="5,2" d="M215.38,-324C215.38,-324 135.62,-324 135.62,-324 129.62,-324 123.62,-318 123.62,-312 123.62,-312 123.62,-300 123.62,-300 123.62,-294 129.62,-288 135.62,-288 135.62,-288 215.38,-288 215.38,-288 221.38,-288 227.38,-294 227.38,-300 227.38,-300 227.38,-312 227.38,-312 227.38,-318 221.38,-324 215.38,-324"/>
<text text-anchor="middle" x="175.5" y="-302.12" font-family="sans" font-size="10.00">samtools_sam2bam</text>
</g>
<!-- 6&#45;&gt;5 -->
<g id="edge9" class="edge">
<title>6&#45;&gt;5</title>
<path fill="none" stroke="grey" stroke-width="2" d="M175.5,-287.34C175.5,-280.75 175.5,-273.08 175.5,-265.67"/>
<polygon fill="grey" stroke="grey" stroke-width="2" points="179,-265.93 175.5,-255.93 172,-265.93 179,-265.93"/>
</g>
<!-- 7 -->
<g id="node8" class="node">
<title>7</title>
<path fill="none" stroke="#d89556" stroke-width="2" stroke-dasharray="5,2" d="M201.12,-396C201.12,-396 149.88,-396 149.88,-396 143.88,-396 137.88,-390 137.88,-384 137.88,-384 137.88,-372 137.88,-372 137.88,-366 143.88,-360 149.88,-360 149.88,-360 201.12,-360 201.12,-360 207.12,-360 213.12,-366 213.12,-372 213.12,-372 213.12,-384 213.12,-384 213.12,-390 207.12,-396 201.12,-396"/>
<text text-anchor="middle" x="175.5" y="-379.75" font-family="sans" font-size="10.00">bowtie2_align</text>
<text text-anchor="middle" x="175.5" y="-368.5" font-family="sans" font-size="10.00">sample: gut</text>
</g>
<!-- 7&#45;&gt;6 -->
<g id="edge10" class="edge">
<title>7&#45;&gt;6</title>
<path fill="none" stroke="grey" stroke-width="2" d="M175.5,-359.34C175.5,-352.75 175.5,-345.08 175.5,-337.67"/>
<polygon fill="grey" stroke="grey" stroke-width="2" points="179,-337.93 175.5,-327.93 172,-337.93 179,-337.93"/>
</g>
<!-- 8 -->
<g id="node9" class="node">
<title>8</title>
<path fill="none" stroke="#56d89a" stroke-width="2" stroke-dasharray="5,2" d="M343.62,-252C343.62,-252 259.38,-252 259.38,-252 253.38,-252 247.38,-246 247.38,-240 247.38,-240 247.38,-228 247.38,-228 247.38,-222 253.38,-216 259.38,-216 259.38,-216 343.62,-216 343.62,-216 349.62,-216 355.62,-222 355.62,-228 355.62,-228 355.62,-240 355.62,-240 355.62,-246 349.62,-252 343.62,-252"/>
<text text-anchor="middle" x="301.5" y="-230.12" font-family="sans" font-size="10.00">samtools_index_bam</text>
</g>
<!-- 8&#45;&gt;4 -->
<g id="edge7" class="edge">
<title>8&#45;&gt;4</title>
<path fill="none" stroke="grey" stroke-width="2" d="M301.5,-215.34C301.5,-208.75 301.5,-201.08 301.5,-193.67"/>
<polygon fill="grey" stroke="grey" stroke-width="2" points="305,-193.93 301.5,-183.93 298,-193.93 305,-193.93"/>
</g>
<!-- 9 -->
<g id="node10" class="node">
<title>9</title>
<path fill="none" stroke="#56d8d8" stroke-width="2" stroke-dasharray="5,2" d="M341.38,-324C341.38,-324 261.62,-324 261.62,-324 255.62,-324 249.62,-318 249.62,-312 249.62,-312 249.62,-300 249.62,-300 249.62,-294 255.62,-288 261.62,-288 261.62,-288 341.38,-288 341.38,-288 347.38,-288 353.38,-294 353.38,-300 353.38,-300 353.38,-312 353.38,-312 353.38,-318 347.38,-324 341.38,-324"/>
<text text-anchor="middle" x="301.5" y="-302.12" font-family="sans" font-size="10.00">samtools_sam2bam</text>
</g>
<!-- 9&#45;&gt;8 -->
<g id="edge11" class="edge">
<title>9&#45;&gt;8</title>
<path fill="none" stroke="grey" stroke-width="2" d="M301.5,-287.34C301.5,-280.75 301.5,-273.08 301.5,-265.67"/>
<polygon fill="grey" stroke="grey" stroke-width="2" points="305,-265.93 301.5,-255.93 298,-265.93 305,-265.93"/>
</g>
<!-- 10 -->
<g id="node11" class="node">
<title>10</title>
<path fill="none" stroke="#d89556" stroke-width="2" stroke-dasharray="5,2" d="M327.12,-396C327.12,-396 275.88,-396 275.88,-396 269.88,-396 263.88,-390 263.88,-384 263.88,-384 263.88,-372 263.88,-372 263.88,-366 269.88,-360 275.88,-360 275.88,-360 327.12,-360 327.12,-360 333.12,-360 339.12,-366 339.12,-372 339.12,-372 339.12,-384 339.12,-384 339.12,-390 333.12,-396 327.12,-396"/>
<text text-anchor="middle" x="301.5" y="-379.75" font-family="sans" font-size="10.00">bowtie2_align</text>
<text text-anchor="middle" x="301.5" y="-368.5" font-family="sans" font-size="10.00">sample: liver</text>
</g>
<!-- 10&#45;&gt;9 -->
<g id="edge12" class="edge">
<title>10&#45;&gt;9</title>
<path fill="none" stroke="grey" stroke-width="2" d="M301.5,-359.34C301.5,-352.75 301.5,-345.08 301.5,-337.67"/>
<polygon fill="grey" stroke="grey" stroke-width="2" points="305,-337.93 301.5,-327.93 298,-337.93 305,-337.93"/>
</g>
<!-- 11 -->
<g id="node12" class="node">
<title>11</title>
<path fill="none" stroke="#56d89a" stroke-width="2" stroke-dasharray="5,2" d="M469.62,-252C469.62,-252 385.38,-252 385.38,-252 379.38,-252 373.38,-246 373.38,-240 373.38,-240 373.38,-228 373.38,-228 373.38,-222 379.38,-216 385.38,-216 385.38,-216 469.62,-216 469.62,-216 475.62,-216 481.62,-222 481.62,-228 481.62,-228 481.62,-240 481.62,-240 481.62,-246 475.62,-252 469.62,-252"/>
<text text-anchor="middle" x="427.5" y="-230.12" font-family="sans" font-size="10.00">samtools_index_bam</text>
</g>
<!-- 11&#45;&gt;4 -->
<g id="edge8" class="edge">
<title>11&#45;&gt;4</title>
<path fill="none" stroke="grey" stroke-width="2" d="M395.38,-215.15C379.98,-206.6 361.3,-196.22 344.68,-186.99"/>
<polygon fill="grey" stroke="grey" stroke-width="2" points="346.65,-184.08 336.21,-182.28 343.25,-190.2 346.65,-184.08"/>
</g>
<!-- 12 -->
<g id="node13" class="node">
<title>12</title>
<path fill="none" stroke="#56d8d8" stroke-width="2" stroke-dasharray="5,2" d="M467.38,-324C467.38,-324 387.62,-324 387.62,-324 381.62,-324 375.62,-318 375.62,-312 375.62,-312 375.62,-300 375.62,-300 375.62,-294 381.62,-288 387.62,-288 387.62,-288 467.38,-288 467.38,-288 473.38,-288 479.38,-294 479.38,-300 479.38,-300 479.38,-312 479.38,-312 479.38,-318 473.38,-324 467.38,-324"/>
<text text-anchor="middle" x="427.5" y="-302.12" font-family="sans" font-size="10.00">samtools_sam2bam</text>
</g>
<!-- 12&#45;&gt;11 -->
<g id="edge13" class="edge">
<title>12&#45;&gt;11</title>
<path fill="none" stroke="grey" stroke-width="2" d="M427.5,-287.34C427.5,-280.75 427.5,-273.08 427.5,-265.67"/>
<polygon fill="grey" stroke="grey" stroke-width="2" points="431,-265.93 427.5,-255.93 424,-265.93 431,-265.93"/>
</g>
<!-- 13 -->
<g id="node14" class="node">
<title>13</title>
<path fill="none" stroke="#d89556" stroke-width="2" stroke-dasharray="5,2" d="M453.12,-396C453.12,-396 401.88,-396 401.88,-396 395.88,-396 389.88,-390 389.88,-384 389.88,-384 389.88,-372 389.88,-372 389.88,-366 395.88,-360 401.88,-360 401.88,-360 453.12,-360 453.12,-360 459.12,-360 465.12,-366 465.12,-372 465.12,-372 465.12,-384 465.12,-384 465.12,-390 459.12,-396 453.12,-396"/>
<text text-anchor="middle" x="427.5" y="-379.75" font-family="sans" font-size="10.00">bowtie2_align</text>
<text text-anchor="middle" x="427.5" y="-368.5" font-family="sans" font-size="10.00">sample: lung</text>
</g>
<!-- 13&#45;&gt;12 -->
<g id="edge14" class="edge">
<title>13&#45;&gt;12</title>
<path fill="none" stroke="grey" stroke-width="2" d="M427.5,-359.34C427.5,-352.75 427.5,-345.08 427.5,-337.67"/>
<polygon fill="grey" stroke="grey" stroke-width="2" points="431,-337.93 427.5,-327.93 424,-337.93 431,-337.93"/>
</g>
<!-- 14&#45;&gt;0 -->
<g id="edge5" class="edge">
<title>14&#45;&gt;0</title>
<path fill="none" stroke="grey" stroke-width="2" d="M301.6,-72.59C285.93,-63.37 266.15,-51.74 249.03,-41.66"/>
<polygon fill="grey" stroke="grey" stroke-width="2" points="251.23,-38.9 240.83,-36.84 247.68,-44.93 251.23,-38.9"/>
</g>
</g>
</svg>
