<?xml version="1.0" encoding="UTF-8" standalone="no"?>
<!DOCTYPE svg PUBLIC "-//W3C//DTD SVG 1.1//EN"
 "http://www.w3.org/Graphics/SVG/1.1/DTD/svg11.dtd">
<!-- Generated by graphviz version 12.2.1 (0)
 -->
<!-- Title: snakemake_dag Pages: 1 -->
<svg width="2071pt" height="692pt"
 viewBox="0.00 0.00 2071.25 692.00" xmlns="http://www.w3.org/2000/svg" xmlns:xlink="http://www.w3.org/1999/xlink">
<g id="graph0" class="graph" transform="scale(1 1) rotate(0) translate(4 688)">
<title>snakemake_dag</title>
<polygon fill="white" stroke="none" points="-4,4 -4,-688 2067.25,-688 2067.25,4 -4,4"/>
<!-- 0 -->
<g id="node1" class="node">
<title>0</title>
<path fill="none" stroke="#d85656" stroke-width="2" d="M842.88,-36C842.88,-36 812.88,-36 812.88,-36 806.88,-36 800.88,-30 800.88,-24 800.88,-24 800.88,-12 800.88,-12 800.88,-6 806.88,0 812.88,0 812.88,0 842.88,0 842.88,0 848.88,0 854.88,-6 854.88,-12 854.88,-12 854.88,-24 854.88,-24 854.88,-30 848.88,-36 842.88,-36"/>
<text text-anchor="middle" x="827.88" y="-14.12" font-family="sans" font-size="10.00">all</text>
</g>
<!-- 1 -->
<g id="node2" class="node">
<title>1</title>
<path fill="none" stroke="#5673d8" stroke-width="2" d="M1150.38,-324C1150.38,-324 1059.38,-324 1059.38,-324 1053.38,-324 1047.38,-318 1047.38,-312 1047.38,-312 1047.38,-300 1047.38,-300 1047.38,-294 1053.38,-288 1059.38,-288 1059.38,-288 1150.38,-288 1150.38,-288 1156.38,-288 1162.38,-294 1162.38,-300 1162.38,-300 1162.38,-312 1162.38,-312 1162.38,-318 1156.38,-324 1150.38,-324"/>
<text text-anchor="middle" x="1104.88" y="-302.12" font-family="sans" font-size="10.00">subread_featurecounts</text>
</g>
<!-- 1&#45;&gt;0 -->
<g id="edge1" class="edge">
<title>1&#45;&gt;0</title>
<path fill="none" stroke="grey" stroke-width="2" d="M1104.71,-287.31C1103.98,-268.89 1101.27,-239.49 1091.88,-216 1077.31,-179.59 1069.76,-170.52 1040.88,-144 987.92,-95.4 912.99,-56.85 867.57,-36.03"/>
<polygon fill="grey" stroke="grey" stroke-width="2" points="869.17,-32.91 858.62,-32 866.3,-39.29 869.17,-32.91"/>
</g>
<!-- 23 -->
<g id="node24" class="node">
<title>23</title>
<path fill="none" stroke="#97d856" stroke-width="2" d="M73.88,-252C73.88,-252 43.88,-252 43.88,-252 37.88,-252 31.88,-246 31.88,-240 31.88,-240 31.88,-228 31.88,-228 31.88,-222 37.88,-216 43.88,-216 43.88,-216 73.88,-216 73.88,-216 79.88,-216 85.88,-222 85.88,-228 85.88,-228 85.88,-240 85.88,-240 85.88,-246 79.88,-252 73.88,-252"/>
<text text-anchor="middle" x="58.88" y="-230.12" font-family="sans" font-size="10.00">plot_pca</text>
</g>
<!-- 1&#45;&gt;23 -->
<g id="edge32" class="edge">
<title>1&#45;&gt;23</title>
<path fill="none" stroke="grey" stroke-width="2" d="M1046.43,-294.43C1031.31,-292 1015.02,-289.65 999.88,-288 652.67,-250.22 230.28,-238.6 99.45,-235.77"/>
<polygon fill="grey" stroke="grey" stroke-width="2" points="99.77,-232.28 89.7,-235.57 99.63,-239.28 99.77,-232.28"/>
</g>
<!-- 2 -->
<g id="node3" class="node">
<title>2</title>
<path fill="none" stroke="#568ad8" stroke-width="2" d="M478.62,-468C478.62,-468 401.12,-468 401.12,-468 395.12,-468 389.12,-462 389.12,-456 389.12,-456 389.12,-444 389.12,-444 389.12,-438 395.12,-432 401.12,-432 401.12,-432 478.62,-432 478.62,-432 484.62,-432 490.62,-438 490.62,-444 490.62,-444 490.62,-456 490.62,-456 490.62,-462 484.62,-468 478.62,-468"/>
<text text-anchor="middle" x="439.88" y="-446.12" font-family="sans" font-size="10.00">samtools_sort_bam</text>
</g>
<!-- 2&#45;&gt;1 -->
<g id="edge4" class="edge">
<title>2&#45;&gt;1</title>
<path fill="none" stroke="grey" stroke-width="2" d="M491.36,-446.26C638.72,-438.21 1053.04,-414.07 1075.88,-396 1093.37,-382.15 1100.44,-357.55 1103.24,-337.72"/>
<polygon fill="grey" stroke="grey" stroke-width="2" points="1106.7,-338.26 1104.25,-327.96 1099.74,-337.54 1106.7,-338.26"/>
</g>
<!-- 19 -->
<g id="node20" class="node">
<title>19</title>
<path fill="none" stroke="#56b9d8" stroke-width="2" d="M523,-396C523,-396 438.75,-396 438.75,-396 432.75,-396 426.75,-390 426.75,-384 426.75,-384 426.75,-372 426.75,-372 426.75,-366 432.75,-360 438.75,-360 438.75,-360 523,-360 523,-360 529,-360 535,-366 535,-372 535,-372 535,-384 535,-384 535,-390 529,-396 523,-396"/>
<text text-anchor="middle" x="480.88" y="-374.12" font-family="sans" font-size="10.00">samtools_index_bam</text>
</g>
<!-- 2&#45;&gt;19 -->
<g id="edge28" class="edge">
<title>2&#45;&gt;19</title>
<path fill="none" stroke="grey" stroke-width="2" d="M450.22,-431.34C454.37,-424.26 459.25,-415.92 463.89,-408"/>
<polygon fill="grey" stroke="grey" stroke-width="2" points="466.83,-409.91 468.86,-399.51 460.79,-406.37 466.83,-409.91"/>
</g>
<!-- 34 -->
<g id="node35" class="node">
<title>34</title>
<path fill="none" stroke="#56d8c9" stroke-width="2" d="M636.12,-180C636.12,-180 561.62,-180 561.62,-180 555.62,-180 549.62,-174 549.62,-168 549.62,-168 549.62,-156 549.62,-156 549.62,-150 555.62,-144 561.62,-144 561.62,-144 636.12,-144 636.12,-144 642.12,-144 648.12,-150 648.12,-156 648.12,-156 648.12,-168 648.12,-168 648.12,-174 642.12,-180 636.12,-180"/>
<text text-anchor="middle" x="598.88" y="-158.12" font-family="sans" font-size="10.00">samtools_flagstats</text>
</g>
<!-- 2&#45;&gt;34 -->
<g id="edge59" class="edge">
<title>2&#45;&gt;34</title>
<path fill="none" stroke="grey" stroke-width="2" d="M397.85,-431.19C338.55,-403.44 241.77,-346.92 281.88,-288 296.9,-265.92 448.43,-212.8 536.43,-183.41"/>
<polygon fill="grey" stroke="grey" stroke-width="2" points="537.41,-186.78 545.8,-180.3 535.2,-180.13 537.41,-186.78"/>
</g>
<!-- 38 -->
<g id="node39" class="node">
<title>38</title>
<path fill="none" stroke="#56d0d8" stroke-width="2" d="M374.62,-324C374.62,-324 303.12,-324 303.12,-324 297.12,-324 291.12,-318 291.12,-312 291.12,-312 291.12,-300 291.12,-300 291.12,-294 297.12,-288 303.12,-288 303.12,-288 374.62,-288 374.62,-288 380.62,-288 386.62,-294 386.62,-300 386.62,-300 386.62,-312 386.62,-312 386.62,-318 380.62,-324 374.62,-324"/>
<text text-anchor="middle" x="338.88" y="-302.12" font-family="sans" font-size="10.00">samtools_idxstats</text>
</g>
<!-- 2&#45;&gt;38 -->
<g id="edge63" class="edge">
<title>2&#45;&gt;38</title>
<path fill="none" stroke="grey" stroke-width="2" d="M427.08,-431.02C409.93,-406.9 379.3,-363.83 359.03,-335.34"/>
<polygon fill="grey" stroke="grey" stroke-width="2" points="361.97,-333.43 353.32,-327.31 356.26,-337.48 361.97,-333.43"/>
</g>
<!-- 42 -->
<g id="node43" class="node">
<title>42</title>
<path fill="none" stroke="#78d856" stroke-width="2" d="M482.62,-324C482.62,-324 417.12,-324 417.12,-324 411.12,-324 405.12,-318 405.12,-312 405.12,-312 405.12,-300 405.12,-300 405.12,-294 411.12,-288 417.12,-288 417.12,-288 482.62,-288 482.62,-288 488.62,-288 494.62,-294 494.62,-300 494.62,-300 494.62,-312 494.62,-312 494.62,-318 488.62,-324 482.62,-324"/>
<text text-anchor="middle" x="449.88" y="-302.12" font-family="sans" font-size="10.00">qualimap_bamqc</text>
</g>
<!-- 2&#45;&gt;42 -->
<g id="edge71" class="edge">
<title>2&#45;&gt;42</title>
<path fill="none" stroke="grey" stroke-width="2" d="M430.03,-431.19C421.34,-413.17 411.04,-384.53 417.88,-360 420.21,-351.61 424.27,-343.22 428.74,-335.68"/>
<polygon fill="grey" stroke="grey" stroke-width="2" points="431.52,-337.82 434,-327.52 425.64,-334.02 431.52,-337.82"/>
</g>
<!-- 48 -->
<g id="node49" class="node">
<title>48</title>
<path fill="none" stroke="#56d8a9" stroke-width="2" d="M600.88,-324C600.88,-324 524.88,-324 524.88,-324 518.88,-324 512.88,-318 512.88,-312 512.88,-312 512.88,-300 512.88,-300 512.88,-294 518.88,-288 524.88,-288 524.88,-288 600.88,-288 600.88,-288 606.88,-288 612.88,-294 612.88,-300 612.88,-300 612.88,-312 612.88,-312 612.88,-318 606.88,-324 600.88,-324"/>
<text text-anchor="middle" x="562.88" y="-302.12" font-family="sans" font-size="10.00">qualimap_rnaseqqc</text>
</g>
<!-- 2&#45;&gt;48 -->
<g id="edge85" class="edge">
<title>2&#45;&gt;48</title>
<path fill="none" stroke="grey" stroke-width="2" d="M491.4,-433.4C510.52,-425.16 530.73,-413.12 543.88,-396 556.59,-379.44 561.24,-356.27 562.77,-337.72"/>
<polygon fill="grey" stroke="grey" stroke-width="2" points="566.25,-338.09 563.25,-327.93 559.26,-337.74 566.25,-338.09"/>
</g>
<!-- 3 -->
<g id="node4" class="node">
<title>3</title>
<path fill="none" stroke="#56a2d8" stroke-width="2" d="M479.75,-540C479.75,-540 400,-540 400,-540 394,-540 388,-534 388,-528 388,-528 388,-516 388,-516 388,-510 394,-504 400,-504 400,-504 479.75,-504 479.75,-504 485.75,-504 491.75,-510 491.75,-516 491.75,-516 491.75,-528 491.75,-528 491.75,-534 485.75,-540 479.75,-540"/>
<text text-anchor="middle" x="439.88" y="-518.12" font-family="sans" font-size="10.00">samtools_sam2bam</text>
</g>
<!-- 3&#45;&gt;2 -->
<g id="edge12" class="edge">
<title>3&#45;&gt;2</title>
<path fill="none" stroke="grey" stroke-width="2" d="M439.88,-503.34C439.88,-496.75 439.88,-489.08 439.88,-481.67"/>
<polygon fill="grey" stroke="grey" stroke-width="2" points="443.38,-481.93 439.88,-471.93 436.38,-481.93 443.38,-481.93"/>
</g>
<!-- 4 -->
<g id="node5" class="node">
<title>4</title>
<path fill="none" stroke="#d8bc56" stroke-width="2" d="M461.75,-612C461.75,-612 418,-612 418,-612 412,-612 406,-606 406,-600 406,-600 406,-588 406,-588 406,-582 412,-576 418,-576 418,-576 461.75,-576 461.75,-576 467.75,-576 473.75,-582 473.75,-588 473.75,-588 473.75,-600 473.75,-600 473.75,-606 467.75,-612 461.75,-612"/>
<text text-anchor="middle" x="439.88" y="-590.12" font-family="sans" font-size="10.00">hisat2_align</text>
</g>
<!-- 4&#45;&gt;3 -->
<g id="edge13" class="edge">
<title>4&#45;&gt;3</title>
<path fill="none" stroke="grey" stroke-width="2" d="M439.88,-575.34C439.88,-568.75 439.88,-561.08 439.88,-553.67"/>
<polygon fill="grey" stroke="grey" stroke-width="2" points="443.38,-553.93 439.88,-543.93 436.38,-553.93 443.38,-553.93"/>
</g>
<!-- 5 -->
<g id="node6" class="node">
<title>5</title>
<path fill="none" stroke="#d86e56" stroke-width="2" stroke-dasharray="5,2" d="M419,-684C419,-684 364.75,-684 364.75,-684 358.75,-684 352.75,-678 352.75,-672 352.75,-672 352.75,-660 352.75,-660 352.75,-654 358.75,-648 364.75,-648 364.75,-648 419,-648 419,-648 425,-648 431,-654 431,-660 431,-660 431,-672 431,-672 431,-678 425,-684 419,-684"/>
<text text-anchor="middle" x="391.88" y="-667.75" font-family="sans" font-size="10.00">fastp_trim</text>
<text text-anchor="middle" x="391.88" y="-656.5" font-family="sans" font-size="10.00">sample: KO_1</text>
</g>
<!-- 5&#45;&gt;4 -->
<g id="edge14" class="edge">
<title>5&#45;&gt;4</title>
<path fill="none" stroke="grey" stroke-width="2" d="M403.99,-647.34C408.95,-640.1 414.82,-631.53 420.37,-623.45"/>
<polygon fill="grey" stroke="grey" stroke-width="2" points="423.12,-625.62 425.89,-615.4 417.35,-621.67 423.12,-625.62"/>
</g>
<!-- 30 -->
<g id="node31" class="node">
<title>30</title>
<path fill="none" stroke="#d88556" stroke-width="2" d="M253.25,-468C253.25,-468 188.5,-468 188.5,-468 182.5,-468 176.5,-462 176.5,-456 176.5,-456 176.5,-444 176.5,-444 176.5,-438 182.5,-432 188.5,-432 188.5,-432 253.25,-432 253.25,-432 259.25,-432 265.25,-438 265.25,-444 265.25,-444 265.25,-456 265.25,-456 265.25,-462 259.25,-468 253.25,-468"/>
<text text-anchor="middle" x="220.88" y="-446.12" font-family="sans" font-size="10.00">fastqc_post_trim</text>
</g>
<!-- 5&#45;&gt;30 -->
<g id="edge55" class="edge">
<title>5&#45;&gt;30</title>
<path fill="none" stroke="grey" stroke-width="2" d="M377.59,-647.12C347.85,-609.91 279.11,-523.87 243.37,-479.15"/>
<polygon fill="grey" stroke="grey" stroke-width="2" points="246.11,-476.97 237.13,-471.34 240.64,-481.34 246.11,-476.97"/>
</g>
<!-- 6 -->
<g id="node7" class="node">
<title>6</title>
<path fill="none" stroke="#d8d356" stroke-width="2" d="M1042.5,-684C1042.5,-684 961.25,-684 961.25,-684 955.25,-684 949.25,-678 949.25,-672 949.25,-672 949.25,-660 949.25,-660 949.25,-654 955.25,-648 961.25,-648 961.25,-648 1042.5,-648 1042.5,-648 1048.5,-648 1054.5,-654 1054.5,-660 1054.5,-660 1054.5,-672 1054.5,-672 1054.5,-678 1048.5,-684 1042.5,-684"/>
<text text-anchor="middle" x="1001.88" y="-662.12" font-family="sans" font-size="10.00">hisat_index_genome</text>
</g>
<!-- 6&#45;&gt;4 -->
<g id="edge15" class="edge">
<title>6&#45;&gt;4</title>
<path fill="none" stroke="grey" stroke-width="2" d="M948.5,-658.35C839.17,-644.73 591.34,-613.87 487.28,-600.9"/>
<polygon fill="grey" stroke="grey" stroke-width="2" points="487.81,-597.44 477.45,-599.68 486.94,-604.39 487.81,-597.44"/>
</g>
<!-- 9 -->
<g id="node10" class="node">
<title>9</title>
<path fill="none" stroke="#d8bc56" stroke-width="2" d="M1735.75,-612C1735.75,-612 1692,-612 1692,-612 1686,-612 1680,-606 1680,-600 1680,-600 1680,-588 1680,-588 1680,-582 1686,-576 1692,-576 1692,-576 1735.75,-576 1735.75,-576 1741.75,-576 1747.75,-582 1747.75,-588 1747.75,-588 1747.75,-600 1747.75,-600 1747.75,-606 1741.75,-612 1735.75,-612"/>
<text text-anchor="middle" x="1713.88" y="-590.12" font-family="sans" font-size="10.00">hisat2_align</text>
</g>
<!-- 6&#45;&gt;9 -->
<g id="edge19" class="edge">
<title>6&#45;&gt;9</title>
<path fill="none" stroke="grey" stroke-width="2" d="M1055.39,-659.74C1189.7,-646.53 1539.37,-612.16 1666.66,-599.64"/>
<polygon fill="grey" stroke="grey" stroke-width="2" points="1666.69,-603.16 1676.3,-598.69 1666.01,-596.19 1666.69,-603.16"/>
</g>
<!-- 13 -->
<g id="node14" class="node">
<title>13</title>
<path fill="none" stroke="#d8bc56" stroke-width="2" d="M921.75,-612C921.75,-612 878,-612 878,-612 872,-612 866,-606 866,-600 866,-600 866,-588 866,-588 866,-582 872,-576 878,-576 878,-576 921.75,-576 921.75,-576 927.75,-576 933.75,-582 933.75,-588 933.75,-588 933.75,-600 933.75,-600 933.75,-606 927.75,-612 921.75,-612"/>
<text text-anchor="middle" x="899.88" y="-590.12" font-family="sans" font-size="10.00">hisat2_align</text>
</g>
<!-- 6&#45;&gt;13 -->
<g id="edge23" class="edge">
<title>6&#45;&gt;13</title>
<path fill="none" stroke="grey" stroke-width="2" d="M975.87,-647.15C963.88,-638.93 949.45,-629.02 936.39,-620.06"/>
<polygon fill="grey" stroke="grey" stroke-width="2" points="938.55,-617.3 928.33,-614.53 934.59,-623.07 938.55,-617.3"/>
</g>
<!-- 17 -->
<g id="node18" class="node">
<title>17</title>
<path fill="none" stroke="#d8bc56" stroke-width="2" d="M1400.75,-612C1400.75,-612 1357,-612 1357,-612 1351,-612 1345,-606 1345,-600 1345,-600 1345,-588 1345,-588 1345,-582 1351,-576 1357,-576 1357,-576 1400.75,-576 1400.75,-576 1406.75,-576 1412.75,-582 1412.75,-588 1412.75,-588 1412.75,-600 1412.75,-600 1412.75,-606 1406.75,-612 1400.75,-612"/>
<text text-anchor="middle" x="1378.88" y="-590.12" font-family="sans" font-size="10.00">hisat2_align</text>
</g>
<!-- 6&#45;&gt;17 -->
<g id="edge27" class="edge">
<title>6&#45;&gt;17</title>
<path fill="none" stroke="grey" stroke-width="2" d="M1055.49,-655.05C1129.36,-641.33 1261.27,-616.84 1331.62,-603.77"/>
<polygon fill="grey" stroke="grey" stroke-width="2" points="1331.85,-607.29 1341.04,-602.03 1330.57,-600.41 1331.85,-607.29"/>
</g>
<!-- 7 -->
<g id="node8" class="node">
<title>7</title>
<path fill="none" stroke="#568ad8" stroke-width="2" d="M1752.62,-468C1752.62,-468 1675.12,-468 1675.12,-468 1669.12,-468 1663.12,-462 1663.12,-456 1663.12,-456 1663.12,-444 1663.12,-444 1663.12,-438 1669.12,-432 1675.12,-432 1675.12,-432 1752.62,-432 1752.62,-432 1758.62,-432 1764.62,-438 1764.62,-444 1764.62,-444 1764.62,-456 1764.62,-456 1764.62,-462 1758.62,-468 1752.62,-468"/>
<text text-anchor="middle" x="1713.88" y="-446.12" font-family="sans" font-size="10.00">samtools_sort_bam</text>
</g>
<!-- 7&#45;&gt;1 -->
<g id="edge5" class="edge">
<title>7&#45;&gt;1</title>
<path fill="none" stroke="grey" stroke-width="2" d="M1662.32,-446.38C1561.84,-440.7 1343.64,-425.31 1274.88,-396 1251.63,-386.09 1252.52,-373.03 1230.88,-360 1211.59,-348.39 1189.3,-338.11 1168.88,-329.76"/>
<polygon fill="grey" stroke="grey" stroke-width="2" points="1170.17,-326.51 1159.59,-326.07 1167.59,-333.02 1170.17,-326.51"/>
</g>
<!-- 20 -->
<g id="node21" class="node">
<title>20</title>
<path fill="none" stroke="#56b9d8" stroke-width="2" d="M1715,-396C1715,-396 1630.75,-396 1630.75,-396 1624.75,-396 1618.75,-390 1618.75,-384 1618.75,-384 1618.75,-372 1618.75,-372 1618.75,-366 1624.75,-360 1630.75,-360 1630.75,-360 1715,-360 1715,-360 1721,-360 1727,-366 1727,-372 1727,-372 1727,-384 1727,-384 1727,-390 1721,-396 1715,-396"/>
<text text-anchor="middle" x="1672.88" y="-374.12" font-family="sans" font-size="10.00">samtools_index_bam</text>
</g>
<!-- 7&#45;&gt;20 -->
<g id="edge29" class="edge">
<title>7&#45;&gt;20</title>
<path fill="none" stroke="grey" stroke-width="2" d="M1703.53,-431.34C1699.38,-424.26 1694.5,-415.92 1689.86,-408"/>
<polygon fill="grey" stroke="grey" stroke-width="2" points="1692.96,-406.37 1684.89,-399.51 1686.92,-409.91 1692.96,-406.37"/>
</g>
<!-- 35 -->
<g id="node36" class="node">
<title>35</title>
<path fill="none" stroke="#56d8c9" stroke-width="2" d="M1907.12,-396C1907.12,-396 1832.62,-396 1832.62,-396 1826.62,-396 1820.62,-390 1820.62,-384 1820.62,-384 1820.62,-372 1820.62,-372 1820.62,-366 1826.62,-360 1832.62,-360 1832.62,-360 1907.12,-360 1907.12,-360 1913.12,-360 1919.12,-366 1919.12,-372 1919.12,-372 1919.12,-384 1919.12,-384 1919.12,-390 1913.12,-396 1907.12,-396"/>
<text text-anchor="middle" x="1869.88" y="-374.12" font-family="sans" font-size="10.00">samtools_flagstats</text>
</g>
<!-- 7&#45;&gt;35 -->
<g id="edge60" class="edge">
<title>7&#45;&gt;35</title>
<path fill="none" stroke="grey" stroke-width="2" d="M1753.64,-431.15C1773.28,-422.34 1797.21,-411.61 1818.24,-402.17"/>
<polygon fill="grey" stroke="grey" stroke-width="2" points="1819.46,-405.46 1827.15,-398.17 1816.59,-399.07 1819.46,-405.46"/>
</g>
<!-- 39 -->
<g id="node40" class="node">
<title>39</title>
<path fill="none" stroke="#56d0d8" stroke-width="2" d="M1760.62,-324C1760.62,-324 1689.12,-324 1689.12,-324 1683.12,-324 1677.12,-318 1677.12,-312 1677.12,-312 1677.12,-300 1677.12,-300 1677.12,-294 1683.12,-288 1689.12,-288 1689.12,-288 1760.62,-288 1760.62,-288 1766.62,-288 1772.62,-294 1772.62,-300 1772.62,-300 1772.62,-312 1772.62,-312 1772.62,-318 1766.62,-324 1760.62,-324"/>
<text text-anchor="middle" x="1724.88" y="-302.12" font-family="sans" font-size="10.00">samtools_idxstats</text>
</g>
<!-- 7&#45;&gt;39 -->
<g id="edge65" class="edge">
<title>7&#45;&gt;39</title>
<path fill="none" stroke="grey" stroke-width="2" d="M1723.23,-431.4C1728.05,-421.34 1733.42,-408.31 1735.88,-396 1739.74,-376.63 1737.07,-354.6 1733.39,-337.3"/>
<polygon fill="grey" stroke="grey" stroke-width="2" points="1736.85,-336.71 1731.12,-327.8 1730.04,-338.34 1736.85,-336.71"/>
</g>
<!-- 43 -->
<g id="node44" class="node">
<title>43</title>
<path fill="none" stroke="#78d856" stroke-width="2" d="M1868.62,-324C1868.62,-324 1803.12,-324 1803.12,-324 1797.12,-324 1791.12,-318 1791.12,-312 1791.12,-312 1791.12,-300 1791.12,-300 1791.12,-294 1797.12,-288 1803.12,-288 1803.12,-288 1868.62,-288 1868.62,-288 1874.62,-288 1880.62,-294 1880.62,-300 1880.62,-300 1880.62,-312 1880.62,-312 1880.62,-318 1874.62,-324 1868.62,-324"/>
<text text-anchor="middle" x="1835.88" y="-302.12" font-family="sans" font-size="10.00">qualimap_bamqc</text>
</g>
<!-- 7&#45;&gt;43 -->
<g id="edge73" class="edge">
<title>7&#45;&gt;43</title>
<path fill="none" stroke="grey" stroke-width="2" d="M1729.33,-431.02C1750.23,-406.69 1787.7,-363.07 1812.18,-334.58"/>
<polygon fill="grey" stroke="grey" stroke-width="2" points="1814.71,-337 1818.58,-327.13 1809.4,-332.44 1814.71,-337"/>
</g>
<!-- 49 -->
<g id="node50" class="node">
<title>49</title>
<path fill="none" stroke="#56d8a9" stroke-width="2" d="M1646.88,-324C1646.88,-324 1570.88,-324 1570.88,-324 1564.88,-324 1558.88,-318 1558.88,-312 1558.88,-312 1558.88,-300 1558.88,-300 1558.88,-294 1564.88,-288 1570.88,-288 1570.88,-288 1646.88,-288 1646.88,-288 1652.88,-288 1658.88,-294 1658.88,-300 1658.88,-300 1658.88,-312 1658.88,-312 1658.88,-318 1652.88,-324 1646.88,-324"/>
<text text-anchor="middle" x="1608.88" y="-302.12" font-family="sans" font-size="10.00">qualimap_rnaseqqc</text>
</g>
<!-- 7&#45;&gt;49 -->
<g id="edge87" class="edge">
<title>7&#45;&gt;49</title>
<path fill="none" stroke="grey" stroke-width="2" d="M1662.17,-435.32C1642.29,-427.28 1621.57,-414.86 1609.88,-396 1599.18,-378.76 1599.19,-355.78 1601.74,-337.5"/>
<polygon fill="grey" stroke="grey" stroke-width="2" points="1605.15,-338.32 1603.46,-327.86 1598.26,-337.09 1605.15,-338.32"/>
</g>
<!-- 8 -->
<g id="node9" class="node">
<title>8</title>
<path fill="none" stroke="#56a2d8" stroke-width="2" d="M1753.75,-540C1753.75,-540 1674,-540 1674,-540 1668,-540 1662,-534 1662,-528 1662,-528 1662,-516 1662,-516 1662,-510 1668,-504 1674,-504 1674,-504 1753.75,-504 1753.75,-504 1759.75,-504 1765.75,-510 1765.75,-516 1765.75,-516 1765.75,-528 1765.75,-528 1765.75,-534 1759.75,-540 1753.75,-540"/>
<text text-anchor="middle" x="1713.88" y="-518.12" font-family="sans" font-size="10.00">samtools_sam2bam</text>
</g>
<!-- 8&#45;&gt;7 -->
<g id="edge16" class="edge">
<title>8&#45;&gt;7</title>
<path fill="none" stroke="grey" stroke-width="2" d="M1713.88,-503.34C1713.88,-496.75 1713.88,-489.08 1713.88,-481.67"/>
<polygon fill="grey" stroke="grey" stroke-width="2" points="1717.38,-481.93 1713.88,-471.93 1710.38,-481.93 1717.38,-481.93"/>
</g>
<!-- 9&#45;&gt;8 -->
<g id="edge17" class="edge">
<title>9&#45;&gt;8</title>
<path fill="none" stroke="grey" stroke-width="2" d="M1713.88,-575.34C1713.88,-568.75 1713.88,-561.08 1713.88,-553.67"/>
<polygon fill="grey" stroke="grey" stroke-width="2" points="1717.38,-553.93 1713.88,-543.93 1710.38,-553.93 1717.38,-553.93"/>
</g>
<!-- 10 -->
<g id="node11" class="node">
<title>10</title>
<path fill="none" stroke="#d86e56" stroke-width="2" d="M1856,-684C1856,-684 1801.75,-684 1801.75,-684 1795.75,-684 1789.75,-678 1789.75,-672 1789.75,-672 1789.75,-660 1789.75,-660 1789.75,-654 1795.75,-648 1801.75,-648 1801.75,-648 1856,-648 1856,-648 1862,-648 1868,-654 1868,-660 1868,-660 1868,-672 1868,-672 1868,-678 1862,-684 1856,-684"/>
<text text-anchor="middle" x="1828.88" y="-667.75" font-family="sans" font-size="10.00">fastp_trim</text>
<text text-anchor="middle" x="1828.88" y="-656.5" font-family="sans" font-size="10.00">sample: KO_2</text>
</g>
<!-- 10&#45;&gt;9 -->
<g id="edge18" class="edge">
<title>10&#45;&gt;9</title>
<path fill="none" stroke="grey" stroke-width="2" d="M1799.56,-647.15C1785.77,-638.76 1769.11,-628.62 1754.16,-619.52"/>
<polygon fill="grey" stroke="grey" stroke-width="2" points="1756.09,-616.6 1745.72,-614.39 1752.45,-622.58 1756.09,-616.6"/>
</g>
<!-- 31 -->
<g id="node32" class="node">
<title>31</title>
<path fill="none" stroke="#d88556" stroke-width="2" d="M2051.25,-252C2051.25,-252 1986.5,-252 1986.5,-252 1980.5,-252 1974.5,-246 1974.5,-240 1974.5,-240 1974.5,-228 1974.5,-228 1974.5,-222 1980.5,-216 1986.5,-216 1986.5,-216 2051.25,-216 2051.25,-216 2057.25,-216 2063.25,-222 2063.25,-228 2063.25,-228 2063.25,-240 2063.25,-240 2063.25,-246 2057.25,-252 2051.25,-252"/>
<text text-anchor="middle" x="2018.88" y="-230.12" font-family="sans" font-size="10.00">fastqc_post_trim</text>
</g>
<!-- 10&#45;&gt;31 -->
<g id="edge56" class="edge">
<title>10&#45;&gt;31</title>
<path fill="none" stroke="grey" stroke-width="2" d="M1869,-652.1C1920.11,-632.86 2001.88,-591.39 2001.88,-523 2001.88,-523 2001.88,-523 2001.88,-377 2001.88,-338.38 2008.15,-294.27 2013.08,-265.59"/>
<polygon fill="grey" stroke="grey" stroke-width="2" points="2016.51,-266.29 2014.82,-255.83 2009.62,-265.06 2016.51,-266.29"/>
</g>
<!-- 11 -->
<g id="node12" class="node">
<title>11</title>
<path fill="none" stroke="#568ad8" stroke-width="2" d="M938.62,-468C938.62,-468 861.12,-468 861.12,-468 855.12,-468 849.12,-462 849.12,-456 849.12,-456 849.12,-444 849.12,-444 849.12,-438 855.12,-432 861.12,-432 861.12,-432 938.62,-432 938.62,-432 944.62,-432 950.62,-438 950.62,-444 950.62,-444 950.62,-456 950.62,-456 950.62,-462 944.62,-468 938.62,-468"/>
<text text-anchor="middle" x="899.88" y="-446.12" font-family="sans" font-size="10.00">samtools_sort_bam</text>
</g>
<!-- 11&#45;&gt;1 -->
<g id="edge6" class="edge">
<title>11&#45;&gt;1</title>
<path fill="none" stroke="grey" stroke-width="2" d="M951.13,-443.18C1006.59,-435.71 1089.68,-420.67 1108.88,-396 1121.62,-379.61 1119.9,-355.94 1115.38,-337.13"/>
<polygon fill="grey" stroke="grey" stroke-width="2" points="1118.79,-336.32 1112.69,-327.66 1112.06,-338.24 1118.79,-336.32"/>
</g>
<!-- 21 -->
<g id="node22" class="node">
<title>21</title>
<path fill="none" stroke="#56b9d8" stroke-width="2" d="M901,-396C901,-396 816.75,-396 816.75,-396 810.75,-396 804.75,-390 804.75,-384 804.75,-384 804.75,-372 804.75,-372 804.75,-366 810.75,-360 816.75,-360 816.75,-360 901,-360 901,-360 907,-360 913,-366 913,-372 913,-372 913,-384 913,-384 913,-390 907,-396 901,-396"/>
<text text-anchor="middle" x="858.88" y="-374.12" font-family="sans" font-size="10.00">samtools_index_bam</text>
</g>
<!-- 11&#45;&gt;21 -->
<g id="edge30" class="edge">
<title>11&#45;&gt;21</title>
<path fill="none" stroke="grey" stroke-width="2" d="M889.53,-431.34C885.38,-424.26 880.5,-415.92 875.86,-408"/>
<polygon fill="grey" stroke="grey" stroke-width="2" points="878.96,-406.37 870.89,-399.51 872.92,-409.91 878.96,-406.37"/>
</g>
<!-- 36 -->
<g id="node37" class="node">
<title>36</title>
<path fill="none" stroke="#56d8c9" stroke-width="2" d="M1055.12,-396C1055.12,-396 980.62,-396 980.62,-396 974.62,-396 968.62,-390 968.62,-384 968.62,-384 968.62,-372 968.62,-372 968.62,-366 974.62,-360 980.62,-360 980.62,-360 1055.12,-360 1055.12,-360 1061.12,-360 1067.12,-366 1067.12,-372 1067.12,-372 1067.12,-384 1067.12,-384 1067.12,-390 1061.12,-396 1055.12,-396"/>
<text text-anchor="middle" x="1017.88" y="-374.12" font-family="sans" font-size="10.00">samtools_flagstats</text>
</g>
<!-- 11&#45;&gt;36 -->
<g id="edge61" class="edge">
<title>11&#45;&gt;36</title>
<path fill="none" stroke="grey" stroke-width="2" d="M929.96,-431.15C944.24,-422.68 961.53,-412.42 976.99,-403.25"/>
<polygon fill="grey" stroke="grey" stroke-width="2" points="978.43,-406.47 985.24,-398.36 974.86,-400.45 978.43,-406.47"/>
</g>
<!-- 40 -->
<g id="node41" class="node">
<title>40</title>
<path fill="none" stroke="#56d0d8" stroke-width="2" d="M752.62,-324C752.62,-324 681.12,-324 681.12,-324 675.12,-324 669.12,-318 669.12,-312 669.12,-312 669.12,-300 669.12,-300 669.12,-294 675.12,-288 681.12,-288 681.12,-288 752.62,-288 752.62,-288 758.62,-288 764.62,-294 764.62,-300 764.62,-300 764.62,-312 764.62,-312 764.62,-318 758.62,-324 752.62,-324"/>
<text text-anchor="middle" x="716.88" y="-302.12" font-family="sans" font-size="10.00">samtools_idxstats</text>
</g>
<!-- 11&#45;&gt;40 -->
<g id="edge67" class="edge">
<title>11&#45;&gt;40</title>
<path fill="none" stroke="grey" stroke-width="2" d="M848.9,-431.06C828.38,-422.38 805.28,-410.63 786.88,-396 765.62,-379.11 746.92,-354.54 734.21,-335.49"/>
<polygon fill="grey" stroke="grey" stroke-width="2" points="737.28,-333.79 728.92,-327.28 731.4,-337.58 737.28,-333.79"/>
</g>
<!-- 44 -->
<g id="node45" class="node">
<title>44</title>
<path fill="none" stroke="#78d856" stroke-width="2" d="M860.62,-324C860.62,-324 795.12,-324 795.12,-324 789.12,-324 783.12,-318 783.12,-312 783.12,-312 783.12,-300 783.12,-300 783.12,-294 789.12,-288 795.12,-288 795.12,-288 860.62,-288 860.62,-288 866.62,-288 872.62,-294 872.62,-300 872.62,-300 872.62,-312 872.62,-312 872.62,-318 866.62,-324 860.62,-324"/>
<text text-anchor="middle" x="827.88" y="-302.12" font-family="sans" font-size="10.00">qualimap_bamqc</text>
</g>
<!-- 11&#45;&gt;44 -->
<g id="edge75" class="edge">
<title>11&#45;&gt;44</title>
<path fill="none" stroke="grey" stroke-width="2" d="M848.34,-435.49C828.36,-427.47 807.52,-415.01 795.88,-396 784.29,-377.1 793.82,-353.39 805.42,-335.19"/>
<polygon fill="grey" stroke="grey" stroke-width="2" points="808.17,-337.36 811.01,-327.15 802.43,-333.37 808.17,-337.36"/>
</g>
<!-- 50 -->
<g id="node51" class="node">
<title>50</title>
<path fill="none" stroke="#56d8a9" stroke-width="2" d="M978.88,-324C978.88,-324 902.88,-324 902.88,-324 896.88,-324 890.88,-318 890.88,-312 890.88,-312 890.88,-300 890.88,-300 890.88,-294 896.88,-288 902.88,-288 902.88,-288 978.88,-288 978.88,-288 984.88,-288 990.88,-294 990.88,-300 990.88,-300 990.88,-312 990.88,-312 990.88,-318 984.88,-324 978.88,-324"/>
<text text-anchor="middle" x="940.88" y="-302.12" font-family="sans" font-size="10.00">qualimap_rnaseqqc</text>
</g>
<!-- 11&#45;&gt;50 -->
<g id="edge89" class="edge">
<title>11&#45;&gt;50</title>
<path fill="none" stroke="grey" stroke-width="2" d="M908.25,-431.15C912.75,-421.01 918.14,-407.99 921.88,-396 927.81,-376.96 932.51,-355.05 935.75,-337.74"/>
<polygon fill="grey" stroke="grey" stroke-width="2" points="939.18,-338.42 937.5,-327.96 932.29,-337.18 939.18,-338.42"/>
</g>
<!-- 12 -->
<g id="node13" class="node">
<title>12</title>
<path fill="none" stroke="#56a2d8" stroke-width="2" d="M939.75,-540C939.75,-540 860,-540 860,-540 854,-540 848,-534 848,-528 848,-528 848,-516 848,-516 848,-510 854,-504 860,-504 860,-504 939.75,-504 939.75,-504 945.75,-504 951.75,-510 951.75,-516 951.75,-516 951.75,-528 951.75,-528 951.75,-534 945.75,-540 939.75,-540"/>
<text text-anchor="middle" x="899.88" y="-518.12" font-family="sans" font-size="10.00">samtools_sam2bam</text>
</g>
<!-- 12&#45;&gt;11 -->
<g id="edge20" class="edge">
<title>12&#45;&gt;11</title>
<path fill="none" stroke="grey" stroke-width="2" d="M899.88,-503.34C899.88,-496.75 899.88,-489.08 899.88,-481.67"/>
<polygon fill="grey" stroke="grey" stroke-width="2" points="903.38,-481.93 899.88,-471.93 896.38,-481.93 903.38,-481.93"/>
</g>
<!-- 13&#45;&gt;12 -->
<g id="edge21" class="edge">
<title>13&#45;&gt;12</title>
<path fill="none" stroke="grey" stroke-width="2" d="M899.88,-575.34C899.88,-568.75 899.88,-561.08 899.88,-553.67"/>
<polygon fill="grey" stroke="grey" stroke-width="2" points="903.38,-553.93 899.88,-543.93 896.38,-553.93 903.38,-553.93"/>
</g>
<!-- 14 -->
<g id="node15" class="node">
<title>14</title>
<path fill="none" stroke="#d86e56" stroke-width="2" d="M824,-684C824,-684 769.75,-684 769.75,-684 763.75,-684 757.75,-678 757.75,-672 757.75,-672 757.75,-660 757.75,-660 757.75,-654 763.75,-648 769.75,-648 769.75,-648 824,-648 824,-648 830,-648 836,-654 836,-660 836,-660 836,-672 836,-672 836,-678 830,-684 824,-684"/>
<text text-anchor="middle" x="796.88" y="-667.75" font-family="sans" font-size="10.00">fastp_trim</text>
<text text-anchor="middle" x="796.88" y="-656.5" font-family="sans" font-size="10.00">sample: KO_3</text>
</g>
<!-- 14&#45;&gt;13 -->
<g id="edge22" class="edge">
<title>14&#45;&gt;13</title>
<path fill="none" stroke="grey" stroke-width="2" d="M823.13,-647.15C835.24,-638.93 849.82,-629.02 863,-620.06"/>
<polygon fill="grey" stroke="grey" stroke-width="2" points="864.86,-623.03 871.16,-614.51 860.92,-617.24 864.86,-623.03"/>
</g>
<!-- 32 -->
<g id="node33" class="node">
<title>32</title>
<path fill="none" stroke="#d88556" stroke-width="2" d="M750.25,-252C750.25,-252 685.5,-252 685.5,-252 679.5,-252 673.5,-246 673.5,-240 673.5,-240 673.5,-228 673.5,-228 673.5,-222 679.5,-216 685.5,-216 685.5,-216 750.25,-216 750.25,-216 756.25,-216 762.25,-222 762.25,-228 762.25,-228 762.25,-240 762.25,-240 762.25,-246 756.25,-252 750.25,-252"/>
<text text-anchor="middle" x="717.88" y="-230.12" font-family="sans" font-size="10.00">fastqc_post_trim</text>
</g>
<!-- 14&#45;&gt;32 -->
<g id="edge57" class="edge">
<title>14&#45;&gt;32</title>
<path fill="none" stroke="grey" stroke-width="2" d="M757.11,-649.33C710.89,-628.19 640.88,-585.81 640.88,-523 640.88,-523 640.88,-523 640.88,-377 640.88,-336.55 639.76,-323.09 659.88,-288 665.53,-278.13 673.65,-269.07 682.04,-261.34"/>
<polygon fill="grey" stroke="grey" stroke-width="2" points="684.26,-264.04 689.57,-254.87 679.7,-258.73 684.26,-264.04"/>
</g>
<!-- 15 -->
<g id="node16" class="node">
<title>15</title>
<path fill="none" stroke="#568ad8" stroke-width="2" d="M1417.62,-468C1417.62,-468 1340.12,-468 1340.12,-468 1334.12,-468 1328.12,-462 1328.12,-456 1328.12,-456 1328.12,-444 1328.12,-444 1328.12,-438 1334.12,-432 1340.12,-432 1340.12,-432 1417.62,-432 1417.62,-432 1423.62,-432 1429.62,-438 1429.62,-444 1429.62,-444 1429.62,-456 1429.62,-456 1429.62,-462 1423.62,-468 1417.62,-468"/>
<text text-anchor="middle" x="1378.88" y="-446.12" font-family="sans" font-size="10.00">samtools_sort_bam</text>
</g>
<!-- 15&#45;&gt;1 -->
<g id="edge7" class="edge">
<title>15&#45;&gt;1</title>
<path fill="none" stroke="grey" stroke-width="2" d="M1328.11,-431.04C1303.17,-421.62 1272.95,-409.27 1246.88,-396 1209.33,-376.89 1168.84,-350.93 1140.74,-331.98"/>
<polygon fill="grey" stroke="grey" stroke-width="2" points="1142.98,-329.27 1132.74,-326.54 1139.04,-335.06 1142.98,-329.27"/>
</g>
<!-- 22 -->
<g id="node23" class="node">
<title>22</title>
<path fill="none" stroke="#56b9d8" stroke-width="2" d="M1380,-396C1380,-396 1295.75,-396 1295.75,-396 1289.75,-396 1283.75,-390 1283.75,-384 1283.75,-384 1283.75,-372 1283.75,-372 1283.75,-366 1289.75,-360 1295.75,-360 1295.75,-360 1380,-360 1380,-360 1386,-360 1392,-366 1392,-372 1392,-372 1392,-384 1392,-384 1392,-390 1386,-396 1380,-396"/>
<text text-anchor="middle" x="1337.88" y="-374.12" font-family="sans" font-size="10.00">samtools_index_bam</text>
</g>
<!-- 15&#45;&gt;22 -->
<g id="edge31" class="edge">
<title>15&#45;&gt;22</title>
<path fill="none" stroke="grey" stroke-width="2" d="M1368.53,-431.34C1364.38,-424.26 1359.5,-415.92 1354.86,-408"/>
<polygon fill="grey" stroke="grey" stroke-width="2" points="1357.96,-406.37 1349.89,-399.51 1351.92,-409.91 1357.96,-406.37"/>
</g>
<!-- 37 -->
<g id="node38" class="node">
<title>37</title>
<path fill="none" stroke="#56d8c9" stroke-width="2" d="M1445.12,-252C1445.12,-252 1370.62,-252 1370.62,-252 1364.62,-252 1358.62,-246 1358.62,-240 1358.62,-240 1358.62,-228 1358.62,-228 1358.62,-222 1364.62,-216 1370.62,-216 1370.62,-216 1445.12,-216 1445.12,-216 1451.12,-216 1457.12,-222 1457.12,-228 1457.12,-228 1457.12,-240 1457.12,-240 1457.12,-246 1451.12,-252 1445.12,-252"/>
<text text-anchor="middle" x="1407.88" y="-230.12" font-family="sans" font-size="10.00">samtools_flagstats</text>
</g>
<!-- 15&#45;&gt;37 -->
<g id="edge62" class="edge">
<title>15&#45;&gt;37</title>
<path fill="none" stroke="grey" stroke-width="2" d="M1409.76,-431.16C1442.4,-410.27 1491.87,-372.3 1511.88,-324 1518,-309.22 1520.23,-301.64 1511.88,-288 1502.2,-272.21 1486.17,-260.93 1469.56,-252.97"/>
<polygon fill="grey" stroke="grey" stroke-width="2" points="1471.39,-249.94 1460.82,-249.17 1468.6,-256.36 1471.39,-249.94"/>
</g>
<!-- 41 -->
<g id="node42" class="node">
<title>41</title>
<path fill="none" stroke="#56d0d8" stroke-width="2" d="M1382.62,-324C1382.62,-324 1311.12,-324 1311.12,-324 1305.12,-324 1299.12,-318 1299.12,-312 1299.12,-312 1299.12,-300 1299.12,-300 1299.12,-294 1305.12,-288 1311.12,-288 1311.12,-288 1382.62,-288 1382.62,-288 1388.62,-288 1394.62,-294 1394.62,-300 1394.62,-300 1394.62,-312 1394.62,-312 1394.62,-318 1388.62,-324 1382.62,-324"/>
<text text-anchor="middle" x="1346.88" y="-302.12" font-family="sans" font-size="10.00">samtools_idxstats</text>
</g>
<!-- 15&#45;&gt;41 -->
<g id="edge69" class="edge">
<title>15&#45;&gt;41</title>
<path fill="none" stroke="grey" stroke-width="2" d="M1389.81,-431.09C1399.53,-412.74 1410.79,-383.63 1400.88,-360 1396.72,-350.1 1389.71,-341.11 1382.09,-333.47"/>
<polygon fill="grey" stroke="grey" stroke-width="2" points="1384.63,-331.05 1374.89,-326.89 1379.91,-336.22 1384.63,-331.05"/>
</g>
<!-- 45 -->
<g id="node46" class="node">
<title>45</title>
<path fill="none" stroke="#78d856" stroke-width="2" d="M1490.62,-324C1490.62,-324 1425.12,-324 1425.12,-324 1419.12,-324 1413.12,-318 1413.12,-312 1413.12,-312 1413.12,-300 1413.12,-300 1413.12,-294 1419.12,-288 1425.12,-288 1425.12,-288 1490.62,-288 1490.62,-288 1496.62,-288 1502.62,-294 1502.62,-300 1502.62,-300 1502.62,-312 1502.62,-312 1502.62,-318 1496.62,-324 1490.62,-324"/>
<text text-anchor="middle" x="1457.88" y="-302.12" font-family="sans" font-size="10.00">qualimap_bamqc</text>
</g>
<!-- 15&#45;&gt;45 -->
<g id="edge77" class="edge">
<title>15&#45;&gt;45</title>
<path fill="none" stroke="grey" stroke-width="2" d="M1392.77,-431.42C1400.38,-421.36 1409.7,-408.33 1416.88,-396 1427.96,-376.95 1438.32,-354.39 1445.86,-336.75"/>
<polygon fill="grey" stroke="grey" stroke-width="2" points="1449.02,-338.26 1449.65,-327.68 1442.56,-335.56 1449.02,-338.26"/>
</g>
<!-- 51 -->
<g id="node52" class="node">
<title>51</title>
<path fill="none" stroke="#56d8a9" stroke-width="2" d="M1268.88,-324C1268.88,-324 1192.88,-324 1192.88,-324 1186.88,-324 1180.88,-318 1180.88,-312 1180.88,-312 1180.88,-300 1180.88,-300 1180.88,-294 1186.88,-288 1192.88,-288 1192.88,-288 1268.88,-288 1268.88,-288 1274.88,-288 1280.88,-294 1280.88,-300 1280.88,-300 1280.88,-312 1280.88,-312 1280.88,-318 1274.88,-324 1268.88,-324"/>
<text text-anchor="middle" x="1230.88" y="-302.12" font-family="sans" font-size="10.00">qualimap_rnaseqqc</text>
</g>
<!-- 15&#45;&gt;51 -->
<g id="edge91" class="edge">
<title>15&#45;&gt;51</title>
<path fill="none" stroke="grey" stroke-width="2" d="M1328.35,-431.11C1309.82,-422.66 1289.76,-411.07 1274.88,-396 1258.54,-379.46 1247.2,-355.65 1240.13,-336.81"/>
<polygon fill="grey" stroke="grey" stroke-width="2" points="1243.51,-335.86 1236.91,-327.58 1236.9,-338.17 1243.51,-335.86"/>
</g>
<!-- 16 -->
<g id="node17" class="node">
<title>16</title>
<path fill="none" stroke="#56a2d8" stroke-width="2" d="M1418.75,-540C1418.75,-540 1339,-540 1339,-540 1333,-540 1327,-534 1327,-528 1327,-528 1327,-516 1327,-516 1327,-510 1333,-504 1339,-504 1339,-504 1418.75,-504 1418.75,-504 1424.75,-504 1430.75,-510 1430.75,-516 1430.75,-516 1430.75,-528 1430.75,-528 1430.75,-534 1424.75,-540 1418.75,-540"/>
<text text-anchor="middle" x="1378.88" y="-518.12" font-family="sans" font-size="10.00">samtools_sam2bam</text>
</g>
<!-- 16&#45;&gt;15 -->
<g id="edge24" class="edge">
<title>16&#45;&gt;15</title>
<path fill="none" stroke="grey" stroke-width="2" d="M1378.88,-503.34C1378.88,-496.75 1378.88,-489.08 1378.88,-481.67"/>
<polygon fill="grey" stroke="grey" stroke-width="2" points="1382.38,-481.93 1378.88,-471.93 1375.38,-481.93 1382.38,-481.93"/>
</g>
<!-- 17&#45;&gt;16 -->
<g id="edge25" class="edge">
<title>17&#45;&gt;16</title>
<path fill="none" stroke="grey" stroke-width="2" d="M1378.88,-575.34C1378.88,-568.75 1378.88,-561.08 1378.88,-553.67"/>
<polygon fill="grey" stroke="grey" stroke-width="2" points="1382.38,-553.93 1378.88,-543.93 1375.38,-553.93 1382.38,-553.93"/>
</g>
<!-- 18 -->
<g id="node19" class="node">
<title>18</title>
<path fill="none" stroke="#d86e56" stroke-width="2" d="M1525.75,-684C1525.75,-684 1470,-684 1470,-684 1464,-684 1458,-678 1458,-672 1458,-672 1458,-660 1458,-660 1458,-654 1464,-648 1470,-648 1470,-648 1525.75,-648 1525.75,-648 1531.75,-648 1537.75,-654 1537.75,-660 1537.75,-660 1537.75,-672 1537.75,-672 1537.75,-678 1531.75,-684 1525.75,-684"/>
<text text-anchor="middle" x="1497.88" y="-667.75" font-family="sans" font-size="10.00">fastp_trim</text>
<text text-anchor="middle" x="1497.88" y="-656.5" font-family="sans" font-size="10.00">sample: WT_1</text>
</g>
<!-- 18&#45;&gt;17 -->
<g id="edge26" class="edge">
<title>18&#45;&gt;17</title>
<path fill="none" stroke="grey" stroke-width="2" d="M1467.54,-647.15C1453.13,-638.68 1435.69,-628.42 1420.11,-619.25"/>
<polygon fill="grey" stroke="grey" stroke-width="2" points="1422.16,-616.4 1411.77,-614.35 1418.61,-622.43 1422.16,-616.4"/>
</g>
<!-- 33 -->
<g id="node34" class="node">
<title>33</title>
<path fill="none" stroke="#d88556" stroke-width="2" d="M1940.25,-540C1940.25,-540 1875.5,-540 1875.5,-540 1869.5,-540 1863.5,-534 1863.5,-528 1863.5,-528 1863.5,-516 1863.5,-516 1863.5,-510 1869.5,-504 1875.5,-504 1875.5,-504 1940.25,-504 1940.25,-504 1946.25,-504 1952.25,-510 1952.25,-516 1952.25,-516 1952.25,-528 1952.25,-528 1952.25,-534 1946.25,-540 1940.25,-540"/>
<text text-anchor="middle" x="1907.88" y="-518.12" font-family="sans" font-size="10.00">fastqc_post_trim</text>
</g>
<!-- 18&#45;&gt;33 -->
<g id="edge58" class="edge">
<title>18&#45;&gt;33</title>
<path fill="none" stroke="grey" stroke-width="2" d="M1538.53,-660.89C1590.54,-654.69 1682.77,-640.51 1756.88,-612 1799.06,-595.77 1843.12,-568.42 1872.68,-548.31"/>
<polygon fill="grey" stroke="grey" stroke-width="2" points="1874.54,-551.28 1880.78,-542.72 1870.56,-545.52 1874.54,-551.28"/>
</g>
<!-- 19&#45;&gt;1 -->
<g id="edge8" class="edge">
<title>19&#45;&gt;1</title>
<path fill="none" stroke="grey" stroke-width="2" d="M535.92,-372.45C630.83,-364.36 831.28,-346.24 999.88,-324 1010.92,-322.54 1022.58,-320.83 1033.96,-319.06"/>
<polygon fill="grey" stroke="grey" stroke-width="2" points="1034.33,-322.55 1043.66,-317.53 1033.23,-315.63 1034.33,-322.55"/>
</g>
<!-- 19&#45;&gt;38 -->
<g id="edge64" class="edge">
<title>19&#45;&gt;38</title>
<path fill="none" stroke="grey" stroke-width="2" d="M444.67,-359.15C426.98,-350.43 405.46,-339.82 386.46,-330.46"/>
<polygon fill="grey" stroke="grey" stroke-width="2" points="388.24,-327.43 377.72,-326.15 385.15,-333.71 388.24,-327.43"/>
</g>
<!-- 19&#45;&gt;42 -->
<g id="edge72" class="edge">
<title>19&#45;&gt;42</title>
<path fill="none" stroke="grey" stroke-width="2" d="M473.05,-359.34C469.99,-352.43 466.4,-344.31 462.96,-336.56"/>
<polygon fill="grey" stroke="grey" stroke-width="2" points="466.28,-335.4 459.03,-327.67 459.88,-338.23 466.28,-335.4"/>
</g>
<!-- 19&#45;&gt;48 -->
<g id="edge86" class="edge">
<title>19&#45;&gt;48</title>
<path fill="none" stroke="grey" stroke-width="2" d="M501.57,-359.34C510.82,-351.44 521.92,-341.96 532.11,-333.26"/>
<polygon fill="grey" stroke="grey" stroke-width="2" points="534.27,-336.02 539.6,-326.87 529.72,-330.7 534.27,-336.02"/>
</g>
<!-- 20&#45;&gt;1 -->
<g id="edge9" class="edge">
<title>20&#45;&gt;1</title>
<path fill="none" stroke="grey" stroke-width="2" d="M1618.02,-373.77C1527.74,-367.91 1342.02,-353.48 1175.68,-324.53"/>
<polygon fill="grey" stroke="grey" stroke-width="2" points="1176.67,-321.15 1166.21,-322.86 1175.45,-328.04 1176.67,-321.15"/>
</g>
<!-- 20&#45;&gt;39 -->
<g id="edge66" class="edge">
<title>20&#45;&gt;39</title>
<path fill="none" stroke="grey" stroke-width="2" d="M1686,-359.34C1691.44,-352.01 1697.88,-343.34 1703.94,-335.18"/>
<polygon fill="grey" stroke="grey" stroke-width="2" points="1706.62,-337.45 1709.77,-327.33 1701,-333.27 1706.62,-337.45"/>
</g>
<!-- 20&#45;&gt;43 -->
<g id="edge74" class="edge">
<title>20&#45;&gt;43</title>
<path fill="none" stroke="grey" stroke-width="2" d="M1714.43,-359.15C1735.04,-350.3 1760.18,-339.51 1782.23,-330.04"/>
<polygon fill="grey" stroke="grey" stroke-width="2" points="1783.53,-333.29 1791.33,-326.13 1780.76,-326.86 1783.53,-333.29"/>
</g>
<!-- 20&#45;&gt;49 -->
<g id="edge88" class="edge">
<title>20&#45;&gt;49</title>
<path fill="none" stroke="grey" stroke-width="2" d="M1656.73,-359.34C1649.81,-351.77 1641.56,-342.75 1633.88,-334.35"/>
<polygon fill="grey" stroke="grey" stroke-width="2" points="1636.62,-332.15 1627.28,-327.14 1631.45,-336.88 1636.62,-332.15"/>
</g>
<!-- 21&#45;&gt;1 -->
<g id="edge10" class="edge">
<title>21&#45;&gt;1</title>
<path fill="none" stroke="grey" stroke-width="2" d="M913.78,-361.38C949.43,-351.23 996.22,-337.92 1034.58,-327"/>
<polygon fill="grey" stroke="grey" stroke-width="2" points="1035.14,-330.48 1043.8,-324.38 1033.23,-323.75 1035.14,-330.48"/>
</g>
<!-- 21&#45;&gt;40 -->
<g id="edge68" class="edge">
<title>21&#45;&gt;40</title>
<path fill="none" stroke="grey" stroke-width="2" d="M822.67,-359.15C804.98,-350.43 783.46,-339.82 764.46,-330.46"/>
<polygon fill="grey" stroke="grey" stroke-width="2" points="766.24,-327.43 755.72,-326.15 763.15,-333.71 766.24,-327.43"/>
</g>
<!-- 21&#45;&gt;44 -->
<g id="edge76" class="edge">
<title>21&#45;&gt;44</title>
<path fill="none" stroke="grey" stroke-width="2" d="M851.05,-359.34C847.99,-352.43 844.4,-344.31 840.96,-336.56"/>
<polygon fill="grey" stroke="grey" stroke-width="2" points="844.28,-335.4 837.03,-327.67 837.88,-338.23 844.28,-335.4"/>
</g>
<!-- 21&#45;&gt;50 -->
<g id="edge90" class="edge">
<title>21&#45;&gt;50</title>
<path fill="none" stroke="grey" stroke-width="2" d="M879.57,-359.34C888.82,-351.44 899.92,-341.96 910.11,-333.26"/>
<polygon fill="grey" stroke="grey" stroke-width="2" points="912.27,-336.02 917.6,-326.87 907.72,-330.7 912.27,-336.02"/>
</g>
<!-- 22&#45;&gt;1 -->
<g id="edge11" class="edge">
<title>22&#45;&gt;1</title>
<path fill="none" stroke="grey" stroke-width="2" d="M1282.95,-360.5C1250.84,-350.85 1209.97,-338.57 1175.48,-328.21"/>
<polygon fill="grey" stroke="grey" stroke-width="2" points="1176.57,-324.89 1165.99,-325.36 1174.56,-331.59 1176.57,-324.89"/>
</g>
<!-- 22&#45;&gt;41 -->
<g id="edge70" class="edge">
<title>22&#45;&gt;41</title>
<path fill="none" stroke="grey" stroke-width="2" d="M1340.15,-359.34C1340.99,-352.75 1341.98,-345.08 1342.93,-337.67"/>
<polygon fill="grey" stroke="grey" stroke-width="2" points="1346.38,-338.27 1344.19,-327.9 1339.44,-337.38 1346.38,-338.27"/>
</g>
<!-- 22&#45;&gt;45 -->
<g id="edge78" class="edge">
<title>22&#45;&gt;45</title>
<path fill="none" stroke="grey" stroke-width="2" d="M1368.47,-359.15C1382.99,-350.68 1400.58,-340.42 1416.3,-331.25"/>
<polygon fill="grey" stroke="grey" stroke-width="2" points="1417.85,-334.4 1424.72,-326.34 1414.32,-328.35 1417.85,-334.4"/>
</g>
<!-- 22&#45;&gt;51 -->
<g id="edge92" class="edge">
<title>22&#45;&gt;51</title>
<path fill="none" stroke="grey" stroke-width="2" d="M1310.6,-359.15C1297.89,-350.84 1282.57,-340.82 1268.77,-331.79"/>
<polygon fill="grey" stroke="grey" stroke-width="2" points="1270.92,-329.02 1260.64,-326.47 1267.09,-334.87 1270.92,-329.02"/>
</g>
<!-- 23&#45;&gt;0 -->
<g id="edge2" class="edge">
<title>23&#45;&gt;0</title>
<path fill="none" stroke="grey" stroke-width="2" d="M61.96,-215.21C66.5,-194.68 77.07,-161.5 99.88,-144 209.53,-59.85 650.73,-28.78 787.35,-21.07"/>
<polygon fill="grey" stroke="grey" stroke-width="2" points="787.14,-24.59 796.93,-20.54 786.76,-17.6 787.14,-24.59"/>
</g>
<!-- 24 -->
<g id="node25" class="node">
<title>24</title>
<path fill="none" stroke="#c6d856" stroke-width="2" d="M73.75,-324C73.75,-324 12,-324 12,-324 6,-324 0,-318 0,-312 0,-312 0,-300 0,-300 0,-294 6,-288 12,-288 12,-288 73.75,-288 73.75,-288 79.75,-288 85.75,-294 85.75,-300 85.75,-300 85.75,-312 85.75,-312 85.75,-318 79.75,-324 73.75,-324"/>
<text text-anchor="middle" x="42.88" y="-302.12" font-family="sans" font-size="10.00">make_metadata</text>
</g>
<!-- 24&#45;&gt;23 -->
<g id="edge33" class="edge">
<title>24&#45;&gt;23</title>
<path fill="none" stroke="grey" stroke-width="2" d="M46.91,-287.34C48.44,-280.67 50.22,-272.89 51.93,-265.39"/>
<polygon fill="grey" stroke="grey" stroke-width="2" points="55.29,-266.38 54.11,-255.85 48.47,-264.82 55.29,-266.38"/>
</g>
<!-- 25 -->
<g id="node26" class="node">
<title>25</title>
<path fill="none" stroke="#afd856" stroke-width="2" d="M842.88,-108C842.88,-108 812.88,-108 812.88,-108 806.88,-108 800.88,-102 800.88,-96 800.88,-96 800.88,-84 800.88,-84 800.88,-78 806.88,-72 812.88,-72 812.88,-72 842.88,-72 842.88,-72 848.88,-72 854.88,-78 854.88,-84 854.88,-84 854.88,-96 854.88,-96 854.88,-102 848.88,-108 842.88,-108"/>
<text text-anchor="middle" x="827.88" y="-86.12" font-family="sans" font-size="10.00">multiqc</text>
</g>
<!-- 25&#45;&gt;0 -->
<g id="edge3" class="edge">
<title>25&#45;&gt;0</title>
<path fill="none" stroke="grey" stroke-width="2" d="M827.88,-71.34C827.88,-64.75 827.88,-57.08 827.88,-49.67"/>
<polygon fill="grey" stroke="grey" stroke-width="2" points="831.38,-49.93 827.88,-39.93 824.38,-49.93 831.38,-49.93"/>
</g>
<!-- 26 -->
<g id="node27" class="node">
<title>26</title>
<path fill="none" stroke="#d8a456" stroke-width="2" d="M213.62,-180C213.62,-180 154.12,-180 154.12,-180 148.12,-180 142.12,-174 142.12,-168 142.12,-168 142.12,-156 142.12,-156 142.12,-150 148.12,-144 154.12,-144 154.12,-144 213.62,-144 213.62,-144 219.62,-144 225.62,-150 225.62,-156 225.62,-156 225.62,-168 225.62,-168 225.62,-174 219.62,-180 213.62,-180"/>
<text text-anchor="middle" x="183.88" y="-163.75" font-family="sans" font-size="10.00">fastqc_pre_trim</text>
<text text-anchor="middle" x="183.88" y="-152.5" font-family="sans" font-size="10.00">sample: KO_1</text>
</g>
<!-- 26&#45;&gt;25 -->
<g id="edge34" class="edge">
<title>26&#45;&gt;25</title>
<path fill="none" stroke="grey" stroke-width="2" d="M226.53,-145.98C229.33,-145.24 232.13,-144.57 234.88,-144 439.31,-101.4 690.4,-93.03 787.18,-91.39"/>
<polygon fill="grey" stroke="grey" stroke-width="2" points="787.08,-94.9 797.03,-91.25 786.97,-87.9 787.08,-94.9"/>
</g>
<!-- 27 -->
<g id="node28" class="node">
<title>27</title>
<path fill="none" stroke="#d8a456" stroke-width="2" d="M315.62,-180C315.62,-180 256.12,-180 256.12,-180 250.12,-180 244.12,-174 244.12,-168 244.12,-168 244.12,-156 244.12,-156 244.12,-150 250.12,-144 256.12,-144 256.12,-144 315.62,-144 315.62,-144 321.62,-144 327.62,-150 327.62,-156 327.62,-156 327.62,-168 327.62,-168 327.62,-174 321.62,-180 315.62,-180"/>
<text text-anchor="middle" x="285.88" y="-163.75" font-family="sans" font-size="10.00">fastqc_pre_trim</text>
<text text-anchor="middle" x="285.88" y="-152.5" font-family="sans" font-size="10.00">sample: KO_2</text>
</g>
<!-- 27&#45;&gt;25 -->
<g id="edge35" class="edge">
<title>27&#45;&gt;25</title>
<path fill="none" stroke="grey" stroke-width="2" d="M328.54,-146.04C331.34,-145.29 334.14,-144.6 336.88,-144 501.5,-108.11 702.73,-96.09 787.34,-92.44"/>
<polygon fill="grey" stroke="grey" stroke-width="2" points="787.26,-95.95 797.1,-92.04 786.97,-88.95 787.26,-95.95"/>
</g>
<!-- 28 -->
<g id="node29" class="node">
<title>28</title>
<path fill="none" stroke="#d8a456" stroke-width="2" d="M417.62,-180C417.62,-180 358.12,-180 358.12,-180 352.12,-180 346.12,-174 346.12,-168 346.12,-168 346.12,-156 346.12,-156 346.12,-150 352.12,-144 358.12,-144 358.12,-144 417.62,-144 417.62,-144 423.62,-144 429.62,-150 429.62,-156 429.62,-156 429.62,-168 429.62,-168 429.62,-174 423.62,-180 417.62,-180"/>
<text text-anchor="middle" x="387.88" y="-163.75" font-family="sans" font-size="10.00">fastqc_pre_trim</text>
<text text-anchor="middle" x="387.88" y="-152.5" font-family="sans" font-size="10.00">sample: KO_3</text>
</g>
<!-- 28&#45;&gt;25 -->
<g id="edge36" class="edge">
<title>28&#45;&gt;25</title>
<path fill="none" stroke="grey" stroke-width="2" d="M430.56,-146.13C433.36,-145.35 436.15,-144.63 438.88,-144 564.23,-114.84 716.3,-99.86 787.48,-94.01"/>
<polygon fill="grey" stroke="grey" stroke-width="2" points="787.5,-97.52 797.18,-93.23 786.94,-90.54 787.5,-97.52"/>
</g>
<!-- 29 -->
<g id="node30" class="node">
<title>29</title>
<path fill="none" stroke="#d8a456" stroke-width="2" d="M519.62,-180C519.62,-180 460.12,-180 460.12,-180 454.12,-180 448.12,-174 448.12,-168 448.12,-168 448.12,-156 448.12,-156 448.12,-150 454.12,-144 460.12,-144 460.12,-144 519.62,-144 519.62,-144 525.62,-144 531.62,-150 531.62,-156 531.62,-156 531.62,-168 531.62,-168 531.62,-174 525.62,-180 519.62,-180"/>
<text text-anchor="middle" x="489.88" y="-163.75" font-family="sans" font-size="10.00">fastqc_pre_trim</text>
<text text-anchor="middle" x="489.88" y="-152.5" font-family="sans" font-size="10.00">sample: WT_1</text>
</g>
<!-- 29&#45;&gt;25 -->
<g id="edge37" class="edge">
<title>29&#45;&gt;25</title>
<path fill="none" stroke="grey" stroke-width="2" d="M532.6,-146.28C535.39,-145.47 538.16,-144.7 540.88,-144 627.45,-121.69 731.03,-104.96 787.04,-96.71"/>
<polygon fill="grey" stroke="grey" stroke-width="2" points="787.5,-100.18 796.89,-95.28 786.49,-93.25 787.5,-100.18"/>
</g>
<!-- 30&#45;&gt;25 -->
<g id="edge38" class="edge">
<title>30&#45;&gt;25</title>
<path fill="none" stroke="grey" stroke-width="2" d="M194.97,-431.16C163.31,-407.01 113.88,-360.71 113.88,-307 113.88,-307 113.88,-307 113.88,-233 113.88,-192.55 102.42,-170.62 132.88,-144 182.25,-100.85 646.27,-92.77 787.37,-91.31"/>
<polygon fill="grey" stroke="grey" stroke-width="2" points="787,-94.82 796.96,-91.22 786.93,-87.82 787,-94.82"/>
</g>
<!-- 31&#45;&gt;25 -->
<g id="edge39" class="edge">
<title>31&#45;&gt;25</title>
<path fill="none" stroke="grey" stroke-width="2" d="M2012.99,-215.26C2004.93,-194.12 1988.24,-159.67 1960.88,-144 1864.6,-88.88 1059.87,-89.73 868.57,-90.73"/>
<polygon fill="grey" stroke="grey" stroke-width="2" points="868.63,-87.23 858.65,-90.78 868.67,-94.23 868.63,-87.23"/>
</g>
<!-- 32&#45;&gt;25 -->
<g id="edge40" class="edge">
<title>32&#45;&gt;25</title>
<path fill="none" stroke="grey" stroke-width="2" d="M728.02,-215.24C738.91,-196.75 757.16,-167.29 775.88,-144 783.07,-135.04 791.56,-125.9 799.57,-117.78"/>
<polygon fill="grey" stroke="grey" stroke-width="2" points="801.84,-120.45 806.49,-110.93 796.92,-115.48 801.84,-120.45"/>
</g>
<!-- 33&#45;&gt;25 -->
<g id="edge41" class="edge">
<title>33&#45;&gt;25</title>
<path fill="none" stroke="grey" stroke-width="2" d="M1916.15,-503.05C1927.59,-476.53 1946.88,-425.02 1946.88,-379 1946.88,-379 1946.88,-379 1946.88,-233 1946.88,-122.03 1069.62,-96.25 868.58,-91.79"/>
<polygon fill="grey" stroke="grey" stroke-width="2" points="868.91,-88.3 858.84,-91.59 868.76,-95.3 868.91,-88.3"/>
</g>
<!-- 34&#45;&gt;25 -->
<g id="edge42" class="edge">
<title>34&#45;&gt;25</title>
<path fill="none" stroke="grey" stroke-width="2" d="M648.85,-145.72C690.47,-133 748.97,-115.12 787.63,-103.3"/>
<polygon fill="grey" stroke="grey" stroke-width="2" points="788.49,-106.7 797.03,-100.43 786.44,-100.01 788.49,-106.7"/>
</g>
<!-- 35&#45;&gt;25 -->
<g id="edge43" class="edge">
<title>35&#45;&gt;25</title>
<path fill="none" stroke="grey" stroke-width="2" d="M1881.54,-359.23C1892.59,-339.92 1905.39,-309.03 1889.88,-288 1881.35,-276.44 1409.57,-144.51 1406.88,-144 1207.37,-106.49 964,-95.21 868.8,-92.09"/>
<polygon fill="grey" stroke="grey" stroke-width="2" points="868.98,-88.6 858.88,-91.78 868.77,-95.59 868.98,-88.6"/>
</g>
<!-- 36&#45;&gt;25 -->
<g id="edge44" class="edge">
<title>36&#45;&gt;25</title>
<path fill="none" stroke="grey" stroke-width="2" d="M1019.19,-359.25C1021.21,-340.5 1026.27,-310.6 1038.88,-288 1049.89,-268.24 1066.22,-272.91 1074.88,-252 1081,-237.22 1082.17,-230.24 1074.88,-216 1035.05,-138.25 927.27,-107.9 868.1,-96.83"/>
<polygon fill="grey" stroke="grey" stroke-width="2" points="869,-93.43 858.54,-95.15 867.79,-100.32 869,-93.43"/>
</g>
<!-- 37&#45;&gt;25 -->
<g id="edge45" class="edge">
<title>37&#45;&gt;25</title>
<path fill="none" stroke="grey" stroke-width="2" d="M1370.73,-215.16C1327.01,-194.89 1251.76,-162.28 1183.88,-144 1071.82,-113.83 935,-99.54 868.31,-93.97"/>
<polygon fill="grey" stroke="grey" stroke-width="2" points="868.83,-90.5 858.58,-93.18 868.26,-97.48 868.83,-90.5"/>
</g>
<!-- 38&#45;&gt;25 -->
<g id="edge46" class="edge">
<title>38&#45;&gt;25</title>
<path fill="none" stroke="grey" stroke-width="2" d="M387.42,-287.94C464.07,-260.67 609.32,-207.52 656.88,-180 679.04,-167.17 679.86,-157.09 701.88,-144 729.27,-127.71 762.6,-113.92 788.1,-104.5"/>
<polygon fill="grey" stroke="grey" stroke-width="2" points="789.22,-107.82 797.44,-101.13 786.84,-101.23 789.22,-107.82"/>
</g>
<!-- 39&#45;&gt;25 -->
<g id="edge47" class="edge">
<title>39&#45;&gt;25</title>
<path fill="none" stroke="grey" stroke-width="2" d="M1676.24,-288.09C1624.24,-270.06 1539.32,-240.75 1465.88,-216 1369.18,-183.42 1347.4,-166.49 1247.88,-144 1110.59,-112.97 943.67,-98.71 868.28,-93.49"/>
<polygon fill="grey" stroke="grey" stroke-width="2" points="868.95,-90.03 858.73,-92.85 868.48,-97.01 868.95,-90.03"/>
</g>
<!-- 40&#45;&gt;25 -->
<g id="edge48" class="edge">
<title>40&#45;&gt;25</title>
<path fill="none" stroke="grey" stroke-width="2" d="M739.5,-287.03C750.21,-277.56 762.47,-265.18 770.88,-252 797.35,-210.47 813.47,-155.04 821.52,-121.25"/>
<polygon fill="grey" stroke="grey" stroke-width="2" points="824.92,-122.08 823.72,-111.55 818.09,-120.53 824.92,-122.08"/>
</g>
<!-- 41&#45;&gt;25 -->
<g id="edge49" class="edge">
<title>41&#45;&gt;25</title>
<path fill="none" stroke="grey" stroke-width="2" d="M1298.39,-290.44C1295.51,-289.61 1292.66,-288.79 1289.88,-288 1230.54,-271.19 1202.74,-292.08 1155.88,-252 1115.96,-217.86 1149.05,-176.61 1107.88,-144 1071.33,-115.06 936.88,-100.01 868.45,-94.08"/>
<polygon fill="grey" stroke="grey" stroke-width="2" points="868.97,-90.61 858.71,-93.27 868.39,-97.59 868.97,-90.61"/>
</g>
<!-- 42&#45;&gt;25 -->
<g id="edge50" class="edge">
<title>42&#45;&gt;25</title>
<path fill="none" stroke="grey" stroke-width="2" d="M495.53,-290.6C498.35,-289.71 501.15,-288.84 503.88,-288 556.25,-271.77 573.92,-278.59 621.88,-252 629.86,-247.57 738.58,-149.49 745.88,-144 759.55,-133.7 775.2,-123.28 789.14,-114.44"/>
<polygon fill="grey" stroke="grey" stroke-width="2" points="790.69,-117.59 797.31,-109.32 786.98,-111.66 790.69,-117.59"/>
</g>
<!-- 43&#45;&gt;25 -->
<g id="edge51" class="edge">
<title>43&#45;&gt;25</title>
<path fill="none" stroke="grey" stroke-width="2" d="M1790.16,-287.36C1701.24,-253.81 1498.12,-180.84 1320.88,-144 1155.24,-109.57 953.38,-96.77 868.52,-92.68"/>
<polygon fill="grey" stroke="grey" stroke-width="2" points="868.87,-89.19 858.72,-92.22 868.55,-96.18 868.87,-89.19"/>
</g>
<!-- 44&#45;&gt;25 -->
<g id="edge52" class="edge">
<title>44&#45;&gt;25</title>
<path fill="none" stroke="grey" stroke-width="2" d="M827.88,-287.12C827.88,-250.62 827.88,-167.13 827.88,-121.74"/>
<polygon fill="grey" stroke="grey" stroke-width="2" points="831.38,-122 827.88,-112 824.38,-122 831.38,-122"/>
</g>
<!-- 45&#45;&gt;25 -->
<g id="edge53" class="edge">
<title>45&#45;&gt;25</title>
<path fill="none" stroke="grey" stroke-width="2" d="M1412.47,-287.34C1357.05,-265.1 1261.18,-224.4 1183.88,-180 1159.82,-166.18 1158.5,-154.63 1132.88,-144 1043.3,-106.83 928.47,-95.73 868.49,-92.41"/>
<polygon fill="grey" stroke="grey" stroke-width="2" points="868.69,-88.92 858.53,-91.92 868.35,-95.91 868.69,-88.92"/>
</g>
<!-- 46 -->
<g id="node47" class="node">
<title>46</title>
<path fill="none" stroke="#56d863" stroke-width="2" d="M953.75,-180C953.75,-180 868,-180 868,-180 862,-180 856,-174 856,-168 856,-168 856,-156 856,-156 856,-150 862,-144 868,-144 868,-144 953.75,-144 953.75,-144 959.75,-144 965.75,-150 965.75,-156 965.75,-156 965.75,-168 965.75,-168 965.75,-174 959.75,-180 953.75,-180"/>
<text text-anchor="middle" x="910.88" y="-158.12" font-family="sans" font-size="10.00">qualimap_counts_QC</text>
</g>
<!-- 46&#45;&gt;25 -->
<g id="edge54" class="edge">
<title>46&#45;&gt;25</title>
<path fill="none" stroke="grey" stroke-width="2" d="M889.93,-143.34C880.57,-135.44 869.33,-125.96 859.01,-117.26"/>
<polygon fill="grey" stroke="grey" stroke-width="2" points="861.32,-114.62 851.42,-110.85 856.8,-119.98 861.32,-114.62"/>
</g>
<!-- 47 -->
<g id="node48" class="node">
<title>47</title>
<path fill="none" stroke="#56d87b" stroke-width="2" d="M1053.38,-252C1053.38,-252 980.38,-252 980.38,-252 974.38,-252 968.38,-246 968.38,-240 968.38,-240 968.38,-228 968.38,-228 968.38,-222 974.38,-216 980.38,-216 980.38,-216 1053.38,-216 1053.38,-216 1059.38,-216 1065.38,-222 1065.38,-228 1065.38,-228 1065.38,-240 1065.38,-240 1065.38,-246 1059.38,-252 1053.38,-252"/>
<text text-anchor="middle" x="1016.88" y="-230.12" font-family="sans" font-size="10.00">qualimap_data_file</text>
</g>
<!-- 47&#45;&gt;46 -->
<g id="edge79" class="edge">
<title>47&#45;&gt;46</title>
<path fill="none" stroke="grey" stroke-width="2" d="M989.85,-215.15C977.27,-206.84 962.09,-196.82 948.41,-187.79"/>
<polygon fill="grey" stroke="grey" stroke-width="2" points="950.65,-185.07 940.37,-182.48 946.79,-190.91 950.65,-185.07"/>
</g>
<!-- 48&#45;&gt;47 -->
<g id="edge81" class="edge">
<title>48&#45;&gt;47</title>
<path fill="none" stroke="grey" stroke-width="2" d="M613.64,-295.57C628.51,-292.96 644.82,-290.22 659.88,-288 788.28,-269.03 825.52,-278.31 955.23,-252.55"/>
<polygon fill="grey" stroke="grey" stroke-width="2" points="955.58,-256.05 964.69,-250.63 954.19,-249.19 955.58,-256.05"/>
</g>
<!-- 49&#45;&gt;47 -->
<g id="edge82" class="edge">
<title>49&#45;&gt;47</title>
<path fill="none" stroke="grey" stroke-width="2" d="M1557.88,-295.4C1543.07,-292.8 1526.86,-290.11 1511.88,-288 1356.73,-266.12 1173.1,-248.65 1079.12,-240.32"/>
<polygon fill="grey" stroke="grey" stroke-width="2" points="1079.47,-236.84 1069.21,-239.45 1078.86,-243.81 1079.47,-236.84"/>
</g>
<!-- 50&#45;&gt;47 -->
<g id="edge83" class="edge">
<title>50&#45;&gt;47</title>
<path fill="none" stroke="grey" stroke-width="2" d="M960.05,-287.34C968.54,-279.52 978.7,-270.16 988.07,-261.53"/>
<polygon fill="grey" stroke="grey" stroke-width="2" points="990.23,-264.3 995.21,-254.95 985.49,-259.15 990.23,-264.3"/>
</g>
<!-- 51&#45;&gt;47 -->
<g id="edge84" class="edge">
<title>51&#45;&gt;47</title>
<path fill="none" stroke="grey" stroke-width="2" d="M1179.89,-288.32C1149.41,-278.35 1110.5,-265.62 1078.33,-255.1"/>
<polygon fill="grey" stroke="grey" stroke-width="2" points="1079.83,-251.91 1069.24,-252.13 1077.66,-258.56 1079.83,-251.91"/>
</g>
<!-- 52 -->
<g id="node53" class="node">
<title>52</title>
<path fill="none" stroke="#56d892" stroke-width="2" d="M937.88,-252C937.88,-252 867.88,-252 867.88,-252 861.88,-252 855.88,-246 855.88,-240 855.88,-240 855.88,-228 855.88,-228 855.88,-222 861.88,-216 867.88,-216 867.88,-216 937.88,-216 937.88,-216 943.88,-216 949.88,-222 949.88,-228 949.88,-228 949.88,-240 949.88,-240 949.88,-246 943.88,-252 937.88,-252"/>
<text text-anchor="middle" x="902.88" y="-230.12" font-family="sans" font-size="10.00">qualimap_info_file</text>
</g>
<!-- 52&#45;&gt;46 -->
<g id="edge80" class="edge">
<title>52&#45;&gt;46</title>
<path fill="none" stroke="grey" stroke-width="2" d="M904.89,-215.34C905.65,-208.75 906.52,-201.08 907.37,-193.67"/>
<polygon fill="grey" stroke="grey" stroke-width="2" points="910.83,-194.24 908.49,-183.91 903.87,-193.45 910.83,-194.24"/>
</g>
</g>
</svg>
