<?xml version="1.0" encoding="UTF-8" standalone="no"?>
<!DOCTYPE svg PUBLIC "-//W3C//DTD SVG 1.1//EN"
 "http://www.w3.org/Graphics/SVG/1.1/DTD/svg11.dtd">
<!-- Generated by graphviz version 12.2.1 (0)
 -->
<!-- Title: snakemake_dag Pages: 1 -->
<svg width="510pt" height="332pt"
 viewBox="0.00 0.00 509.62 332.00" xmlns="http://www.w3.org/2000/svg" xmlns:xlink="http://www.w3.org/1999/xlink">
<g id="graph0" class="graph" transform="scale(1 1) rotate(0) translate(4 328)">
<title>snakemake_dag</title>
<polygon fill="white" stroke="none" points="-4,4 -4,-328 505.62,-328 505.62,4 -4,4"/>
<!-- 0 -->
<g id="node1" class="node">
<title>0</title>
<path fill="none" stroke="#d85656" stroke-width="2" stroke-dasharray="5,2" d="M180.5,-36C180.5,-36 150.5,-36 150.5,-36 144.5,-36 138.5,-30 138.5,-24 138.5,-24 138.5,-12 138.5,-12 138.5,-6 144.5,0 150.5,0 150.5,0 180.5,0 180.5,0 186.5,0 192.5,-6 192.5,-12 192.5,-12 192.5,-24 192.5,-24 192.5,-30 186.5,-36 180.5,-36"/>
<text text-anchor="middle" x="165.5" y="-14.12" font-family="sans" font-size="10.00">all</text>
</g>
<!-- 1 -->
<g id="node2" class="node">
<title>1</title>
<path fill="none" stroke="#78d856" stroke-width="2" stroke-dasharray="5,2" d="M55,-108C55,-108 12,-108 12,-108 6,-108 0,-102 0,-96 0,-96 0,-84 0,-84 0,-78 6,-72 12,-72 12,-72 55,-72 55,-72 61,-72 67,-78 67,-84 67,-84 67,-96 67,-96 67,-102 61,-108 55,-108"/>
<text text-anchor="middle" x="33.5" y="-91.75" font-family="sans" font-size="10.00">fastqc</text>
<text text-anchor="middle" x="33.5" y="-80.5" font-family="sans" font-size="10.00">sample: gut</text>
</g>
<!-- 1&#45;&gt;0 -->
<g id="edge1" class="edge">
<title>1&#45;&gt;0</title>
<path fill="none" stroke="grey" stroke-width="2" d="M67.15,-71.15C85.16,-61.61 107.43,-49.79 126.22,-39.83"/>
<polygon fill="grey" stroke="grey" stroke-width="2" points="127.83,-42.94 135.02,-35.16 124.55,-36.75 127.83,-42.94"/>
</g>
<!-- 2 -->
<g id="node3" class="node">
<title>2</title>
<path fill="none" stroke="#78d856" stroke-width="2" stroke-dasharray="5,2" d="M144.25,-108C144.25,-108 96.75,-108 96.75,-108 90.75,-108 84.75,-102 84.75,-96 84.75,-96 84.75,-84 84.75,-84 84.75,-78 90.75,-72 96.75,-72 96.75,-72 144.25,-72 144.25,-72 150.25,-72 156.25,-78 156.25,-84 156.25,-84 156.25,-96 156.25,-96 156.25,-102 150.25,-108 144.25,-108"/>
<text text-anchor="middle" x="120.5" y="-91.75" font-family="sans" font-size="10.00">fastqc</text>
<text text-anchor="middle" x="120.5" y="-80.5" font-family="sans" font-size="10.00">sample: liver</text>
</g>
<!-- 2&#45;&gt;0 -->
<g id="edge2" class="edge">
<title>2&#45;&gt;0</title>
<path fill="none" stroke="grey" stroke-width="2" d="M131.86,-71.34C136.46,-64.18 141.89,-55.73 147.03,-47.73"/>
<polygon fill="grey" stroke="grey" stroke-width="2" points="149.89,-49.75 152.35,-39.45 144,-45.97 149.89,-49.75"/>
</g>
<!-- 3 -->
<g id="node4" class="node">
<title>3</title>
<path fill="none" stroke="#78d856" stroke-width="2" stroke-dasharray="5,2" d="M234.25,-108C234.25,-108 186.75,-108 186.75,-108 180.75,-108 174.75,-102 174.75,-96 174.75,-96 174.75,-84 174.75,-84 174.75,-78 180.75,-72 186.75,-72 186.75,-72 234.25,-72 234.25,-72 240.25,-72 246.25,-78 246.25,-84 246.25,-84 246.25,-96 246.25,-96 246.25,-102 240.25,-108 234.25,-108"/>
<text text-anchor="middle" x="210.5" y="-91.75" font-family="sans" font-size="10.00">fastqc</text>
<text text-anchor="middle" x="210.5" y="-80.5" font-family="sans" font-size="10.00">sample: lung</text>
</g>
<!-- 3&#45;&gt;0 -->
<g id="edge3" class="edge">
<title>3&#45;&gt;0</title>
<path fill="none" stroke="grey" stroke-width="2" d="M199.14,-71.34C194.54,-64.18 189.11,-55.73 183.97,-47.73"/>
<polygon fill="grey" stroke="grey" stroke-width="2" points="187,-45.97 178.65,-39.45 181.11,-49.75 187,-45.97"/>
</g>
<!-- 4 -->
<g id="node5" class="node">
<title>4</title>
<path fill="none" stroke="#56a2d8" stroke-width="2" stroke-dasharray="5,2" d="M367,-108C367,-108 276,-108 276,-108 270,-108 264,-102 264,-96 264,-96 264,-84 264,-84 264,-78 270,-72 276,-72 276,-72 367,-72 367,-72 373,-72 379,-78 379,-84 379,-84 379,-96 379,-96 379,-102 373,-108 367,-108"/>
<text text-anchor="middle" x="321.5" y="-86.12" font-family="sans" font-size="10.00">subread_featurecounts</text>
</g>
<!-- 4&#45;&gt;0 -->
<g id="edge4" class="edge">
<title>4&#45;&gt;0</title>
<path fill="none" stroke="grey" stroke-width="2" d="M281.73,-71.15C258.21,-60.6 228.52,-47.28 205.04,-36.74"/>
<polygon fill="grey" stroke="grey" stroke-width="2" points="206.71,-33.66 196.15,-32.75 203.84,-40.04 206.71,-33.66"/>
</g>
<!-- 5 -->
<g id="node6" class="node">
<title>5</title>
<path fill="none" stroke="#56d87b" stroke-width="2" stroke-dasharray="5,2" d="M237.62,-180C237.62,-180 153.38,-180 153.38,-180 147.38,-180 141.38,-174 141.38,-168 141.38,-168 141.38,-156 141.38,-156 141.38,-150 147.38,-144 153.38,-144 153.38,-144 237.62,-144 237.62,-144 243.62,-144 249.62,-150 249.62,-156 249.62,-156 249.62,-168 249.62,-168 249.62,-174 243.62,-180 237.62,-180"/>
<text text-anchor="middle" x="195.5" y="-158.12" font-family="sans" font-size="10.00">samtools_index_bam</text>
</g>
<!-- 5&#45;&gt;4 -->
<g id="edge5" class="edge">
<title>5&#45;&gt;4</title>
<path fill="none" stroke="grey" stroke-width="2" d="M227.62,-143.15C243.02,-134.6 261.7,-124.22 278.32,-114.99"/>
<polygon fill="grey" stroke="grey" stroke-width="2" points="279.75,-118.2 286.79,-110.28 276.35,-112.08 279.75,-118.2"/>
</g>
<!-- 6 -->
<g id="node7" class="node">
<title>6</title>
<path fill="none" stroke="#56d8c9" stroke-width="2" stroke-dasharray="5,2" d="M235.38,-252C235.38,-252 155.62,-252 155.62,-252 149.62,-252 143.62,-246 143.62,-240 143.62,-240 143.62,-228 143.62,-228 143.62,-222 149.62,-216 155.62,-216 155.62,-216 235.38,-216 235.38,-216 241.38,-216 247.38,-222 247.38,-228 247.38,-228 247.38,-240 247.38,-240 247.38,-246 241.38,-252 235.38,-252"/>
<text text-anchor="middle" x="195.5" y="-230.12" font-family="sans" font-size="10.00">samtools_sam2bam</text>
</g>
<!-- 6&#45;&gt;5 -->
<g id="edge8" class="edge">
<title>6&#45;&gt;5</title>
<path fill="none" stroke="grey" stroke-width="2" d="M195.5,-215.34C195.5,-208.75 195.5,-201.08 195.5,-193.67"/>
<polygon fill="grey" stroke="grey" stroke-width="2" points="199,-193.93 195.5,-183.93 192,-193.93 199,-193.93"/>
</g>
<!-- 7 -->
<g id="node8" class="node">
<title>7</title>
<path fill="none" stroke="#d8a456" stroke-width="2" stroke-dasharray="5,2" d="M221.12,-324C221.12,-324 169.88,-324 169.88,-324 163.88,-324 157.88,-318 157.88,-312 157.88,-312 157.88,-300 157.88,-300 157.88,-294 163.88,-288 169.88,-288 169.88,-288 221.12,-288 221.12,-288 227.12,-288 233.12,-294 233.12,-300 233.12,-300 233.12,-312 233.12,-312 233.12,-318 227.12,-324 221.12,-324"/>
<text text-anchor="middle" x="195.5" y="-307.75" font-family="sans" font-size="10.00">bowtie2_align</text>
<text text-anchor="middle" x="195.5" y="-296.5" font-family="sans" font-size="10.00">sample: gut</text>
</g>
<!-- 7&#45;&gt;6 -->
<g id="edge9" class="edge">
<title>7&#45;&gt;6</title>
<path fill="none" stroke="grey" stroke-width="2" d="M195.5,-287.34C195.5,-280.75 195.5,-273.08 195.5,-265.67"/>
<polygon fill="grey" stroke="grey" stroke-width="2" points="199,-265.93 195.5,-255.93 192,-265.93 199,-265.93"/>
</g>
<!-- 8 -->
<g id="node9" class="node">
<title>8</title>
<path fill="none" stroke="#56d87b" stroke-width="2" stroke-dasharray="5,2" d="M363.62,-180C363.62,-180 279.38,-180 279.38,-180 273.38,-180 267.38,-174 267.38,-168 267.38,-168 267.38,-156 267.38,-156 267.38,-150 273.38,-144 279.38,-144 279.38,-144 363.62,-144 363.62,-144 369.62,-144 375.62,-150 375.62,-156 375.62,-156 375.62,-168 375.62,-168 375.62,-174 369.62,-180 363.62,-180"/>
<text text-anchor="middle" x="321.5" y="-158.12" font-family="sans" font-size="10.00">samtools_index_bam</text>
</g>
<!-- 8&#45;&gt;4 -->
<g id="edge6" class="edge">
<title>8&#45;&gt;4</title>
<path fill="none" stroke="grey" stroke-width="2" d="M321.5,-143.34C321.5,-136.75 321.5,-129.08 321.5,-121.67"/>
<polygon fill="grey" stroke="grey" stroke-width="2" points="325,-121.93 321.5,-111.93 318,-121.93 325,-121.93"/>
</g>
<!-- 9 -->
<g id="node10" class="node">
<title>9</title>
<path fill="none" stroke="#56d8c9" stroke-width="2" stroke-dasharray="5,2" d="M361.38,-252C361.38,-252 281.62,-252 281.62,-252 275.62,-252 269.62,-246 269.62,-240 269.62,-240 269.62,-228 269.62,-228 269.62,-222 275.62,-216 281.62,-216 281.62,-216 361.38,-216 361.38,-216 367.38,-216 373.38,-222 373.38,-228 373.38,-228 373.38,-240 373.38,-240 373.38,-246 367.38,-252 361.38,-252"/>
<text text-anchor="middle" x="321.5" y="-230.12" font-family="sans" font-size="10.00">samtools_sam2bam</text>
</g>
<!-- 9&#45;&gt;8 -->
<g id="edge10" class="edge">
<title>9&#45;&gt;8</title>
<path fill="none" stroke="grey" stroke-width="2" d="M321.5,-215.34C321.5,-208.75 321.5,-201.08 321.5,-193.67"/>
<polygon fill="grey" stroke="grey" stroke-width="2" points="325,-193.93 321.5,-183.93 318,-193.93 325,-193.93"/>
</g>
<!-- 10 -->
<g id="node11" class="node">
<title>10</title>
<path fill="none" stroke="#d8a456" stroke-width="2" stroke-dasharray="5,2" d="M347.12,-324C347.12,-324 295.88,-324 295.88,-324 289.88,-324 283.88,-318 283.88,-312 283.88,-312 283.88,-300 283.88,-300 283.88,-294 289.88,-288 295.88,-288 295.88,-288 347.12,-288 347.12,-288 353.12,-288 359.12,-294 359.12,-300 359.12,-300 359.12,-312 359.12,-312 359.12,-318 353.12,-324 347.12,-324"/>
<text text-anchor="middle" x="321.5" y="-307.75" font-family="sans" font-size="10.00">bowtie2_align</text>
<text text-anchor="middle" x="321.5" y="-296.5" font-family="sans" font-size="10.00">sample: liver</text>
</g>
<!-- 10&#45;&gt;9 -->
<g id="edge11" class="edge">
<title>10&#45;&gt;9</title>
<path fill="none" stroke="grey" stroke-width="2" d="M321.5,-287.34C321.5,-280.75 321.5,-273.08 321.5,-265.67"/>
<polygon fill="grey" stroke="grey" stroke-width="2" points="325,-265.93 321.5,-255.93 318,-265.93 325,-265.93"/>
</g>
<!-- 11 -->
<g id="node12" class="node">
<title>11</title>
<path fill="none" stroke="#56d87b" stroke-width="2" stroke-dasharray="5,2" d="M489.62,-180C489.62,-180 405.38,-180 405.38,-180 399.38,-180 393.38,-174 393.38,-168 393.38,-168 393.38,-156 393.38,-156 393.38,-150 399.38,-144 405.38,-144 405.38,-144 489.62,-144 489.62,-144 495.62,-144 501.62,-150 501.62,-156 501.62,-156 501.62,-168 501.62,-168 501.62,-174 495.62,-180 489.62,-180"/>
<text text-anchor="middle" x="447.5" y="-158.12" font-family="sans" font-size="10.00">samtools_index_bam</text>
</g>
<!-- 11&#45;&gt;4 -->
<g id="edge7" class="edge">
<title>11&#45;&gt;4</title>
<path fill="none" stroke="grey" stroke-width="2" d="M415.38,-143.15C399.98,-134.6 381.3,-124.22 364.68,-114.99"/>
<polygon fill="grey" stroke="grey" stroke-width="2" points="366.65,-112.08 356.21,-110.28 363.25,-118.2 366.65,-112.08"/>
</g>
<!-- 12 -->
<g id="node13" class="node">
<title>12</title>
<path fill="none" stroke="#56d8c9" stroke-width="2" stroke-dasharray="5,2" d="M487.38,-252C487.38,-252 407.62,-252 407.62,-252 401.62,-252 395.62,-246 395.62,-240 395.62,-240 395.62,-228 395.62,-228 395.62,-222 401.62,-216 407.62,-216 407.62,-216 487.38,-216 487.38,-216 493.38,-216 499.38,-222 499.38,-228 499.38,-228 499.38,-240 499.38,-240 499.38,-246 493.38,-252 487.38,-252"/>
<text text-anchor="middle" x="447.5" y="-230.12" font-family="sans" font-size="10.00">samtools_sam2bam</text>
</g>
<!-- 12&#45;&gt;11 -->
<g id="edge12" class="edge">
<title>12&#45;&gt;11</title>
<path fill="none" stroke="grey" stroke-width="2" d="M447.5,-215.34C447.5,-208.75 447.5,-201.08 447.5,-193.67"/>
<polygon fill="grey" stroke="grey" stroke-width="2" points="451,-193.93 447.5,-183.93 444,-193.93 451,-193.93"/>
</g>
<!-- 13 -->
<g id="node14" class="node">
<title>13</title>
<path fill="none" stroke="#d8a456" stroke-width="2" stroke-dasharray="5,2" d="M473.12,-324C473.12,-324 421.88,-324 421.88,-324 415.88,-324 409.88,-318 409.88,-312 409.88,-312 409.88,-300 409.88,-300 409.88,-294 415.88,-288 421.88,-288 421.88,-288 473.12,-288 473.12,-288 479.12,-288 485.12,-294 485.12,-300 485.12,-300 485.12,-312 485.12,-312 485.12,-318 479.12,-324 473.12,-324"/>
<text text-anchor="middle" x="447.5" y="-307.75" font-family="sans" font-size="10.00">bowtie2_align</text>
<text text-anchor="middle" x="447.5" y="-296.5" font-family="sans" font-size="10.00">sample: lung</text>
</g>
<!-- 13&#45;&gt;12 -->
<g id="edge13" class="edge">
<title>13&#45;&gt;12</title>
<path fill="none" stroke="grey" stroke-width="2" d="M447.5,-287.34C447.5,-280.75 447.5,-273.08 447.5,-265.67"/>
<polygon fill="grey" stroke="grey" stroke-width="2" points="451,-265.93 447.5,-255.93 444,-265.93 451,-265.93"/>
</g>
</g>
</svg>
