<?xml version="1.0" encoding="UTF-8" standalone="no"?>
<!DOCTYPE svg PUBLIC "-//W3C//DTD SVG 1.1//EN"
 "http://www.w3.org/Graphics/SVG/1.1/DTD/svg11.dtd">
<!-- Generated by graphviz version 12.2.1 (0)
 -->
<!-- Title: snakemake_dag Pages: 1 -->
<svg width="382pt" height="476pt"
 viewBox="0.00 0.00 382.00 476.00" xmlns="http://www.w3.org/2000/svg" xmlns:xlink="http://www.w3.org/1999/xlink">
<g id="graph0" class="graph" transform="scale(1 1) rotate(0) translate(4 472)">
<title>snakemake_dag</title>
<polygon fill="white" stroke="none" points="-4,4 -4,-472 378,-472 378,4 -4,4"/>
<!-- 0 -->
<g id="node1" class="node">
<title>0</title>
<path fill="none" stroke="#d85656" stroke-width="2" d="M207.88,-36C207.88,-36 177.88,-36 177.88,-36 171.88,-36 165.88,-30 165.88,-24 165.88,-24 165.88,-12 165.88,-12 165.88,-6 171.88,0 177.88,0 177.88,0 207.88,0 207.88,0 213.88,0 219.88,-6 219.88,-12 219.88,-12 219.88,-24 219.88,-24 219.88,-30 213.88,-36 207.88,-36"/>
<text text-anchor="middle" x="192.88" y="-14.12" font-family="sans" font-size="10.00">all</text>
</g>
<!-- 1 -->
<g id="node2" class="node">
<title>1</title>
<path fill="none" stroke="#d89556" stroke-width="2" d="M79.75,-108C79.75,-108 12,-108 12,-108 6,-108 0,-102 0,-96 0,-96 0,-84 0,-84 0,-78 6,-72 12,-72 12,-72 79.75,-72 79.75,-72 85.75,-72 91.75,-78 91.75,-84 91.75,-84 91.75,-96 91.75,-96 91.75,-102 85.75,-108 79.75,-108"/>
<text text-anchor="middle" x="45.88" y="-91.75" font-family="sans" font-size="10.00">fastqc</text>
<text text-anchor="middle" x="45.88" y="-80.5" font-family="sans" font-size="10.00">sample: Sample1</text>
</g>
<!-- 1&#45;&gt;0 -->
<g id="edge1" class="edge">
<title>1&#45;&gt;0</title>
<path fill="none" stroke="grey" stroke-width="2" d="M83.35,-71.15C104.88,-60.9 131.89,-48.04 153.7,-37.65"/>
<polygon fill="grey" stroke="grey" stroke-width="2" points="154.96,-40.93 162.48,-33.47 151.95,-34.61 154.96,-40.93"/>
</g>
<!-- 2 -->
<g id="node3" class="node">
<title>2</title>
<path fill="none" stroke="#d89556" stroke-width="2" d="M189.75,-108C189.75,-108 122,-108 122,-108 116,-108 110,-102 110,-96 110,-96 110,-84 110,-84 110,-78 116,-72 122,-72 122,-72 189.75,-72 189.75,-72 195.75,-72 201.75,-78 201.75,-84 201.75,-84 201.75,-96 201.75,-96 201.75,-102 195.75,-108 189.75,-108"/>
<text text-anchor="middle" x="155.88" y="-91.75" font-family="sans" font-size="10.00">fastqc</text>
<text text-anchor="middle" x="155.88" y="-80.5" font-family="sans" font-size="10.00">sample: Sample2</text>
</g>
<!-- 2&#45;&gt;0 -->
<g id="edge2" class="edge">
<title>2&#45;&gt;0</title>
<path fill="none" stroke="grey" stroke-width="2" d="M165.21,-71.34C168.91,-64.34 173.26,-56.12 177.4,-48.28"/>
<polygon fill="grey" stroke="grey" stroke-width="2" points="180.42,-50.05 182,-39.58 174.23,-46.78 180.42,-50.05"/>
</g>
<!-- 3 -->
<g id="node4" class="node">
<title>3</title>
<path fill="none" stroke="#569ad8" stroke-width="2" d="M302.38,-180C302.38,-180 211.38,-180 211.38,-180 205.38,-180 199.38,-174 199.38,-168 199.38,-168 199.38,-156 199.38,-156 199.38,-150 205.38,-144 211.38,-144 211.38,-144 302.38,-144 302.38,-144 308.38,-144 314.38,-150 314.38,-156 314.38,-156 314.38,-168 314.38,-168 314.38,-174 308.38,-180 302.38,-180"/>
<text text-anchor="middle" x="256.88" y="-158.12" font-family="sans" font-size="10.00">subread_featurecounts</text>
</g>
<!-- 3&#45;&gt;0 -->
<g id="edge3" class="edge">
<title>3&#45;&gt;0</title>
<path fill="none" stroke="grey" stroke-width="2" d="M248.77,-143.02C238.05,-119.22 219,-76.97 206.16,-48.48"/>
<polygon fill="grey" stroke="grey" stroke-width="2" points="209.46,-47.28 202.16,-39.6 203.08,-50.15 209.46,-47.28"/>
</g>
<!-- 11 -->
<g id="node12" class="node">
<title>11</title>
<path fill="none" stroke="#59d856" stroke-width="2" d="M299.88,-108C299.88,-108 269.88,-108 269.88,-108 263.88,-108 257.88,-102 257.88,-96 257.88,-96 257.88,-84 257.88,-84 257.88,-78 263.88,-72 269.88,-72 269.88,-72 299.88,-72 299.88,-72 305.88,-72 311.88,-78 311.88,-84 311.88,-84 311.88,-96 311.88,-96 311.88,-102 305.88,-108 299.88,-108"/>
<text text-anchor="middle" x="284.88" y="-86.12" font-family="sans" font-size="10.00">plot_pca</text>
</g>
<!-- 3&#45;&gt;11 -->
<g id="edge13" class="edge">
<title>3&#45;&gt;11</title>
<path fill="none" stroke="grey" stroke-width="2" d="M263.94,-143.34C266.67,-136.51 269.87,-128.5 272.94,-120.83"/>
<polygon fill="grey" stroke="grey" stroke-width="2" points="276.13,-122.3 276.59,-111.71 269.63,-119.7 276.13,-122.3"/>
</g>
<!-- 4 -->
<g id="node5" class="node">
<title>4</title>
<path fill="none" stroke="#56d89a" stroke-width="2" d="M236,-252C236,-252 151.75,-252 151.75,-252 145.75,-252 139.75,-246 139.75,-240 139.75,-240 139.75,-228 139.75,-228 139.75,-222 145.75,-216 151.75,-216 151.75,-216 236,-216 236,-216 242,-216 248,-222 248,-228 248,-228 248,-240 248,-240 248,-246 242,-252 236,-252"/>
<text text-anchor="middle" x="193.88" y="-230.12" font-family="sans" font-size="10.00">samtools_index_bam</text>
</g>
<!-- 4&#45;&gt;3 -->
<g id="edge5" class="edge">
<title>4&#45;&gt;3</title>
<path fill="none" stroke="grey" stroke-width="2" d="M209.77,-215.34C216.58,-207.77 224.7,-198.75 232.26,-190.35"/>
<polygon fill="grey" stroke="grey" stroke-width="2" points="234.65,-192.93 238.74,-183.15 229.45,-188.24 234.65,-192.93"/>
</g>
<!-- 5 -->
<g id="node6" class="node">
<title>5</title>
<path fill="none" stroke="#56d8d8" stroke-width="2" d="M235.75,-324C235.75,-324 156,-324 156,-324 150,-324 144,-318 144,-312 144,-312 144,-300 144,-300 144,-294 150,-288 156,-288 156,-288 235.75,-288 235.75,-288 241.75,-288 247.75,-294 247.75,-300 247.75,-300 247.75,-312 247.75,-312 247.75,-318 241.75,-324 235.75,-324"/>
<text text-anchor="middle" x="195.88" y="-302.12" font-family="sans" font-size="10.00">samtools_sam2bam</text>
</g>
<!-- 5&#45;&gt;4 -->
<g id="edge7" class="edge">
<title>5&#45;&gt;4</title>
<path fill="none" stroke="grey" stroke-width="2" d="M195.37,-287.34C195.18,-280.75 194.96,-273.08 194.75,-265.67"/>
<polygon fill="grey" stroke="grey" stroke-width="2" points="198.26,-265.82 194.47,-255.93 191.26,-266.02 198.26,-265.82"/>
</g>
<!-- 6 -->
<g id="node7" class="node">
<title>6</title>
<path fill="none" stroke="#d6d856" stroke-width="2" d="M235.75,-396C235.75,-396 168,-396 168,-396 162,-396 156,-390 156,-384 156,-384 156,-372 156,-372 156,-366 162,-360 168,-360 168,-360 235.75,-360 235.75,-360 241.75,-360 247.75,-366 247.75,-372 247.75,-372 247.75,-384 247.75,-384 247.75,-390 241.75,-396 235.75,-396"/>
<text text-anchor="middle" x="201.88" y="-379.75" font-family="sans" font-size="10.00">hisat2_align</text>
<text text-anchor="middle" x="201.88" y="-368.5" font-family="sans" font-size="10.00">sample: Sample1</text>
</g>
<!-- 6&#45;&gt;5 -->
<g id="edge8" class="edge">
<title>6&#45;&gt;5</title>
<path fill="none" stroke="grey" stroke-width="2" d="M200.36,-359.34C199.8,-352.75 199.14,-345.08 198.5,-337.67"/>
<polygon fill="grey" stroke="grey" stroke-width="2" points="202.01,-337.58 197.67,-327.92 195.03,-338.18 202.01,-337.58"/>
</g>
<!-- 7 -->
<g id="node8" class="node">
<title>7</title>
<path fill="none" stroke="#97d856" stroke-width="2" d="M297.5,-468C297.5,-468 216.25,-468 216.25,-468 210.25,-468 204.25,-462 204.25,-456 204.25,-456 204.25,-444 204.25,-444 204.25,-438 210.25,-432 216.25,-432 216.25,-432 297.5,-432 297.5,-432 303.5,-432 309.5,-438 309.5,-444 309.5,-444 309.5,-456 309.5,-456 309.5,-462 303.5,-468 297.5,-468"/>
<text text-anchor="middle" x="256.88" y="-446.12" font-family="sans" font-size="10.00">hisat_index_genome</text>
</g>
<!-- 7&#45;&gt;6 -->
<g id="edge9" class="edge">
<title>7&#45;&gt;6</title>
<path fill="none" stroke="grey" stroke-width="2" d="M243,-431.34C237.18,-423.93 230.27,-415.14 223.8,-406.9"/>
<polygon fill="grey" stroke="grey" stroke-width="2" points="226.74,-404.98 217.81,-399.28 221.24,-409.31 226.74,-404.98"/>
</g>
<!-- 10 -->
<g id="node11" class="node">
<title>10</title>
<path fill="none" stroke="#d6d856" stroke-width="2" d="M348.75,-396C348.75,-396 281,-396 281,-396 275,-396 269,-390 269,-384 269,-384 269,-372 269,-372 269,-366 275,-360 281,-360 281,-360 348.75,-360 348.75,-360 354.75,-360 360.75,-366 360.75,-372 360.75,-372 360.75,-384 360.75,-384 360.75,-390 354.75,-396 348.75,-396"/>
<text text-anchor="middle" x="314.88" y="-379.75" font-family="sans" font-size="10.00">hisat2_align</text>
<text text-anchor="middle" x="314.88" y="-368.5" font-family="sans" font-size="10.00">sample: Sample2</text>
</g>
<!-- 7&#45;&gt;10 -->
<g id="edge12" class="edge">
<title>7&#45;&gt;10</title>
<path fill="none" stroke="grey" stroke-width="2" d="M271.51,-431.34C277.65,-423.93 284.93,-415.14 291.76,-406.9"/>
<polygon fill="grey" stroke="grey" stroke-width="2" points="294.43,-409.17 298.11,-399.23 289.04,-404.7 294.43,-409.17"/>
</g>
<!-- 8 -->
<g id="node9" class="node">
<title>8</title>
<path fill="none" stroke="#56d89a" stroke-width="2" d="M362,-252C362,-252 277.75,-252 277.75,-252 271.75,-252 265.75,-246 265.75,-240 265.75,-240 265.75,-228 265.75,-228 265.75,-222 271.75,-216 277.75,-216 277.75,-216 362,-216 362,-216 368,-216 374,-222 374,-228 374,-228 374,-240 374,-240 374,-246 368,-252 362,-252"/>
<text text-anchor="middle" x="319.88" y="-230.12" font-family="sans" font-size="10.00">samtools_index_bam</text>
</g>
<!-- 8&#45;&gt;3 -->
<g id="edge6" class="edge">
<title>8&#45;&gt;3</title>
<path fill="none" stroke="grey" stroke-width="2" d="M303.98,-215.34C297.17,-207.77 289.05,-198.75 281.49,-190.35"/>
<polygon fill="grey" stroke="grey" stroke-width="2" points="284.3,-188.24 275.01,-183.15 279.1,-192.93 284.3,-188.24"/>
</g>
<!-- 9 -->
<g id="node10" class="node">
<title>9</title>
<path fill="none" stroke="#56d8d8" stroke-width="2" d="M358.75,-324C358.75,-324 279,-324 279,-324 273,-324 267,-318 267,-312 267,-312 267,-300 267,-300 267,-294 273,-288 279,-288 279,-288 358.75,-288 358.75,-288 364.75,-288 370.75,-294 370.75,-300 370.75,-300 370.75,-312 370.75,-312 370.75,-318 364.75,-324 358.75,-324"/>
<text text-anchor="middle" x="318.88" y="-302.12" font-family="sans" font-size="10.00">samtools_sam2bam</text>
</g>
<!-- 9&#45;&gt;8 -->
<g id="edge10" class="edge">
<title>9&#45;&gt;8</title>
<path fill="none" stroke="grey" stroke-width="2" d="M319.13,-287.34C319.22,-280.75 319.33,-273.08 319.44,-265.67"/>
<polygon fill="grey" stroke="grey" stroke-width="2" points="322.93,-265.98 319.58,-255.93 315.93,-265.88 322.93,-265.98"/>
</g>
<!-- 10&#45;&gt;9 -->
<g id="edge11" class="edge">
<title>10&#45;&gt;9</title>
<path fill="none" stroke="grey" stroke-width="2" d="M315.88,-359.34C316.26,-352.75 316.7,-345.08 317.12,-337.67"/>
<polygon fill="grey" stroke="grey" stroke-width="2" points="320.6,-338.11 317.68,-327.92 313.61,-337.71 320.6,-338.11"/>
</g>
<!-- 11&#45;&gt;0 -->
<g id="edge4" class="edge">
<title>11&#45;&gt;0</title>
<path fill="none" stroke="grey" stroke-width="2" d="M261.66,-71.34C251.06,-63.27 238.31,-53.57 226.68,-44.72"/>
<polygon fill="grey" stroke="grey" stroke-width="2" points="228.89,-42 218.81,-38.73 224.65,-47.58 228.89,-42"/>
</g>
</g>
</svg>
