<?xml version="1.0" encoding="UTF-8" standalone="no"?>
<!DOCTYPE svg PUBLIC "-//W3C//DTD SVG 1.1//EN"
 "http://www.w3.org/Graphics/SVG/1.1/DTD/svg11.dtd">
<!-- Generated by graphviz version 12.2.1 (0)
 -->
<!-- Title: snakemake_dag Pages: 1 -->
<svg width="202pt" height="260pt"
 viewBox="0.00 0.00 201.62 260.00" xmlns="http://www.w3.org/2000/svg" xmlns:xlink="http://www.w3.org/1999/xlink">
<g id="graph0" class="graph" transform="scale(1 1) rotate(0) translate(4 256)">
<title>snakemake_dag</title>
<polygon fill="white" stroke="none" points="-4,4 -4,-256 197.62,-256 197.62,4 -4,4"/>
<!-- 0 -->
<g id="node1" class="node">
<title>0</title>
<path fill="none" stroke="#d85656" stroke-width="2" stroke-dasharray="5,2" d="M101.5,-36C101.5,-36 71.5,-36 71.5,-36 65.5,-36 59.5,-30 59.5,-24 59.5,-24 59.5,-12 59.5,-12 59.5,-6 65.5,0 71.5,0 71.5,0 101.5,0 101.5,0 107.5,0 113.5,-6 113.5,-12 113.5,-12 113.5,-24 113.5,-24 113.5,-30 107.5,-36 101.5,-36"/>
<text text-anchor="middle" x="86.5" y="-14.12" font-family="sans" font-size="10.00">all</text>
</g>
<!-- 1 -->
<g id="node2" class="node">
<title>1</title>
<path fill="none" stroke="#59d856" stroke-width="2" stroke-dasharray="5,2" d="M55,-108C55,-108 12,-108 12,-108 6,-108 0,-102 0,-96 0,-96 0,-84 0,-84 0,-78 6,-72 12,-72 12,-72 55,-72 55,-72 61,-72 67,-78 67,-84 67,-84 67,-96 67,-96 67,-102 61,-108 55,-108"/>
<text text-anchor="middle" x="33.5" y="-91.75" font-family="sans" font-size="10.00">fastqc</text>
<text text-anchor="middle" x="33.5" y="-80.5" font-family="sans" font-size="10.00">sample: gut</text>
</g>
<!-- 1&#45;&gt;0 -->
<g id="edge1" class="edge">
<title>1&#45;&gt;0</title>
<path fill="none" stroke="grey" stroke-width="2" d="M46.87,-71.34C52.42,-64.01 58.99,-55.34 65.17,-47.18"/>
<polygon fill="grey" stroke="grey" stroke-width="2" points="67.87,-49.4 71.12,-39.32 62.29,-45.18 67.87,-49.4"/>
</g>
<!-- 2 -->
<g id="node3" class="node">
<title>2</title>
<path fill="none" stroke="#56d8a9" stroke-width="2" stroke-dasharray="5,2" d="M181.62,-108C181.62,-108 97.38,-108 97.38,-108 91.38,-108 85.38,-102 85.38,-96 85.38,-96 85.38,-84 85.38,-84 85.38,-78 91.38,-72 97.38,-72 97.38,-72 181.62,-72 181.62,-72 187.62,-72 193.62,-78 193.62,-84 193.62,-84 193.62,-96 193.62,-96 193.62,-102 187.62,-108 181.62,-108"/>
<text text-anchor="middle" x="139.5" y="-86.12" font-family="sans" font-size="10.00">samtools_index_bam</text>
</g>
<!-- 2&#45;&gt;0 -->
<g id="edge2" class="edge">
<title>2&#45;&gt;0</title>
<path fill="none" stroke="grey" stroke-width="2" d="M126.13,-71.34C120.58,-64.01 114.01,-55.34 107.83,-47.18"/>
<polygon fill="grey" stroke="grey" stroke-width="2" points="110.71,-45.18 101.88,-39.32 105.13,-49.4 110.71,-45.18"/>
</g>
<!-- 3 -->
<g id="node4" class="node">
<title>3</title>
<path fill="none" stroke="#56a9d8" stroke-width="2" stroke-dasharray="5,2" d="M179.38,-180C179.38,-180 99.62,-180 99.62,-180 93.62,-180 87.62,-174 87.62,-168 87.62,-168 87.62,-156 87.62,-156 87.62,-150 93.62,-144 99.62,-144 99.62,-144 179.38,-144 179.38,-144 185.38,-144 191.38,-150 191.38,-156 191.38,-156 191.38,-168 191.38,-168 191.38,-174 185.38,-180 179.38,-180"/>
<text text-anchor="middle" x="139.5" y="-158.12" font-family="sans" font-size="10.00">samtools_sam2bam</text>
</g>
<!-- 3&#45;&gt;2 -->
<g id="edge3" class="edge">
<title>3&#45;&gt;2</title>
<path fill="none" stroke="grey" stroke-width="2" d="M139.5,-143.34C139.5,-136.75 139.5,-129.08 139.5,-121.67"/>
<polygon fill="grey" stroke="grey" stroke-width="2" points="143,-121.93 139.5,-111.93 136,-121.93 143,-121.93"/>
</g>
<!-- 4 -->
<g id="node5" class="node">
<title>4</title>
<path fill="none" stroke="#d8ac56" stroke-width="2" stroke-dasharray="5,2" d="M165.12,-252C165.12,-252 113.88,-252 113.88,-252 107.88,-252 101.88,-246 101.88,-240 101.88,-240 101.88,-228 101.88,-228 101.88,-222 107.88,-216 113.88,-216 113.88,-216 165.12,-216 165.12,-216 171.12,-216 177.12,-222 177.12,-228 177.12,-228 177.12,-240 177.12,-240 177.12,-246 171.12,-252 165.12,-252"/>
<text text-anchor="middle" x="139.5" y="-235.75" font-family="sans" font-size="10.00">bowtie2_align</text>
<text text-anchor="middle" x="139.5" y="-224.5" font-family="sans" font-size="10.00">sample: gut</text>
</g>
<!-- 4&#45;&gt;3 -->
<g id="edge4" class="edge">
<title>4&#45;&gt;3</title>
<path fill="none" stroke="grey" stroke-width="2" d="M139.5,-215.34C139.5,-208.75 139.5,-201.08 139.5,-193.67"/>
<polygon fill="grey" stroke="grey" stroke-width="2" points="143,-193.93 139.5,-183.93 136,-193.93 143,-193.93"/>
</g>
</g>
</svg>
